<svg width="151" height="39" viewBox="0 0 151 39" fill="none" xmlns="http://www.w3.org/2000/svg">
<path d="M41.2285 37.9526H35.3799V15.0082H36.7938L38.9314 17.2363C39.874 16.3793 40.7286 15.7224 41.914 15.2653C43.1137 14.794 44.3634 14.5584 45.6631 14.5584C47.0627 14.5584 48.3839 14.8297 49.6264 15.3724C50.6734 15.8177 51.6088 16.41 52.4327 17.1493C52.5866 17.2875 52.7366 17.4307 52.8828 17.579C53.8111 18.5074 54.5395 19.6 55.0679 20.8568C55.6107 22.0994 55.882 23.4276 55.882 24.8416V37.9526H50.0334V24.8416C50.0334 24.2417 49.9192 23.6776 49.6907 23.1491C49.4622 22.6064 49.148 22.1351 48.748 21.7352C48.3481 21.3353 47.884 21.0211 47.3555 20.7925C46.8271 20.564 46.2629 20.4498 45.6631 20.4498C45.049 20.4498 44.4705 20.564 43.9278 20.7925C43.3851 21.0211 42.9138 21.3353 42.5139 21.7352C42.114 22.1351 41.7997 22.6064 41.5712 23.1491C41.3427 23.6776 41.2285 24.2417 41.2285 24.8416V37.9526Z" fill="#F68300"/>
<path d="M66.9579 8.77405C66.9579 9.31677 66.8508 9.82379 66.6365 10.2951C66.4366 10.7664 66.1581 11.1806 65.801 11.5377C65.444 11.8804 65.0226 12.1589 64.5371 12.3732C64.0657 12.5731 63.5587 12.6731 63.016 12.6731C62.4733 12.6731 61.9591 12.5731 61.4735 12.3732C61.0022 12.1589 60.588 11.8804 60.231 11.5377C59.8882 11.1806 59.6097 10.7664 59.3954 10.2951C59.1955 9.82379 59.0955 9.31677 59.0955 8.77405C59.0955 8.24561 59.1955 7.74573 59.3954 7.27441C59.6097 6.78882 59.8882 6.37463 60.231 6.03186C60.588 5.6748 61.0022 5.3963 61.4735 5.19635C61.9591 4.98212 62.4733 4.875 63.016 4.875C63.5587 4.875 64.0657 4.98212 64.5371 5.19635C65.0226 5.3963 65.444 5.6748 65.801 6.03186C66.1581 6.37463 66.4366 6.78882 66.6365 7.27441C66.8508 7.74573 66.9579 8.24561 66.9579 8.77405ZM65.951 37.9526H60.0596V15.0082H65.951V37.9526Z" fill="#F68300"/>
<path d="M100.561 38.1645H94.4339V16.227C94.4339 15.7985 94.3482 15.3986 94.1768 15.0273C94.0197 14.6559 93.7983 14.3346 93.5127 14.0632C93.2413 13.7776 92.92 13.5562 92.5486 13.3991C92.1773 13.242 91.7774 13.1635 91.3489 13.1635C90.9205 13.1635 90.5206 13.242 90.1492 13.3991C89.7779 13.5562 89.4494 13.7776 89.1638 14.0632C88.8924 14.3346 88.6782 14.6559 88.5211 15.0273C88.364 15.3986 88.2854 15.7985 88.2854 16.227V38.1645H82.1369V16.227C82.1369 15.7985 82.0584 15.3986 81.9012 15.0273C81.7441 14.6559 81.5228 14.3346 81.2371 14.0632C80.9658 13.7776 80.6444 13.5562 80.2731 13.3991C79.9017 13.242 79.5018 13.1635 79.0734 13.1635C78.6449 13.1635 78.245 13.242 77.8737 13.3991C77.5023 13.5562 77.1738 13.7776 76.8882 14.0632C76.6168 14.3346 76.4026 14.6559 76.2455 15.0273C76.0884 15.3986 76.0098 15.7985 76.0098 16.227V38.1645H69.8613V16.227C69.8613 14.9559 70.097 13.7633 70.5683 12.6493C71.0539 11.521 71.7109 10.5427 72.5392 9.71429C73.3819 8.87164 74.3602 8.21466 75.4742 7.74335C76.6025 7.25775 77.8022 7.01495 79.0734 7.01495C80.2159 7.01495 81.3157 7.22205 82.3726 7.63623C83.4294 8.03613 84.3792 8.6217 85.2219 9.39294C86.0645 8.6217 87.0071 8.03613 88.0497 7.63623C89.1066 7.22205 90.2064 7.01495 91.3489 7.01495C92.6201 7.01495 93.8126 7.25775 94.9266 7.74335C96.0549 8.21466 97.0333 8.87164 97.8616 9.71429C98.7043 10.5427 99.3613 11.521 99.8326 12.6493C100.318 13.7633 100.561 14.9559 100.561 16.227V38.1645Z" fill="#1C8CE3"/>
<path d="M140.241 38.1645H134.35V6.09375H140.241V38.1645Z" fill="#1C8CE3"/>
<path d="M150.61 38.1645H144.719V6.09375H150.61V38.1645Z" fill="#1C8CE3"/>
<path d="M130.184 38.3773H128.868L126.205 35.1318C125.604 35.647 124.964 36.1327 124.286 36.589C123.622 37.0306 122.921 37.4206 122.181 37.7591C121.441 38.083 120.677 38.3405 119.891 38.5319C119.12 38.7232 118.333 38.8189 117.532 38.8189C115.789 38.8189 114.147 38.5392 112.605 37.9799C111.078 37.4206 109.791 36.2382 108.634 35.1784C107.493 34.1039 106.566 33.1591 105.345 31.4104C104.029 29.5264 103.371 28.4175 103.371 26.4452C103.371 24.6053 105.473 21.4947 106.003 20.7343C107.177 19.0472 107.319 18.9091 108.58 17.3146C109.737 16.2106 111.078 15.3569 112.605 14.7535C114.147 14.1353 115.789 13.8262 117.532 13.8262C118.333 13.8262 119.128 13.9218 119.914 14.1132C120.7 14.3045 121.464 14.5695 122.204 14.908C122.944 15.2465 123.646 15.644 124.309 16.1002C124.987 16.5565 125.619 17.0496 126.205 17.5795L128.868 14.7755H130.184V38.3773ZM123.823 26.3446C123.823 25.5204 123.653 24.7255 123.314 23.9601C122.99 23.18 122.363 22.579 121.793 21.9903C121.222 21.3868 120.428 20.9011 119.657 20.5478C118.901 20.1798 118.547 20.5478 117.683 20.5478C116.82 20.5478 116.481 20.2682 115.71 20.5478C114.954 20.8275 114.306 21.2592 113.736 21.8038C113.181 22.3484 113.526 23.001 112.582 23.8743C111.637 24.7476 111.48 26.3446 111.762 27.0143C112.044 27.684 111.56 28.5233 112.582 29.5264C113.884 30.8044 113.736 31.2239 113.736 31.2239C114.394 31.8519 114.954 32.2003 115.71 32.48C116.481 32.7596 116.668 32.7694 117.532 32.7694C118.395 32.7694 119.205 32.5928 119.96 32.2395C120.731 31.8716 121.402 31.3932 121.973 30.8044C122.543 30.201 122.99 29.5165 123.314 28.7512C123.653 27.9711 123.823 27.1689 123.823 26.3446Z" fill="#1C8CE3"/>
<path d="M123.856 26.472C123.856 29.9404 120.911 32.752 117.277 32.752C113.644 32.752 110.698 29.9404 110.698 26.472C110.698 23.0036 113.644 20.1919 117.277 20.1919C120.911 20.1919 123.856 23.0036 123.856 26.472Z" fill="#F4F4F9"/>
<path d="M19.8449 23.533C21.5018 23.533 22.8449 22.1899 22.8449 20.533V15.786C22.8449 14.7243 22.6413 13.7255 22.234 12.7898C21.8444 11.836 21.3042 11.0082 20.6136 10.3064C19.9229 9.6046 19.1083 9.05574 18.1697 8.65984C17.2488 8.24595 16.2659 8.039 15.2211 8.039C14.1763 8.039 13.1845 8.24595 12.2459 8.65984C11.3251 9.05574 10.5193 9.6046 9.82863 10.3064C9.13797 11.0082 8.58898 11.836 8.18167 12.7898C7.79207 13.7255 7.59727 14.7243 7.59727 15.786V20.533C7.59727 22.1899 8.94041 23.533 10.5973 23.533H19.8449ZM30.4688 37.3275C30.4688 38.0942 29.6603 38.5915 28.976 38.2457V38.2457C28.6435 38.0777 28.2461 38.1026 27.9372 38.3108L27.6758 38.4868C27.2054 38.8037 26.6005 38.8416 26.0943 38.5858L25.3656 38.2176C25.062 38.0642 24.7035 38.064 24.3997 38.217V38.217C23.6865 38.5762 22.8449 38.0578 22.8449 37.2592V34.2062C22.8449 32.5752 21.5227 31.253 19.8917 31.253H10.5396C8.9146 31.253 7.59727 32.5703 7.59727 34.1953V37.3045C7.59727 38.0801 6.77787 38.5819 6.08704 38.2294V38.2294C5.77444 38.0699 5.40242 38.0791 5.09808 38.2538L4.71256 38.4752C4.14703 38.7999 3.45121 38.7983 2.88727 38.4708L2.5236 38.2596C2.2165 38.0813 1.84005 38.0703 1.52309 38.2304V38.2304C0.82489 38.5832 0 38.0758 0 37.2935V15.786C0 13.6446 0.398458 11.6381 1.19537 9.76656C1.99229 7.87704 0.817577 1.74963 2.18119 0.345989C3.56251 -1.05765 7.42903 2.31648 9.27079 1.50669C11.1303 0.696899 13.1137 0.292003 15.2211 0.292003C17.3285 0.292003 19.3031 0.696899 21.1448 1.50669C23.0043 2.31648 27.2457 -1.05765 28.627 0.345989C30.0083 1.74963 28.4765 7.87704 29.2734 9.76656C30.0703 11.6381 30.4688 13.6446 30.4688 15.786V37.3275Z" fill="#F68300"/>
</svg>
