<svg width="317" height="83" viewBox="0 0 317 83" fill="none" xmlns="http://www.w3.org/2000/svg">
<path d="M86.7359 79.8453H74.4316V31.5747H77.4063L81.9033 36.2621C83.8864 34.4593 85.6843 33.0771 88.1782 32.1156C90.7021 31.124 93.3312 30.6283 96.0655 30.6283C99.0101 30.6283 101.789 31.1991 104.404 32.3409C106.606 33.2777 108.574 34.5238 110.308 36.0792C110.631 36.3698 110.947 36.6711 111.254 36.9832C113.207 38.9363 114.74 41.2349 115.852 43.879C116.993 46.4931 117.564 49.2875 117.564 52.2621V79.8453H105.26V52.2621C105.26 51.0002 105.02 49.8133 104.539 48.7016C104.058 47.5598 103.397 46.5682 102.556 45.7269C101.714 44.8856 100.738 44.2245 99.6261 43.7438C98.5144 43.263 97.3275 43.0227 96.0655 43.0227C94.7735 43.0227 93.5566 43.263 92.4148 43.7438C91.273 44.2245 90.2815 44.8856 89.4401 45.7269C88.5988 46.5682 87.9378 47.5598 87.457 48.7016C86.9763 49.8133 86.7359 51.0002 86.7359 52.2621V79.8453Z" fill="#F68300"/>
<path d="M140.866 18.4592C140.866 19.601 140.64 20.6677 140.19 21.6592C139.769 22.6508 139.183 23.5221 138.432 24.2733C137.681 24.9944 136.794 25.5803 135.773 26.0311C134.781 26.4517 133.714 26.662 132.573 26.662C131.431 26.662 130.349 26.4517 129.328 26.0311C128.336 25.5803 127.465 24.9944 126.714 24.2733C125.992 23.5221 125.406 22.6508 124.956 21.6592C124.535 20.6677 124.325 19.601 124.325 18.4592C124.325 17.3475 124.535 16.2958 124.956 15.3043C125.406 14.2827 125.992 13.4113 126.714 12.6902C127.465 11.939 128.336 11.3531 129.328 10.9324C130.349 10.4817 131.431 10.2563 132.573 10.2563C133.714 10.2563 134.781 10.4817 135.773 10.9324C136.794 11.3531 137.681 11.939 138.432 12.6902C139.183 13.4113 139.769 14.2827 140.19 15.3043C140.64 16.2958 140.866 17.3475 140.866 18.4592ZM138.747 79.8453H126.353V31.5747H138.747V79.8453Z" fill="#F68300"/>
<path d="M211.562 80.291H198.672V34.1387C198.672 33.2373 198.491 32.396 198.131 31.6147C197.8 30.8335 197.334 30.1575 196.734 29.5866C196.163 28.9856 195.487 28.5199 194.705 28.1894C193.924 27.8589 193.083 27.6936 192.181 27.6936C191.28 27.6936 190.439 27.8589 189.657 28.1894C188.876 28.5199 188.185 28.9856 187.584 29.5866C187.013 30.1575 186.563 30.8335 186.232 31.6147C185.902 32.396 185.736 33.2373 185.736 34.1387V80.291H172.801V34.1387C172.801 33.2373 172.636 32.396 172.305 31.6147C171.975 30.8335 171.509 30.1575 170.908 29.5866C170.337 28.9856 169.661 28.5199 168.88 28.1894C168.099 27.8589 167.257 27.6936 166.356 27.6936C165.455 27.6936 164.613 27.8589 163.832 28.1894C163.051 28.5199 162.36 28.9856 161.759 29.5866C161.188 30.1575 160.737 30.8335 160.407 31.6147C160.076 32.396 159.911 33.2373 159.911 34.1387V80.291H146.976V34.1387C146.976 31.4645 147.471 28.9556 148.463 26.6119C149.485 24.2382 150.867 22.18 152.609 20.4372C154.382 18.6645 156.44 17.2823 158.784 16.2907C161.158 15.2691 163.682 14.7583 166.356 14.7583C168.76 14.7583 171.073 15.194 173.297 16.0654C175.52 16.9067 177.518 18.1386 179.291 19.7612C181.064 18.1386 183.047 16.9067 185.241 16.0654C187.464 15.194 189.778 14.7583 192.181 14.7583C194.856 14.7583 197.365 15.2691 199.708 16.2907C202.082 17.2823 204.14 18.6645 205.883 20.4372C207.656 22.18 209.038 24.2382 210.029 26.6119C211.051 28.9556 211.562 31.4645 211.562 34.1387V80.291Z" fill="#1C8CE3"/>
<path d="M295.041 80.291H282.647V12.8203H295.041V80.291Z" fill="#1C8CE3"/>
<path d="M316.856 80.291H304.461V12.8203H316.856V80.291Z" fill="#1C8CE3"/>
<path d="M273.88 80.7393H271.112L265.51 73.9113C264.245 74.9951 262.899 76.017 261.472 76.9769C260.077 77.9059 258.601 78.7265 257.043 79.4387C255.486 80.12 253.881 80.6619 252.226 81.0644C250.604 81.467 248.95 81.6683 247.263 81.6683C243.597 81.6683 240.142 81.0799 236.898 79.9032C233.686 78.7265 230.978 76.2389 228.545 74.0094C226.144 71.7489 224.194 69.7612 221.624 66.0822C218.856 62.1185 217.472 59.7858 217.472 55.6364C217.472 51.7656 221.894 45.2215 223.008 43.6216C225.479 40.0723 225.776 39.7819 228.431 36.4273C230.864 34.1048 233.686 32.3088 236.898 31.0392C240.142 29.7387 243.597 29.0884 247.263 29.0884C248.95 29.0884 250.62 29.2897 252.275 29.6922C253.929 30.0948 255.535 30.6522 257.092 31.3644C258.649 32.0766 260.125 32.9127 261.52 33.8726C262.948 34.8325 264.278 35.8699 265.51 36.9847L271.112 31.0857H273.88V80.7393ZM260.498 55.4248C260.498 53.6907 260.142 52.0185 259.428 50.4083C258.747 48.7671 257.427 47.5027 256.227 46.2641C255.027 44.9945 253.356 43.9726 251.734 43.2294C250.145 42.4553 249.398 43.2294 247.582 43.2294C245.765 43.2294 245.051 42.6411 243.429 43.2294C241.84 43.8178 240.477 44.7261 239.277 45.8718C238.109 47.0176 238.836 48.3904 236.849 50.2277C234.862 52.065 234.532 55.4248 235.125 56.8337C235.717 58.2427 234.7 60.0084 236.849 62.1185C239.588 64.8074 239.277 65.6899 239.277 65.6899C240.661 67.0111 241.84 67.744 243.429 68.3323C245.051 68.9207 245.446 68.9413 247.263 68.9413C249.079 68.9413 250.782 68.5697 252.372 67.8266C253.994 67.0524 255.405 66.046 256.606 64.8074C257.806 63.5378 258.747 62.0979 259.428 60.4877C260.142 58.8465 260.498 57.1589 260.498 55.4248Z" fill="#1C8CE3"/>
<path d="M260.569 55.6925C260.569 62.9894 254.372 68.9046 246.728 68.9046C239.084 68.9046 232.887 62.9894 232.887 55.6925C232.887 48.3957 239.084 42.4805 246.728 42.4805C254.372 42.4805 260.569 48.3957 260.569 55.6925Z" fill="white"/>
<path d="M45.0613 49.5089C46.7182 49.5089 48.0613 48.1657 48.0613 46.5089V33.2107C48.0613 30.977 47.6329 28.8759 46.776 26.9072C45.9563 24.9007 44.82 23.1592 43.367 21.6827C41.9139 20.2062 40.2001 19.0515 38.2255 18.2186C36.2882 17.3479 34.2204 16.9125 32.0223 16.9125C29.8241 16.9125 27.7377 17.3479 25.7631 18.2186C23.8257 19.0515 22.1306 20.2062 20.6775 21.6827C19.2245 23.1592 18.0696 24.9007 17.2127 26.9072C16.393 28.8759 15.9832 30.977 15.9832 33.2107V46.5089C15.9832 48.1657 17.3263 49.5089 18.9832 49.5089H45.0613ZM64.1004 78.5298C64.1004 80.1428 62.3995 81.1891 60.9598 80.4617C60.2603 80.1082 59.4244 80.1606 58.7744 80.5984L58.081 81.0656C57.1801 81.6725 56.0214 81.745 55.0519 81.2552L53.3644 80.4025C52.7256 80.0798 51.9715 80.0793 51.3322 80.4012C49.8318 81.1569 48.0613 80.0662 48.0613 78.3862V68.7503C48.0613 67.0934 46.7182 65.7503 45.0613 65.7503H18.9832C17.3263 65.7503 15.9832 67.0934 15.9832 68.7503V78.4815C15.9832 80.1132 14.2593 81.1689 12.806 80.4273C12.1483 80.0917 11.3656 80.111 10.7254 80.4787L9.4939 81.1858C8.56429 81.7196 7.4205 81.7169 6.49349 81.1785L5.30917 80.4908C4.66309 80.1156 3.87112 80.0926 3.20428 80.4295C1.73541 81.1716 0 80.1041 0 78.4584V33.2107C0 28.7055 0.838279 24.4843 2.51484 20.5469C4.19139 16.5718 1.72002 3.68088 4.5888 0.727895C7.49483 -2.22509 15.6292 4.87343 19.504 3.16978C23.4159 1.46614 27.5887 0.614319 32.0223 0.614319C36.4558 0.614319 40.61 1.46614 44.4847 3.16978C48.3966 4.87343 57.3196 -2.22509 60.2257 0.727895C63.1317 3.68088 59.909 16.5718 61.5856 20.5469C63.2621 24.4843 64.1004 28.7055 64.1004 33.2107V78.5298Z" fill="#F68300"/>
</svg>
