<svg width="255" height="66" viewBox="0 0 255 66" fill="none" xmlns="http://www.w3.org/2000/svg">
<path d="M69.7706 64.2275H59.873V25.3986H62.2659L65.8833 29.1691C67.4785 27.7189 68.9247 26.6071 70.9308 25.8336C72.9611 25.036 75.0759 24.6372 77.2754 24.6372C79.644 24.6372 81.8798 25.0964 83.9825 26.0149C85.7544 26.7684 87.3374 27.7708 88.7317 29.022C88.9922 29.2557 89.246 29.4981 89.4933 29.7491C91.0643 31.3202 92.297 33.1692 93.1913 35.2961C94.1097 37.3989 94.569 39.6467 94.569 42.0396V64.2275H84.6714V42.0396C84.6714 41.0244 84.478 40.0697 84.0913 39.1754C83.7046 38.257 83.1729 37.4594 82.4961 36.7826C81.8193 36.1058 81.0338 35.5741 80.1395 35.1874C79.2452 34.8007 78.2905 34.6073 77.2754 34.6073C76.2361 34.6073 75.2572 34.8007 74.3387 35.1874C73.4203 35.5741 72.6227 36.1058 71.9459 36.7826C71.2692 37.4594 70.7374 38.257 70.3507 39.1754C69.964 40.0697 69.7706 41.0244 69.7706 42.0396V64.2275Z" fill="#F68300"/>
<path d="M113.313 14.8484C113.313 15.7668 113.131 16.6249 112.769 17.4225C112.431 18.2201 111.959 18.921 111.355 19.5253C110.751 20.1053 110.038 20.5767 109.216 20.9392C108.418 21.2776 107.56 21.4468 106.642 21.4468C105.723 21.4468 104.853 21.2776 104.031 20.9392C103.234 20.5767 102.533 20.1053 101.929 19.5253C101.349 18.921 100.877 18.2201 100.515 17.4225C100.176 16.6249 100.007 15.7668 100.007 14.8484C100.007 13.9541 100.176 13.1082 100.515 12.3105C100.877 11.4888 101.349 10.7878 101.929 10.2078C102.533 9.60352 103.234 9.1322 104.031 8.79382C104.853 8.43127 105.723 8.25 106.642 8.25C107.56 8.25 108.418 8.43127 109.216 8.79382C110.038 9.1322 110.751 9.60352 111.355 10.2078C111.959 10.7878 112.431 11.4888 112.769 12.3105C113.131 13.1082 113.313 13.9541 113.313 14.8484ZM111.609 64.2275H101.639V25.3986H111.609V64.2275Z" fill="#F68300"/>
<path d="M89.4933 29.7491C91.0643 31.3202 92.297 33.1692 93.1913 35.2961C94.1097 37.3989 94.569 39.6467 94.569 42.0396V25.3986H92.6958L88.7317 29.022C88.9922 29.2557 89.246 29.4981 89.4933 29.7491Z" fill="#F68300"/>
<path d="M170.181 64.5863H159.812V27.4613C159.812 26.7362 159.667 26.0594 159.377 25.431C159.111 24.8026 158.736 24.2588 158.253 23.7996C157.794 23.3162 157.25 22.9415 156.621 22.6757C155.993 22.4098 155.316 22.2769 154.591 22.2769C153.866 22.2769 153.189 22.4098 152.561 22.6757C151.932 22.9415 151.377 23.3162 150.893 23.7996C150.434 24.2588 150.071 24.8026 149.806 25.431C149.54 26.0594 149.407 26.7362 149.407 27.4613V64.5863H139.002V27.4613C139.002 26.7362 138.869 26.0594 138.603 25.431C138.337 24.8026 137.962 24.2588 137.479 23.7996C137.02 23.3162 136.476 22.9415 135.847 22.6757C135.219 22.4098 134.542 22.2769 133.817 22.2769C133.092 22.2769 132.415 22.4098 131.787 22.6757C131.158 22.9415 130.603 23.3162 130.119 23.7996C129.66 24.2588 129.297 24.8026 129.031 25.431C128.766 26.0594 128.633 26.7362 128.633 27.4613V64.5863H118.228V27.4613C118.228 25.3102 118.626 23.292 119.424 21.4067C120.246 19.4973 121.358 17.8417 122.759 16.4398C124.185 15.0138 125.841 13.902 127.726 13.1044C129.636 12.2826 131.666 11.8717 133.817 11.8717C135.751 11.8717 137.612 12.2222 139.4 12.9231C141.189 13.5999 142.796 14.5908 144.222 15.896C145.648 14.5908 147.244 13.5999 149.008 12.9231C150.797 12.2222 152.658 11.8717 154.591 11.8717C156.742 11.8717 158.761 12.2826 160.646 13.1044C162.555 13.902 164.211 15.0138 165.613 16.4398C167.039 17.8417 168.151 19.4973 168.948 21.4067C169.77 23.292 170.181 25.3102 170.181 27.4613V64.5863Z" fill="#1C8CE3"/>
<path d="M237.332 64.5863H227.362V10.3127H237.332V64.5863Z" fill="#1C8CE3"/>
<path d="M254.879 64.5863H244.909V10.3127H254.879V64.5863Z" fill="#1C8CE3"/>
<path d="M220.31 64.947H218.083L213.577 59.4546C212.559 60.3264 211.476 61.1484 210.328 61.9206C209.206 62.6679 208.019 63.328 206.766 63.9009C205.514 64.4489 204.222 64.8848 202.891 65.2086C201.586 65.5324 200.256 65.6943 198.899 65.6943C195.95 65.6943 193.171 65.221 190.561 64.2745C187.978 63.328 185.799 61.3269 183.842 59.5335C181.911 57.7151 180.342 56.1162 178.275 53.1568C176.048 49.9685 174.935 48.092 174.935 44.7542C174.935 41.6406 178.492 36.3765 179.388 35.0895C181.376 32.2344 181.615 32.0008 183.75 29.3023C185.707 27.4342 187.978 25.9895 190.561 24.9682C193.171 23.922 195.95 23.3989 198.899 23.3989C200.256 23.3989 201.599 23.5608 202.93 23.8847C204.261 24.2085 205.553 24.6568 206.805 25.2297C208.058 25.8026 209.245 26.4752 210.367 27.2474C211.516 28.0195 212.585 28.854 213.577 29.7507L218.083 25.0056H220.31V64.947ZM209.545 44.584C209.545 43.1891 209.258 41.844 208.684 40.5487C208.136 39.2286 207.075 38.2114 206.109 37.2151C205.144 36.1938 203.8 35.3718 202.495 34.774C201.217 34.1513 200.616 34.774 199.155 34.774C197.694 34.774 197.12 34.3007 195.815 34.774C194.536 35.2473 193.44 35.9779 192.475 36.8996C191.535 37.8212 192.12 38.9255 190.522 40.4034C188.924 41.8814 188.658 44.584 189.135 45.7173C189.611 46.8507 188.793 48.271 190.522 49.9685C192.725 52.1314 192.475 52.8413 192.475 52.8413C193.588 53.9041 194.536 54.4936 195.815 54.9669C197.12 55.4401 197.437 55.4567 198.899 55.4567C200.36 55.4567 201.73 55.1578 203.009 54.56C204.313 53.9373 205.448 53.1277 206.414 52.1314C207.379 51.1101 208.136 49.9519 208.684 48.6566C209.258 47.3364 209.545 45.9789 209.545 44.584Z" fill="#1C8CE3"/>
<path d="M209.603 44.7992C209.603 50.6688 204.618 55.427 198.469 55.427C192.32 55.427 187.335 50.6688 187.335 44.7992C187.335 38.9296 192.32 34.1714 198.469 34.1714C204.618 34.1714 209.603 38.9296 209.603 44.7992Z" fill="white"/>
<path d="M35.6606 39.8251C37.3175 39.8251 38.6606 38.4819 38.6606 36.8251V26.7148C38.6606 24.918 38.316 23.2278 37.6267 21.6442C36.9674 20.0302 36.0533 18.6293 34.8845 17.4416C33.7157 16.2539 32.3371 15.3251 30.7487 14.6551C29.1903 13.9547 27.527 13.6045 25.7588 13.6045C23.9906 13.6045 22.3123 13.9547 20.7239 14.6551C19.1655 15.3251 17.8019 16.2539 16.6331 17.4416C15.4643 18.6293 14.5352 20.0302 13.8459 21.6442C13.1866 23.2278 12.8569 24.918 12.8569 26.7148V36.8251C12.8569 38.4819 14.2001 39.8251 15.8569 39.8251H35.6606ZM51.5625 63.1696C51.5625 64.4671 50.1943 65.3087 49.0362 64.7236C48.4736 64.4393 47.8011 64.4813 47.2783 64.8336L46.8359 65.1316C46.0399 65.6678 45.0163 65.7319 44.1596 65.2991L42.9265 64.676C42.4126 64.4164 41.806 64.416 41.2918 64.6749C40.0848 65.2828 38.6606 64.4055 38.6606 63.0541V55.8897C38.6606 54.2328 37.3175 52.8897 35.6606 52.8897H15.8569C14.2001 52.8897 12.8569 54.2328 12.8569 55.8897V63.1307C12.8569 64.4432 11.4702 65.2924 10.3011 64.6959C9.77213 64.4259 9.14255 64.4415 8.62752 64.7372L7.93076 65.1373C7.00116 65.6711 5.85736 65.6684 4.93035 65.1301L4.27071 64.747C3.751 64.4452 3.11393 64.4266 2.57753 64.6977C1.39597 65.2947 0 64.436 0 63.1121V26.7148C0 23.0908 0.674314 19.6952 2.02294 16.528C3.37157 13.3304 1.38359 2.96091 3.69124 0.585521C6.02886 -1.78987 12.5722 3.9202 15.689 2.54978C18.8358 1.17937 22.1924 0.49416 25.7588 0.49416C29.3251 0.49416 32.6667 1.17937 35.7836 2.54978C38.9304 3.9202 46.1081 -1.78987 48.4457 0.585521C50.7833 2.96091 48.1909 13.3304 49.5396 16.528C50.8882 19.6952 51.5625 23.0908 51.5625 26.7148V63.1696Z" fill="#F68300"/>
</svg>
