<svg width="168" height="36" viewBox="0 0 168 36" fill="none" xmlns="http://www.w3.org/2000/svg">
<path d="M3.48318 34.1483H0V0.288576L0.288263 0H1.58545C2.38618 0 2.89865 0.208416 3.12285 0.625248C3.36307 1.02605 3.48318 1.62725 3.48318 2.42886V34.1483ZM18.4729 23.2545C18.4729 26.1723 17.9844 28.5451 17.0075 30.3727C16.0306 32.2004 14.7655 33.5471 13.2121 34.4128C11.6747 35.2625 10.0572 35.6874 8.35963 35.6874C6.93433 35.6874 5.52505 35.5591 4.13177 35.3026C2.7385 35.0301 1.36124 34.6453 0 34.1483L1.82567 31.2625C2.86662 31.8557 3.89155 32.2886 4.90048 32.5611C5.9094 32.8176 7.05444 32.9459 8.33561 32.9459C9.50468 32.9459 10.5857 32.6012 11.5786 31.9118C12.5715 31.2224 13.3642 30.1643 13.9567 28.7375C14.5653 27.2946 14.8696 25.4749 14.8696 23.2786C14.8696 20.1523 14.3491 17.9078 13.3082 16.5451C12.2832 15.1663 11.0981 14.477 9.75291 14.477C8.29558 14.477 6.91031 14.9419 5.59711 15.8717C4.29993 16.8016 3.29901 17.9078 2.59437 19.1904L2.04187 16.016C2.44223 15.4068 3.02676 14.7415 3.79547 14.02C4.58018 13.2986 5.51704 12.6814 6.60603 12.1683C7.71104 11.6393 8.93616 11.3747 10.2814 11.3747C12.091 11.3747 13.5964 11.8798 14.7975 12.8898C16.0146 13.8998 16.9275 15.3026 17.536 17.0982C18.1606 18.8778 18.4729 20.9299 18.4729 23.2545Z" fill="black"/>
<path d="M29.0635 35.3507C28.8393 35.3988 28.5751 35.4309 28.2708 35.4469C27.9665 35.479 27.6462 35.495 27.3099 35.495C26.9576 35.495 26.6293 35.479 26.325 35.4469C26.0208 35.4309 25.7565 35.3988 25.5323 35.3507V16.7856C25.5323 15.9038 25.3882 15.2946 25.0999 14.9579C24.8117 14.6212 24.2912 14.4529 23.5385 14.4529H23.0821C22.986 13.988 22.9379 13.5471 22.9379 13.1303C22.9379 12.9058 22.946 12.6974 22.962 12.505C22.994 12.2966 23.034 12.0641 23.0821 11.8076C23.6266 11.7275 24.099 11.6794 24.4994 11.6633C24.9158 11.6313 25.2521 11.6152 25.5083 11.6152H25.9167C26.9096 11.6152 27.6783 11.9198 28.2228 12.5291C28.7833 13.1383 29.0635 13.98 29.0635 15.0541V35.3507Z" fill="black"/>
<path d="M55.696 23.5431C55.696 25.9319 55.3196 28.0641 54.567 29.9399C53.8143 31.7996 52.6932 33.2665 51.2039 34.3407C49.7305 35.3988 47.8889 35.9279 45.6788 35.9279C43.4848 35.9279 41.6432 35.3908 40.1538 34.3166C38.6804 33.2265 37.5754 31.7515 36.8388 29.8918C36.1021 28.016 35.7338 25.8998 35.7338 23.5431C35.7338 21.1703 36.1101 19.0541 36.8628 17.1944C37.6155 15.3347 38.7285 13.8677 40.2018 12.7936C41.6752 11.7194 43.5008 11.1824 45.6788 11.1824C47.9049 11.1824 49.7546 11.7194 51.2279 12.7936C52.7173 13.8677 53.8303 15.3347 54.567 17.1944C55.3196 19.0541 55.696 21.1703 55.696 23.5431ZM39.4091 23.5431C39.4091 25.1303 39.6013 26.6613 39.9856 28.1363C40.386 29.5952 41.0426 30.7976 41.9554 31.7435C42.8843 32.6733 44.1414 33.1383 45.7269 33.1383C47.3123 33.1383 48.5615 32.6733 49.4743 31.7435C50.3871 30.7976 51.0357 29.5952 51.4201 28.1363C51.8044 26.6613 51.9966 25.1303 51.9966 23.5431C51.9966 21.9719 51.8044 20.4489 51.4201 18.9739C51.0357 17.499 50.3871 16.2886 49.4743 15.3427C48.5615 14.3968 47.3123 13.9238 45.7269 13.9238C44.1414 13.9238 42.8843 14.3968 41.9554 15.3427C41.0426 16.2886 40.386 17.499 39.9856 18.9739C39.6013 20.4489 39.4091 21.9719 39.4091 23.5431Z" fill="black"/>
<path d="M64.0823 11.3267C65.1873 11.3267 65.98 11.6794 66.4604 12.3848C66.9409 13.0741 67.1811 14.0281 67.1811 15.2465V35.3507C66.8128 35.4148 66.3884 35.4629 65.9079 35.495C65.4275 35.5431 64.9471 35.5671 64.4666 35.5671C63.9862 35.5671 63.5057 35.5431 63.0253 35.495C62.5449 35.4629 62.1125 35.4148 61.7281 35.3507V11.6633L62.0404 11.3267H64.0823ZM74.7 20.3928C74.7 18.7896 74.4597 17.6673 73.9793 17.0261C73.5149 16.3687 72.8503 16.0401 71.9855 16.0401C71.2168 16.0561 70.392 16.3206 69.5112 16.8337C68.6304 17.3307 67.8137 17.988 67.061 18.8056C66.3243 19.6232 65.7558 20.521 65.3554 21.499V16.3287C66.0601 15.3667 66.8608 14.493 67.7576 13.7074C68.6705 12.9218 69.6393 12.2966 70.6643 11.8317C71.7052 11.3667 72.7702 11.1343 73.8592 11.1343C75.2525 11.1343 76.4215 11.4629 77.3664 12.1202C78.3113 12.7776 79.0159 13.6753 79.4803 14.8136C79.9448 15.9359 80.177 17.2024 80.177 18.6132V35.3507C79.7926 35.4148 79.3602 35.4629 78.8798 35.495C78.3993 35.5431 77.9269 35.5671 77.4625 35.5671C76.982 35.5671 76.5016 35.5431 76.0212 35.495C75.5407 35.4629 75.1003 35.4148 74.7 35.3507V20.3928ZM87.6958 20.3447C87.6958 18.7415 87.4476 17.6273 86.9512 17.002C86.4707 16.3607 85.8061 16.0401 84.9573 16.0401C84.2207 16.0401 83.4199 16.2886 82.5551 16.7856C81.6903 17.2826 80.8736 17.9559 80.1049 18.8056C79.3362 19.6393 78.7036 20.5852 78.2072 21.6433V15.8477C78.9759 14.982 79.8327 14.1964 80.7775 13.491C81.7224 12.7695 82.7233 12.2004 83.7803 11.7836C84.8372 11.3507 85.9022 11.1343 86.9752 11.1343C88.3684 11.1343 89.5215 11.4709 90.4343 12.1443C91.3632 12.8016 92.0518 13.6994 92.5002 14.8377C92.9486 15.976 93.1728 17.2585 93.1728 18.6854V30.0842C93.1728 30.9339 93.2289 31.7435 93.341 32.513C93.4691 33.2826 93.7013 33.9479 94.0376 34.509C93.6373 34.8457 93.1328 35.1263 92.5242 35.3507C91.9317 35.5752 91.2991 35.6874 90.6265 35.6874C89.5535 35.6874 88.7928 35.3988 88.3444 34.8216C87.912 34.2285 87.6958 33.3627 87.6958 32.2244V20.3447Z" fill="black"/>
<path d="M119.612 23.4469C119.612 25.9158 119.211 28.0962 118.411 29.988C117.61 31.8798 116.425 33.3547 114.855 34.4128C113.302 35.4709 111.372 36 109.066 36C106.76 36 104.822 35.4629 103.253 34.3888C101.699 33.3146 100.53 31.8397 99.7455 29.9639C98.9607 28.0721 98.5684 25.8998 98.5684 23.4469C98.5684 20.978 98.9607 18.8056 99.7455 16.9299C100.546 15.0381 101.723 13.5631 103.277 12.505C104.846 11.4469 106.776 10.9178 109.066 10.9178C111.388 10.9178 113.326 11.4549 114.879 12.5291C116.449 13.5872 117.626 15.0541 118.411 16.9299C119.211 18.8056 119.612 20.978 119.612 23.4469ZM104.19 23.4469C104.19 24.9058 104.326 26.2766 104.598 27.5591C104.87 28.8257 105.359 29.8597 106.063 30.6613C106.784 31.4469 107.793 31.8397 109.09 31.8397C110.387 31.8397 111.388 31.4469 112.093 30.6613C112.797 29.8597 113.286 28.8257 113.558 27.5591C113.83 26.2766 113.966 24.9058 113.966 23.4469C113.966 21.988 113.83 20.6252 113.558 19.3587C113.286 18.0762 112.797 17.0341 112.093 16.2325C111.388 15.4309 110.387 15.0301 109.09 15.0301C107.793 15.0301 106.784 15.4309 106.063 16.2325C105.359 17.0341 104.87 18.0762 104.598 19.3587C104.326 20.6252 104.19 21.988 104.19 23.4469Z" fill="black"/>
<path d="M137.999 11.5431C138.351 11.4629 138.696 11.4148 139.032 11.3988C139.384 11.3667 139.72 11.3507 140.041 11.3507C140.537 11.3507 141.018 11.3828 141.482 11.4469C141.963 11.511 142.411 11.6152 142.827 11.7595L142.971 12C142.443 13.8277 141.85 15.8156 141.194 17.9639C140.537 20.1122 139.873 22.2685 139.2 24.4329C138.527 26.5812 137.887 28.6092 137.278 30.517C136.686 32.4088 136.165 34.02 135.717 35.3507C135.108 35.4469 134.452 35.511 133.747 35.5431C133.058 35.5912 132.386 35.6152 131.729 35.6152C130.656 35.6152 129.831 35.4389 129.255 35.0862C128.678 34.7174 128.198 33.9158 127.814 32.6814L121.328 11.976C121.904 11.7194 122.457 11.5271 122.985 11.3988C123.514 11.2545 124.002 11.1824 124.451 11.1824C125.251 11.1824 125.892 11.3587 126.372 11.7114C126.869 12.0641 127.237 12.6894 127.477 13.5872L130.48 23.8317C130.72 24.5852 130.944 25.3948 131.153 26.2605C131.377 27.1263 131.577 27.9439 131.753 28.7134C131.929 29.483 132.065 30.1162 132.162 30.6132C132.21 30.7896 132.258 30.9018 132.306 30.9499C132.37 30.982 132.474 30.998 132.618 30.998L137.999 11.5431Z" fill="black"/>
<g clip-path="url(#clip0_493_200)">
<path d="M156.437 11.3674C154.697 11.199 152.942 11.426 151.298 12.0321C149.655 12.6383 148.162 13.6085 146.929 14.8733C145.276 16.5731 144.154 18.736 143.706 21.0878C143.257 23.4397 143.503 25.8746 144.41 28.084C145.321 30.292 146.853 32.174 148.811 33.4915C150.77 34.809 153.068 35.5026 155.413 35.4845C155.711 35.4879 156.007 35.4305 156.283 35.3157C156.559 35.201 156.81 35.0311 157.021 34.816C157.232 34.6009 157.399 34.345 157.512 34.0632C157.626 33.7814 157.683 33.4793 157.68 33.1747C157.678 32.8701 157.616 32.5691 157.498 32.2892C157.381 32.0093 157.21 31.7562 156.995 31.5446C156.78 31.3331 156.527 31.1674 156.249 31.0572C155.971 30.9471 155.674 30.8946 155.376 30.903C153.919 30.9175 152.491 30.4881 151.274 29.6698C150.057 28.8515 149.106 27.6812 148.543 26.3084C147.977 24.937 147.823 23.4242 148.102 21.9632C148.38 20.5021 149.079 19.159 150.108 18.1052C150.997 17.1885 152.104 16.5223 153.32 16.1713C154.536 15.8202 155.82 15.7962 157.047 16.1017C158.275 16.4071 159.405 17.0316 160.326 17.9145C161.248 18.7974 161.931 19.9087 162.309 21.1407H155.364C154.77 21.1407 154.199 21.3821 153.779 21.8118C153.358 22.2415 153.122 22.8243 153.122 23.432C153.122 24.0397 153.358 24.6225 153.779 25.0522C154.199 25.4818 154.77 25.7232 155.364 25.7232H164.9C165.494 25.7235 166.063 25.4833 166.484 25.0554C166.904 24.6274 167.142 24.0465 167.144 23.4401C167.15 21.0439 166.46 18.6999 165.161 16.705C163.862 14.7101 162.012 13.1542 159.846 12.2346C158.759 11.7735 157.609 11.4816 156.437 11.3684V11.3674Z" fill="black"/>
</g>
<path d="M26.7444 10.9675C26.7441 11.0142 26.7537 11.0601 26.7734 11.1036C26.776 11.1091 26.7812 11.1128 26.7838 11.118C26.8017 11.1523 26.8221 11.1852 26.8525 11.2133C26.8808 11.2393 26.9142 11.2561 26.948 11.2719C26.9565 11.276 26.9628 11.2828 26.9717 11.2866C27.0174 11.3041 27.0661 11.3137 27.1151 11.3137L27.1181 11.3133L28.9556 11.313L29.0339 11.314C29.3593 11.314 31.0401 11.2599 32.2047 10.1846C33.4941 8.9952 33.4306 7.2591 33.4276 7.20014V5.48633C33.4276 5.29714 33.2616 5.14358 33.0562 5.14358L31.215 5.14394L31.1366 5.14258C30.8113 5.14258 29.1313 5.19709 27.9659 6.27234C26.6773 7.46175 26.7415 9.19784 26.7445 9.25681L26.7444 10.9675ZM28.491 6.75696C29.4491 5.87299 30.8628 5.82808 31.1365 5.82808L32.6848 5.82913L32.6851 7.21355C32.6855 7.22862 32.7341 8.72688 31.6795 9.69998C30.7221 10.584 29.3076 10.6285 29.0339 10.6285L28.0119 10.6282L31.8347 7.09976C31.9799 6.96572 31.9799 6.74909 31.8347 6.61509C31.6895 6.48109 31.4544 6.48105 31.3096 6.61509L27.4871 10.1432L27.4867 9.24207C27.4861 9.22729 27.4307 7.73589 28.491 6.75696Z" fill="#308255"/>
<path d="M25.7228 10.3577C25.7831 10.3637 25.8435 10.3577 25.902 10.3393C25.9094 10.3369 25.9148 10.3311 25.9217 10.3286C25.968 10.3114 26.0128 10.2909 26.0525 10.2579C26.0893 10.2273 26.1147 10.1894 26.1388 10.1509C26.145 10.1412 26.1546 10.1345 26.1605 10.1243C26.1881 10.0718 26.2058 10.0149 26.2112 9.95639L26.2111 9.95281L26.4125 7.75889L26.4224 7.66544C26.4582 7.27705 26.5728 5.26383 25.31 3.74538C23.9132 2.06438 21.6607 1.93358 21.5841 1.93014L19.3674 1.72618C19.1227 1.70366 18.9059 1.88356 18.8833 2.12876L18.6815 4.32709L18.6711 4.4205C18.6354 4.8089 18.5213 6.82127 19.7841 8.3406C21.1809 10.0207 23.4335 10.1506 23.5101 10.1541L25.7228 10.3577ZM20.4686 7.77139C19.4305 6.52225 19.5277 4.82896 19.5578 4.50219L19.7292 2.65382L21.5199 2.81816C21.5394 2.81949 23.4827 2.93976 24.6255 4.31475C25.6637 5.56301 25.5659 7.25714 25.5358 7.58397L25.4231 8.80413L21.2793 3.82001C21.1219 3.63067 20.8417 3.60489 20.6524 3.76233C20.4631 3.91977 20.4373 4.20039 20.5947 4.38926L22.6664 6.8811L24.7382 9.37294L23.5726 9.26616C23.5534 9.26518 21.6183 9.15373 20.4686 7.77139Z" fill="#30B255"/>
<path d="M19.9329 2.8707C19.9329 3.20448 19.9195 3.5363 19.9676 3.86716C19.9921 4.03595 20.0024 4.21105 20.032 4.37779C20.0564 4.51507 20.078 4.65137 20.1014 4.78927C20.1366 4.99634 20.2052 5.18841 20.2675 5.38913C20.328 5.58399 20.4313 5.76271 20.5129 5.94933C20.5952 6.13745 20.6913 6.31963 20.7806 6.50458C20.8237 6.59391 20.8634 6.6886 20.9169 6.77228C20.9632 6.84464 21.0238 6.90599 21.0706 6.97802C21.1765 7.14085 21.2972 7.33344 21.4499 7.45642C21.5638 7.54823 21.6878 7.62627 21.7969 7.72413C21.927 7.8408 22.136 7.89837 22.2976 7.95714C22.4727 8.02082 22.6296 8.124 22.8082 8.18023C22.9012 8.20948 22.996 8.2158 23.0908 8.23476C23.1478 8.24615 23.1982 8.26946 23.2569 8.26946C23.3463 8.26946 23.3684 8.27092 23.3684 8.17279C23.3684 7.89247 23.3726 7.65618 23.2445 7.39693C23.1172 7.13944 22.9115 6.95075 22.6793 6.78716C22.3571 6.56013 22.0241 6.36244 21.6333 6.28644C21.5194 6.2643 21.3662 6.2381 21.2491 6.26414C21.1713 6.28143 21.1457 6.4238 21.1152 6.48475C20.956 6.80324 21.065 7.26049 21.2912 7.52087C21.4923 7.75227 21.7591 7.90104 22.0299 8.03646C22.2927 8.16784 22.556 8.25387 22.8429 8.31408C23.0304 8.35342 23.3794 8.42281 23.4924 8.20501C23.6566 7.88837 23.4639 7.46377 23.2941 7.19615C23.024 6.77057 22.595 6.43441 22.1662 6.17986C21.9781 6.06815 21.7775 5.98769 21.5738 5.90967C21.5083 5.88458 21.3776 5.80901 21.3011 5.82291C21.229 5.83603 21.2714 6.31674 21.2739 6.37072C21.2889 6.69371 21.4417 6.97994 21.6184 7.24325C21.7298 7.40913 21.8677 7.53217 22.0398 7.6349C22.071 7.65349 22.3323 7.79462 22.3769 7.79354C22.5764 7.78871 22.5898 7.49018 22.6 7.38206C22.6326 7.03729 22.5922 6.44864 22.5554 6.11293C22.5337 5.915 22.4887 5.61223 22.4166 5.404C22.3395 5.18139 22.3049 5.4031 22.2976 5.49572C22.2661 5.89718 22.2433 6.29921 22.2084 6.7004C22.1987 6.81203 22.1793 6.92148 22.1662 7.03255C22.1654 7.03988 22.1763 7.14499 22.1985 7.08957C22.2338 7.00129 22.2084 6.85762 22.2084 6.76733C22.2084 6.52496 22.2194 6.27867 22.1786 6.03857C22.1226 5.70863 22.0034 5.37505 21.8762 5.06689C21.7386 4.73346 21.5585 4.42586 21.3259 4.14974C21.2677 4.08064 21.0867 3.8275 20.969 3.8275C20.891 3.8275 20.8758 4.09414 20.8698 4.12991C20.7766 4.68945 20.7088 5.24497 20.6938 5.813C20.6862 6.10224 20.7002 6.3961 20.7385 6.68305C20.7395 6.69074 20.7677 6.79677 20.7806 6.75493C20.8225 6.61891 20.8293 6.45625 20.8475 6.31619C20.9259 5.71505 21.0136 5.0692 20.9095 4.46703C20.8827 4.31215 20.8414 4.16169 20.7831 4.01589C20.7419 3.913 20.7269 4.0568 20.7162 4.09521C20.6744 4.24453 20.6096 4.38573 20.5575 4.53147C20.5 4.6926 20.4583 4.85731 20.4137 5.02227C20.3317 5.32605 20.2539 5.63712 20.2105 5.94933C20.2001 6.02445 20.1874 6.24513 20.1659 6.17242C20.1225 6.02598 20.1584 5.832 20.156 5.68162C20.153 5.50056 20.1345 5.32606 20.0865 5.15117C20.045 4.99958 20.0147 5.16169 19.9973 5.23297C19.9382 5.47494 19.8906 5.72451 19.8461 5.96916C19.8281 6.06818 19.8364 6.19978 19.8535 6.29636C19.8799 6.44471 19.9094 6.59561 19.9428 6.74254C19.9736 6.87796 20.06 6.99479 20.1336 7.1094C20.1978 7.20918 20.292 7.2818 20.3592 7.37958C20.4432 7.50173 20.5642 7.63157 20.6914 7.70926C20.8197 7.7877 20.9779 7.84278 21.1202 7.89021C21.4136 7.988 21.6929 8.09772 21.9754 8.22484C22.4007 8.41623 22.8279 8.58179 23.3015 8.58179C23.4158 8.58179 23.5214 8.65463 23.6361 8.67102C23.8034 8.69492 23.9715 8.73498 24.1369 8.77017C24.3239 8.80998 24.5027 8.87999 24.6871 8.92881C24.7338 8.94117 24.7427 8.94032 24.6871 8.93873C24.5853 8.93582 24.4858 8.91539 24.3847 8.90403C24.092 8.8711 23.797 8.80897 23.5023 8.80488C23.3077 8.80217 23.1117 8.81319 22.9173 8.8024C22.5223 8.78045 22.1587 8.5653 21.7944 8.43058C21.6292 8.36946 21.3152 8.31258 21.2169 8.13561C21.1989 8.10327 21.1839 8.06644 21.1623 8.03646C21.1384 8.00314 21.0681 7.95714 21.0681 7.95714C21.0681 7.95714 21.3045 8.17407 21.4102 8.29425C21.8715 8.81843 22.6613 8.93873 23.3189 8.93873C23.7551 8.93873 24.1914 8.93873 24.6277 8.93873C24.767 8.93873 24.966 8.97618 25.0986 8.92881C25.2111 8.88864 25.1978 8.72779 25.1978 8.63632C25.1978 8.49088 25.2165 8.34612 25.1432 8.21493C25.0781 8.09817 25.0178 7.98176 24.9524 7.86542C24.8891 7.75301 24.8119 7.64507 24.7987 7.51344C24.7832 7.35896 24.7962 7.19755 24.7962 7.04247C24.7962 6.63263 24.7396 6.20664 24.6524 5.80556C24.6203 5.65749 24.5591 5.51524 24.5186 5.3693C24.4788 5.22588 24.3874 5.06682 24.3029 4.94543C24.1923 4.78642 24.036 4.63456 23.8791 4.52156C23.6873 4.3835 23.5038 4.23675 23.304 4.11008C22.9515 3.8867 22.6078 3.69517 22.2183 3.53997C21.9924 3.44993 21.7402 3.34028 21.4945 3.31688C21.3441 3.30255 21.1872 3.21735 21.0384 3.18302C20.8511 3.13979 20.6588 3.04917 20.4658 3.04917C20.3924 3.04917 20.2376 3.01713 20.1783 3.07644C20.077 3.17773 20.1113 3.36791 20.1113 3.49535C20.1113 3.75422 20.1713 3.99616 20.2204 4.24889C20.2614 4.45977 20.2796 4.73203 20.1907 4.93304C20.0677 5.21087 19.7293 5.36329 19.452 5.44862C19.2929 5.49757 19.3111 5.31006 19.3082 5.20074C19.303 5.00442 19.2427 4.83714 19.3751 4.67524C19.4336 4.60374 19.4449 4.51871 19.5115 4.45215C19.6603 4.30336 19.8089 4.2142 19.9973 4.12C20.3168 3.96027 20.6914 3.72024 20.6914 3.31688C20.6914 3.15361 20.6644 2.96314 20.6938 2.80129C20.7253 2.62839 20.9252 2.64761 21.0582 2.64761C21.2435 2.64761 21.4253 2.65375 21.606 2.69966C21.832 2.75705 22.0374 2.865 22.253 2.95002C22.3607 2.9925 22.4466 3.03869 22.5405 3.1037C22.8128 3.29216 23.1291 3.36462 23.4279 3.49535C23.5092 3.5309 23.6067 3.57499 23.6709 3.63912C23.721 3.68931 23.7464 3.7617 23.7898 3.81759C23.961 4.0377 24.1213 4.26638 24.3476 4.43232C24.5101 4.55154 24.6341 4.74012 24.7516 4.90329C24.9102 5.12357 25.0469 5.36483 25.1953 5.59239C25.2676 5.70329 25.3499 5.82295 25.3936 5.94933C25.4343 6.06678 25.4307 6.20385 25.4432 6.3261C25.4623 6.51386 25.4655 6.69801 25.4655 6.88631C25.4655 7.06011 25.4205 7.17751 25.3415 7.33249C25.2438 7.52439 25.1344 7.59962 24.9301 7.66464C24.7747 7.71408 24.5704 7.75277 24.412 7.70678C24.1225 7.62273 23.7135 7.43206 23.5667 7.15401C23.4262 6.8877 23.4577 6.54122 23.4577 6.25174C23.4577 6.06831 23.4577 5.88488 23.4577 5.70145C23.4577 5.5931 23.4704 5.47462 23.4378 5.3693C23.2724 4.83403 22.7059 4.53499 22.1985 4.41249C22.1665 4.40479 22.09 4.37249 22.0547 4.39266C22.0125 4.41679 21.9949 4.55615 21.9828 4.59344C21.9039 4.8367 21.8303 5.1101 21.9952 5.3346C22.1176 5.50128 22.2893 5.62531 22.4612 5.73616C22.7813 5.94251 23.126 6.1051 23.4676 6.27157C23.8032 6.43512 24.144 6.59298 24.469 6.77724C24.523 6.80784 24.7466 6.90747 24.7466 7.00033C24.7466 7.09051 24.6775 7.22789 24.6128 7.28539C24.3964 7.47778 24.1277 7.1469 24.003 6.99537C23.7907 6.73723 23.5924 6.45093 23.4552 6.14515C23.374 5.96412 23.3326 5.76605 23.2817 5.57504C23.2519 5.46329 23.2346 5.35835 23.2346 5.24288C23.2346 5.21685 23.2205 5.13283 23.2445 5.11151C23.2891 5.07186 23.557 5.355 23.5816 5.37921C23.6826 5.47861 23.7868 5.57864 23.884 5.68162C23.9564 5.7582 23.9741 5.83369 24.0154 5.92454C24.0426 5.98432 24.0377 6.04078 24.0377 6.10549C24.0377 6.19168 24.1033 6.17242 24.1716 6.17242" stroke="#30B255" stroke-width="2" stroke-linecap="round"/>
<path d="M29.4811 6.3504C29.4376 6.39877 29.4047 6.45479 29.3622 6.50408C29.2582 6.62454 29.1323 6.71894 29.0325 6.84367C28.9386 6.96107 28.8173 7.04827 28.7226 7.16343C28.6584 7.24152 28.6114 7.33131 28.5665 7.42123C28.486 7.58211 28.4254 7.74243 28.3657 7.91202C28.3213 8.03825 28.2484 8.14606 28.1922 8.26649C28.1469 8.36358 28.1111 8.47095 28.0732 8.57138C28.0457 8.64411 28.0369 8.72168 28.0088 8.79447C27.9746 8.88285 27.9273 8.96449 27.8972 9.05474C27.8171 9.29493 27.7685 9.54471 27.6766 9.78102C27.6704 9.79685 27.5976 9.99768 27.5725 9.94462C27.5249 9.84415 27.5252 9.68775 27.5204 9.58024C27.5113 9.37504 27.518 9.16838 27.518 8.96302C27.518 8.52774 27.5538 8.11725 27.6766 7.69637C27.7299 7.51347 27.793 7.27486 27.9741 7.17335C28.1578 7.07036 28.4245 7.06907 28.6284 7.04445C28.8082 7.02276 28.9893 7.01815 29.1688 6.99488C29.3407 6.9726 29.5106 6.93513 29.6844 6.93043C29.7584 6.92843 29.7069 6.95433 29.677 7.00727C29.5855 7.16916 29.4827 7.32623 29.3721 7.47576C29.031 7.93661 28.6002 8.32108 28.2467 8.76968C28.2219 8.80122 28.131 8.89875 28.1178 8.93823C28.1173 8.93982 28.1618 8.97876 28.1674 8.98037C28.2016 8.99014 28.2206 9.00611 28.2517 9.01755C28.33 9.04641 28.4403 8.96784 28.5045 8.93576C28.8925 8.74178 29.1959 8.46501 29.501 8.1599C29.7555 7.90541 29.9642 7.59711 30.2397 7.36669C30.4913 7.15621 30.7953 7.04705 31.0775 6.88581C31.174 6.83065 31.2629 6.76245 31.365 6.71726C31.4806 6.6661 31.5996 6.62713 31.7145 6.57349C31.9042 6.48495 32.1048 6.42174 32.2921 6.32809C32.3736 6.28732 32.5068 6.26353 32.5499 6.17193C32.5821 6.10336 32.3945 6.12731 32.3615 6.12731C32.0342 6.12731 31.701 6.10927 31.3749 6.13722C31.0458 6.16543 30.6918 6.27934 30.4032 6.43963C30.211 6.54644 30.0612 6.70736 29.9075 6.86102C29.7658 7.00269 29.6156 7.1287 29.5704 7.33199C29.5409 7.46477 29.5156 7.58588 29.5258 7.72364C29.5322 7.80994 29.6436 7.82861 29.7117 7.84262C29.8673 7.87465 30.0366 7.88909 30.195 7.90211C30.4812 7.92563 30.6614 7.72007 30.6834 7.44601C30.6927 7.32962 30.6511 7.2482 30.6065 7.1436C30.5533 7.01883 30.4993 6.89652 30.4404 6.77427C30.3631 6.61364 30.2973 6.43963 30.0984 6.43963C29.9873 6.43963 29.8683 6.42765 29.7588 6.44955C29.739 6.45351 29.6128 6.52488 29.6447 6.47929C29.6869 6.41911 29.7608 6.38236 29.8232 6.34792C29.9764 6.26338 30.144 6.20082 30.319 6.18184C30.7098 6.13946 31.0848 6.36738 31.3997 6.57349C31.4609 6.61355 31.5197 6.66957 31.5881 6.69742C31.6199 6.71038 31.6634 6.74252 31.6947 6.74948C31.7645 6.76499 31.8369 6.72945 31.9004 6.70734C31.9996 6.67284 32.1151 6.65155 32.2202 6.64537C32.3793 6.63601 32.3367 6.9171 32.3367 7.00975C32.3367 7.08838 32.3447 7.17235 32.3317 7.25019C32.3125 7.3655 32.255 7.47229 32.2475 7.58978C32.2272 7.90431 32.1058 8.17372 31.9128 8.42761C31.7989 8.57749 31.6995 8.74093 31.5881 8.89362C31.4769 9.04596 31.3616 9.16959 31.2312 9.30509C31.1562 9.38289 31.0993 9.47217 31.0155 9.54305C30.8262 9.70323 30.6391 9.81717 30.4156 9.92231C30.1129 10.0648 29.8155 10.2007 29.4811 10.2421C29.164 10.2813 28.8698 10.3987 28.5541 10.4453C28.4808 10.4561 28.1999 10.5733 28.2418 10.4106C28.2713 10.2958 28.366 10.186 28.4376 10.0958C28.5662 9.93392 28.7146 9.78112 28.8763 9.65212C29.0311 9.52863 29.2034 9.43055 29.3671 9.31996C29.701 9.09448 30.0212 8.84745 30.3338 8.59368C30.6321 8.35166 30.9122 8.09161 31.1766 7.81287C31.3406 7.63995 31.4888 7.45109 31.6674 7.29233C31.8369 7.14169 32.037 7.04242 32.2028 6.88581C32.2623 6.82963 32.2504 6.91677 32.24 6.96017C32.1979 7.13566 32.0448 7.28528 31.9351 7.42123C31.6568 7.76616 31.3217 8.07561 30.9982 8.37803C30.7148 8.64287 30.451 8.93789 30.1306 9.15884C29.9363 9.29285 29.7041 9.41914 29.553 9.60502C29.4915 9.68078 29.4273 9.79854 29.5778 9.78349C29.6938 9.7719 29.8016 9.72976 29.9125 9.69674C30.1312 9.63159 30.3549 9.59058 30.5718 9.51827C30.9281 9.3995 31.2736 9.23843 31.5435 8.97294C31.7606 8.75938 31.9947 8.58233 32.2425 8.4053C32.3183 8.35114 32.3622 8.28808 32.4259 8.22435C32.4541 8.19619 32.493 8.1702 32.535 8.18221C32.6414 8.2126 32.4955 8.49822 32.4705 8.53667C32.2969 8.80458 32.111 9.03627 31.8657 9.24064C31.733 9.35125 31.5968 9.44793 31.4443 9.52818C31.3837 9.56009 31.3275 9.59898 31.2659 9.62981C31.2455 9.63999 31.2048 9.65985 31.1841 9.67195C31.1254 9.70615 31.1766 9.68019 31.1766 9.69674" stroke="#308255" stroke-width="2" stroke-linecap="round"/>
<defs>
<clipPath id="clip0_493_200">
<rect width="23.6571" height="24.1714" fill="white" transform="translate(143.486 11.3145)"/>
</clipPath>
</defs>
</svg>
