<svg width="260" height="56" viewBox="0 0 260 56" fill="none" xmlns="http://www.w3.org/2000/svg">
<path d="M5.41828 53.1196H0V0.448896L0.44841 0H2.46625C3.71183 0 4.50901 0.324203 4.85777 0.972608C5.23144 1.59608 5.41828 2.53128 5.41828 3.77822V53.1196ZM28.7356 36.1737C28.7356 40.7125 27.9758 44.4035 26.4562 47.2465C24.9365 50.0895 22.9685 52.1844 20.5521 53.5311C18.1606 54.8528 15.6445 55.5137 13.0039 55.5137C10.7867 55.5137 8.59451 55.3142 6.4272 54.9152C4.25989 54.4912 2.11749 53.8927 0 53.1196L2.83993 48.6306C4.45918 49.5533 6.05353 50.2267 7.62296 50.6506C9.19239 51.0497 10.9736 51.2492 12.9665 51.2492C14.7851 51.2492 16.4666 50.713 18.0111 49.6406C19.5556 48.5682 20.7888 46.9223 21.7105 44.7027C22.6571 42.4583 23.1305 39.6277 23.1305 36.2111C23.1305 31.348 22.3208 27.8566 20.7016 25.7368C19.1072 23.5921 17.2638 22.5197 15.1712 22.5197C12.9042 22.5197 10.7494 23.2429 8.70662 24.6894C6.68878 26.1358 5.1318 27.8566 4.03569 29.8517L3.17623 24.9138C3.79902 23.9662 4.7083 22.9312 5.90406 21.809C7.12473 20.6867 8.58206 19.7266 10.2761 18.9285C11.995 18.1055 13.9007 17.6941 15.9933 17.6941C18.8083 17.6941 21.15 18.4796 23.0184 20.0508C24.9116 21.6219 26.3316 23.8041 27.2782 26.5972C28.2498 29.3654 28.7356 32.5576 28.7356 36.1737Z" fill="black"/>
<path d="M45.2099 54.99C44.8612 55.0648 44.4501 55.1147 43.9768 55.1396C43.5035 55.1895 43.0053 55.2144 42.4821 55.2144C41.9341 55.2144 41.4234 55.1895 40.9501 55.1396C40.4767 55.1147 40.0657 55.0648 39.7169 54.99V26.1109C39.7169 24.7393 39.4927 23.7916 39.0443 23.2679C38.5959 22.7442 37.7863 22.4823 36.6154 22.4823H35.9055C35.756 21.7591 35.6812 21.0733 35.6812 20.4249C35.6812 20.0757 35.6937 19.7515 35.7186 19.4522C35.7684 19.128 35.8307 18.7664 35.9055 18.3674C36.7524 18.2427 37.4873 18.1679 38.1101 18.143C38.7578 18.0931 39.281 18.0681 39.6796 18.0681H40.3148C41.8593 18.0681 43.0551 18.542 43.9021 19.4896C44.774 20.4373 45.2099 21.7466 45.2099 23.4175V54.99Z" fill="black"/>
<path d="M86.6382 36.6226C86.6382 40.3385 86.0528 43.6553 84.8819 46.5732C83.7111 49.466 81.9673 51.7479 79.6505 53.4188C77.3586 55.0648 74.4938 55.8878 71.056 55.8878C67.6431 55.8878 64.7782 55.0523 62.4614 53.3814C60.1696 51.6856 58.4507 49.3912 57.3047 46.4983C56.1588 43.5805 55.5858 40.2886 55.5858 36.6226C55.5858 32.9316 56.1713 29.6397 57.3421 26.7468C58.513 23.8539 60.2443 21.572 62.5362 19.9011C64.8281 18.2302 67.668 17.3948 71.056 17.3948C74.5187 17.3948 77.396 18.2302 79.6878 19.9011C82.0046 21.572 83.736 23.8539 84.8819 26.7468C86.0528 29.6397 86.6382 32.9316 86.6382 36.6226ZM61.3031 36.6226C61.3031 39.0915 61.602 41.4732 62.1999 43.7675C62.8227 46.037 63.844 47.9074 65.264 49.3788C66.7089 50.8252 68.6644 51.5484 71.1307 51.5484C73.5969 51.5484 75.5401 50.8252 76.96 49.3788C78.38 47.9074 79.3889 46.037 79.9868 43.7675C80.5847 41.4732 80.8836 39.0915 80.8836 36.6226C80.8836 34.1786 80.5847 31.8094 79.9868 29.515C79.3889 27.2207 78.38 25.3378 76.96 23.8664C75.5401 22.395 73.5969 21.6593 71.1307 21.6593C68.6644 21.6593 66.7089 22.395 65.264 23.8664C63.844 25.3378 62.8227 27.2207 62.1999 29.515C61.602 31.8094 61.3031 34.1786 61.3031 36.6226Z" fill="black"/>
<path d="M99.6835 17.6192C101.402 17.6192 102.636 18.1679 103.383 19.2652C104.13 20.3376 104.504 21.8214 104.504 23.7168V54.99C103.931 55.0897 103.271 55.1646 102.523 55.2144C101.776 55.2892 101.029 55.3267 100.281 55.3267C99.534 55.3267 98.7867 55.2892 98.0393 55.2144C97.292 55.1646 96.6194 55.0897 96.0215 54.99V18.143L96.5073 17.6192H99.6835ZM116.2 31.7221C116.2 29.2282 115.826 27.4825 115.079 26.485C114.356 25.4625 113.323 24.9512 111.977 24.9512C110.782 24.9762 109.499 25.3877 108.129 26.1857C106.758 26.9588 105.488 27.9813 104.317 29.2532C103.171 30.5251 102.287 31.9216 101.664 33.4429V25.4001C102.76 23.9038 104.006 22.5446 105.401 21.3226C106.821 20.1006 108.328 19.128 109.922 18.4048C111.541 17.6816 113.198 17.32 114.892 17.32C117.059 17.32 118.878 17.8312 120.348 18.8537C121.818 19.8762 122.914 21.2728 123.636 23.0434C124.358 24.7891 124.72 26.7593 124.72 28.9539V54.99C124.122 55.0897 123.449 55.1646 122.702 55.2144C121.955 55.2892 121.22 55.3267 120.497 55.3267C119.75 55.3267 119.002 55.2892 118.255 55.2144C117.508 55.1646 116.823 55.0897 116.2 54.99V31.7221ZM136.416 31.6473C136.416 29.1534 136.03 27.4202 135.257 26.4476C134.51 25.45 133.476 24.9512 132.156 24.9512C131.01 24.9512 129.764 25.3378 128.419 26.1109C127.074 26.884 125.803 27.9314 124.608 29.2532C123.412 30.55 122.428 32.0214 121.656 33.6673V24.652C122.851 23.3053 124.184 22.0833 125.654 20.986C127.124 19.8637 128.681 18.9784 130.325 18.33C131.969 17.6566 133.626 17.32 135.295 17.32C137.462 17.32 139.256 17.8437 140.676 18.8911C142.12 19.9136 143.192 21.3102 143.889 23.0808C144.587 24.8515 144.936 26.8466 144.936 29.0661V46.7976C144.936 48.1194 145.023 49.3788 145.197 50.5758C145.396 51.7729 145.758 52.8078 146.281 53.6807C145.658 54.2044 144.873 54.6408 143.927 54.99C143.005 55.3391 142.021 55.5137 140.975 55.5137C139.305 55.5137 138.122 55.0648 137.425 54.167C136.752 53.2443 136.416 51.8976 136.416 50.1269V31.6473Z" fill="black"/>
<path d="M186.062 36.4729C186.062 40.3135 185.44 43.7052 184.194 46.648C182.949 49.5907 181.105 51.8851 178.664 53.5311C176.247 55.177 173.245 56 169.658 56C166.071 56 163.057 55.1646 160.615 53.4937C158.199 51.8228 156.38 49.5284 155.16 46.6106C153.939 43.6678 153.329 40.2886 153.329 36.4729C153.329 32.6324 153.939 29.2532 155.16 26.3353C156.405 23.3926 158.236 21.0982 160.653 19.4522C163.094 17.8063 166.096 16.9833 169.658 16.9833C173.27 16.9833 176.285 17.8187 178.701 19.4896C181.142 21.1356 182.973 23.4175 184.194 26.3353C185.44 29.2532 186.062 32.6324 186.062 36.4729ZM162.073 36.4729C162.073 38.7424 162.284 40.8746 162.708 42.8697C163.131 44.8399 163.891 46.4485 164.987 47.6954C166.108 48.9174 167.678 49.5284 169.696 49.5284C171.713 49.5284 173.27 48.9174 174.366 47.6954C175.463 46.4485 176.222 44.8399 176.646 42.8697C177.069 40.8746 177.281 38.7424 177.281 36.4729C177.281 34.2035 177.069 32.0837 176.646 30.1136C176.222 28.1185 175.463 26.4974 174.366 25.2505C173.27 24.0036 171.713 23.3801 169.696 23.3801C167.678 23.3801 166.108 24.0036 164.987 25.2505C163.891 26.4974 163.131 28.1185 162.708 30.1136C162.284 32.0837 162.073 34.2035 162.073 36.4729Z" fill="black"/>
<path d="M214.665 17.9559C215.213 17.8312 215.749 17.7564 216.272 17.7315C216.82 17.6816 217.343 17.6566 217.841 17.6566C218.613 17.6566 219.361 17.7065 220.083 17.8063C220.831 17.906 221.528 18.0681 222.176 18.2926L222.4 18.6667C221.578 21.5097 220.656 24.6021 219.635 27.9439C218.613 31.2857 217.58 34.6399 216.533 38.0067C215.487 41.3485 214.491 44.5032 213.544 47.4709C212.622 50.4137 211.813 52.9201 211.115 54.99C210.168 55.1396 209.147 55.2394 208.051 55.2892C206.98 55.3641 205.933 55.4015 204.912 55.4015C203.243 55.4015 201.96 55.1271 201.063 54.5785C200.166 54.0049 199.419 52.758 198.821 50.8377L188.732 18.6293C189.629 18.2302 190.488 17.931 191.31 17.7315C192.132 17.507 192.892 17.3948 193.59 17.3948C194.835 17.3948 195.832 17.6691 196.579 18.2178C197.351 18.7664 197.924 19.739 198.298 21.1356L202.969 37.0715C203.343 38.2436 203.691 39.503 204.015 40.8497C204.364 42.1964 204.675 43.4683 204.949 44.6653C205.223 45.8624 205.435 46.8475 205.585 47.6206C205.659 47.8949 205.734 48.0695 205.809 48.1443C205.908 48.1942 206.07 48.2191 206.295 48.2191L214.665 17.9559Z" fill="black"/>
<g clip-path="url(#clip0_493_200)">
<path d="M243.345 17.6828C240.639 17.4208 237.909 17.7739 235.352 18.7168C232.795 19.6597 230.474 21.1689 228.555 23.1364C225.984 25.7805 224.239 29.145 223.541 32.8034C222.844 36.4619 223.225 40.2496 224.637 43.6863C226.054 47.121 228.437 50.0486 231.484 52.098C234.531 54.1474 238.104 55.2264 241.752 55.1982C242.216 55.2035 242.676 55.1143 243.106 54.9357C243.535 54.7572 243.926 54.4929 244.254 54.1584C244.583 53.8238 244.842 53.4257 245.018 52.9873C245.195 52.5489 245.283 52.0791 245.279 51.6053C245.276 51.1314 245.18 50.6631 244.996 50.2277C244.813 49.7923 244.547 49.3986 244.214 49.0696C243.88 48.7405 243.485 48.4828 243.053 48.3114C242.621 48.14 242.159 48.0584 241.695 48.0714C239.429 48.094 237.208 47.4261 235.315 46.1532C233.422 44.8802 231.943 43.0598 231.066 40.9243C230.185 38.791 229.946 36.4378 230.38 34.1651C230.813 31.8924 231.899 29.8031 233.5 28.1638C234.884 26.7378 236.605 25.7015 238.496 25.1554C240.388 24.6094 242.385 24.5721 244.295 25.0472C246.205 25.5223 247.962 26.4937 249.396 27.8671C250.83 29.2405 251.892 30.9693 252.479 32.8857H241.677C240.752 32.8857 239.865 33.2612 239.21 33.9297C238.556 34.5981 238.189 35.5046 238.189 36.4499C238.189 37.3952 238.556 38.3017 239.21 38.9701C239.865 39.6386 240.752 40.0141 241.677 40.0141H256.511C257.434 40.0145 258.32 39.6409 258.974 38.9751C259.628 38.3094 259.997 37.4058 260 36.4624C260.01 32.7351 258.937 29.0888 256.916 25.9856C254.895 22.8825 252.018 20.4622 248.649 19.0317C246.957 18.3145 245.169 17.8603 243.345 17.6844V17.6828Z" fill="black"/>
</g>
<path d="M41.6016 17.061C41.6011 17.1336 41.616 17.205 41.6467 17.2727C41.6507 17.2813 41.6588 17.2871 41.6629 17.2951C41.6906 17.3484 41.7224 17.3996 41.7698 17.4433C41.8137 17.4838 41.8657 17.51 41.9182 17.5345C41.9315 17.5408 41.9413 17.5515 41.9552 17.5574C42.0263 17.5846 42.1019 17.5995 42.1782 17.5995L42.1828 17.5989L45.0411 17.5984L45.1631 17.6C45.6691 17.6 48.2837 17.5158 50.0953 15.8432C52.101 13.993 52.0022 11.2924 51.9976 11.2006V8.53473C51.9976 8.24044 51.7394 8.00156 51.4199 8.00156L48.5558 8.00212L48.4339 8C47.9279 8 45.3144 8.08479 43.5016 9.75741C41.4971 11.6076 41.5971 14.3082 41.6017 14.3999L41.6016 17.061ZM44.3184 10.5113C45.8088 9.1362 48.008 9.06634 48.4337 9.06634L50.8421 9.06797L50.8427 11.2215C50.8433 11.2449 50.9189 13.5756 49.2783 15.0893C47.7891 16.4644 45.5887 16.5337 45.1629 16.5337L43.5731 16.5332L49.5197 11.0445C49.7456 10.836 49.7456 10.499 49.5197 10.2906C49.2938 10.0821 48.9282 10.0821 48.7029 10.2906L42.7568 15.7787L42.7562 14.377C42.7552 14.354 42.6692 12.034 44.3184 10.5113Z" fill="#308255"/>
<path d="M40.013 16.1119C40.1068 16.1212 40.2008 16.1118 40.2917 16.0832C40.3033 16.0794 40.3117 16.0705 40.3225 16.0666C40.3944 16.0398 40.4642 16.008 40.5259 15.9566C40.5832 15.909 40.6227 15.85 40.6601 15.7902C40.6698 15.7751 40.6847 15.7647 40.6938 15.7488C40.7368 15.6672 40.7644 15.5787 40.7728 15.4876L40.7726 15.482L41.0859 12.0693L41.1014 11.9239C41.157 11.3197 41.3353 8.18805 39.3709 5.82602C37.1981 3.21112 33.6942 3.00765 33.5751 3.00231L30.1269 2.68503C29.7462 2.65001 29.4089 2.92985 29.3738 3.31126L29.0599 6.73089L29.0438 6.8762C28.9882 7.48037 28.8107 10.6107 30.775 12.9741C32.9479 15.5877 36.4519 15.7897 36.571 15.7951L40.013 16.1119ZM31.8398 12.0887C30.225 10.1456 30.3762 7.51159 30.423 7.00327L30.6897 4.12802L33.4752 4.38367C33.5056 4.38573 36.5284 4.57282 38.306 6.7117C39.9211 8.65344 39.769 11.2888 39.7222 11.7971L39.5468 13.6952L33.1009 5.9421C32.856 5.64757 32.4202 5.60746 32.1258 5.85237C31.8313 6.09728 31.7911 6.53381 32.036 6.82761L35.2587 10.7038L38.4814 14.58L36.6682 14.4139C36.6384 14.4124 33.6282 14.239 31.8398 12.0887Z" fill="#30B255"/>
<path d="M31.0068 4.4652C31.0068 4.98442 30.9861 5.50059 31.0608 6.01526C31.0989 6.27782 31.1149 6.55019 31.161 6.80957C31.199 7.02311 31.2326 7.23514 31.269 7.44964C31.3237 7.77176 31.4304 8.07053 31.5273 8.38276C31.6214 8.68588 31.7821 8.9639 31.9091 9.25419C32.0371 9.54681 32.1866 9.83021 32.3255 10.1179C32.3926 10.2569 32.4543 10.4042 32.5376 10.5343C32.6096 10.6469 32.7038 10.7423 32.7766 10.8544C32.9413 11.1077 33.1291 11.4072 33.3666 11.5986C33.5439 11.7414 33.7366 11.8628 33.9064 12.015C34.1088 12.1965 34.4339 12.286 34.6853 12.3774C34.9577 12.4765 35.2018 12.637 35.4796 12.7245C35.6242 12.77 35.7717 12.7798 35.9192 12.8093C36.0078 12.827 36.0862 12.8633 36.1775 12.8633C36.3165 12.8633 36.351 12.8655 36.351 12.7129C36.351 12.2768 36.3575 11.9093 36.1582 11.506C35.9603 11.1055 35.6403 10.812 35.2791 10.5575C34.7778 10.2043 34.2598 9.8968 33.6519 9.77859C33.4748 9.74414 33.2365 9.70339 33.0543 9.74389C32.9332 9.77078 32.8934 9.99225 32.846 10.0871C32.5983 10.5825 32.7679 11.2938 33.1198 11.6988C33.4325 12.0588 33.8476 12.2902 34.2689 12.5008C34.6776 12.7052 35.0873 12.839 35.5336 12.9327C35.8251 12.9939 36.3681 13.1018 36.5438 12.763C36.7992 12.2705 36.4995 11.61 36.2353 11.1937C35.8152 10.5317 35.1478 10.0088 34.4809 9.61279C34.1883 9.43901 33.8763 9.31386 33.5594 9.1925C33.4575 9.15347 33.2542 9.03591 33.1352 9.05754C33.023 9.07794 33.0889 9.82571 33.0928 9.90969C33.1162 10.4121 33.3538 10.8574 33.6288 11.267C33.802 11.525 34.0166 11.7164 34.2843 11.8762C34.3327 11.9051 34.7392 12.1246 34.8087 12.123C35.1189 12.1154 35.1398 11.6511 35.1557 11.4829C35.2064 10.9466 35.1436 10.0309 35.0863 9.50868C35.0525 9.20078 34.9826 8.7298 34.8704 8.4059C34.7504 8.05962 34.6966 8.4045 34.6853 8.54857C34.6363 9.17306 34.6007 9.79844 34.5465 10.4225C34.5314 10.5962 34.5013 10.7664 34.4809 10.9392C34.4796 10.9506 34.4966 11.1141 34.531 11.0279C34.586 10.8906 34.5465 10.6671 34.5465 10.5266C34.5465 10.1496 34.5636 9.7665 34.5002 9.393C34.4131 8.87977 34.2277 8.36087 34.0298 7.8815C33.8157 7.36284 33.5355 6.88435 33.1738 6.45483C33.0833 6.34733 32.8016 5.95357 32.6185 5.95357C32.4973 5.95357 32.4736 6.36833 32.4643 6.42398C32.3192 7.29437 32.2138 8.15851 32.1905 9.04212C32.1787 9.49204 32.2004 9.94916 32.2599 10.3955C32.2615 10.4075 32.3055 10.5724 32.3255 10.5073C32.3906 10.2958 32.4012 10.0427 32.4296 9.82486C32.5516 8.88975 32.6879 7.8851 32.526 6.94838C32.4844 6.70747 32.4201 6.47342 32.3293 6.24661C32.2653 6.08657 32.2419 6.31025 32.2252 6.37C32.1603 6.60228 32.0594 6.82191 31.9785 7.04863C31.889 7.29927 31.8241 7.55548 31.7548 7.8121C31.6272 8.28465 31.5061 8.76853 31.4386 9.25419C31.4224 9.37104 31.4028 9.71432 31.3692 9.60122C31.3017 9.37343 31.3576 9.07167 31.3538 8.83776C31.3493 8.5561 31.3204 8.28466 31.2459 8.0126C31.1812 7.7768 31.1341 8.02896 31.107 8.13984C31.015 8.51625 30.941 8.90447 30.8718 9.28504C30.8438 9.43907 30.8567 9.64378 30.8834 9.79401C30.9244 10.0248 30.9703 10.2595 31.0222 10.4881C31.0701 10.6987 31.2045 10.8805 31.3191 11.0587C31.4189 11.214 31.5654 11.3269 31.67 11.479C31.8006 11.669 31.9889 11.871 32.1867 11.9919C32.3863 12.1139 32.6324 12.1996 32.8537 12.2733C33.3101 12.4255 33.7446 12.5961 34.184 12.7939C34.8456 13.0916 35.5101 13.3491 36.2469 13.3491C36.4248 13.3491 36.5889 13.4624 36.7675 13.4879C37.0277 13.5251 37.2891 13.5874 37.5463 13.6422C37.8374 13.7041 38.1154 13.813 38.4023 13.8889C38.4749 13.9082 38.4888 13.9068 38.4023 13.9044C38.2439 13.8998 38.0891 13.8681 37.9319 13.8504C37.4766 13.7992 37.0177 13.7025 36.5592 13.6961C36.2566 13.6919 35.9516 13.7091 35.6493 13.6923C35.0348 13.6582 34.4691 13.3235 33.9025 13.1139C33.6455 13.0188 33.1571 12.9304 33.0041 12.6551C32.9762 12.6048 32.9529 12.5475 32.9193 12.5008C32.882 12.449 32.7728 12.3774 32.7728 12.3774C32.7728 12.3774 33.1404 12.7149 33.3049 12.9018C34.0224 13.7172 35.2511 13.9044 36.2739 13.9044C36.9525 13.9044 37.6312 13.9044 38.3098 13.9044C38.5266 13.9044 38.8361 13.9626 39.0424 13.8889C39.2174 13.8264 39.1966 13.5762 39.1966 13.4339C39.1966 13.2077 39.2257 12.9825 39.1118 12.7785C39.0104 12.5968 38.9167 12.4157 38.8149 12.2348C38.7166 12.0599 38.5963 11.892 38.5759 11.6872C38.5518 11.4469 38.572 11.1959 38.572 10.9546C38.572 10.3171 38.484 9.65444 38.3484 9.03055C38.2983 8.80021 38.2032 8.57894 38.1401 8.35192C38.0782 8.12882 37.936 7.88139 37.8047 7.69256C37.6326 7.44522 37.3895 7.20899 37.1453 7.03321C36.847 6.81845 36.5616 6.59017 36.2508 6.39314C35.7025 6.04565 35.1677 5.74772 34.5619 5.50629C34.2104 5.36624 33.8182 5.19566 33.436 5.15926C33.202 5.13698 32.9579 5.00445 32.7265 4.95104C32.4351 4.8838 32.136 4.74283 31.8358 4.74283C31.7216 4.74283 31.4808 4.69299 31.3885 4.78524C31.2309 4.94281 31.2844 5.23865 31.2844 5.43688C31.2844 5.83958 31.3776 6.21592 31.4541 6.60907C31.5179 6.9371 31.5462 7.36061 31.4078 7.67328C31.2165 8.10547 30.6902 8.34257 30.2587 8.47531C30.0113 8.55144 30.0396 8.25977 30.0351 8.08972C30.0271 7.78432 29.9332 7.52411 30.1392 7.27227C30.2302 7.16105 30.2478 7.02878 30.3513 6.92525C30.5827 6.6938 30.814 6.5551 31.107 6.40856C31.604 6.1601 32.1867 5.78672 32.1867 5.15926C32.1867 4.90528 32.1448 4.609 32.1905 4.35724C32.2394 4.08828 32.5504 4.11818 32.7574 4.11818C33.0456 4.11818 33.3283 4.12774 33.6095 4.19915C33.961 4.28842 34.2805 4.45635 34.6159 4.58859C34.7834 4.65467 34.9171 4.72653 35.0632 4.82766C35.4866 5.12081 35.9787 5.23353 36.4436 5.43688C36.57 5.49219 36.7217 5.56077 36.8214 5.66052C36.8995 5.7386 36.9389 5.8512 37.0065 5.93814C37.2728 6.28055 37.5221 6.63627 37.8741 6.8944C38.127 7.07986 38.3198 7.3732 38.5026 7.62701C38.7493 7.96968 38.9619 8.34496 39.1928 8.69895C39.3053 8.87145 39.4332 9.0576 39.5013 9.25419C39.5645 9.43689 39.559 9.65011 39.5784 9.84028C39.6082 10.1323 39.6131 10.4188 39.6131 10.7117C39.6131 10.9821 39.5431 11.1647 39.4203 11.4058C39.2682 11.7043 39.0981 11.8213 38.7802 11.9224C38.5385 11.9994 38.2208 12.0595 37.9743 11.988C37.524 11.8573 36.8878 11.5607 36.6595 11.1281C36.4408 10.7139 36.4898 10.1749 36.4898 9.72461C36.4898 9.43927 36.4898 9.15394 36.4898 8.8686C36.4898 8.70005 36.5096 8.51576 36.459 8.35192C36.2016 7.51928 35.3205 7.0541 34.531 6.86355C34.4814 6.85157 34.3623 6.80133 34.3074 6.83271C34.2417 6.87023 34.2144 7.08702 34.1956 7.14503C34.0729 7.52343 33.9584 7.94873 34.2149 8.29794C34.4053 8.55722 34.6723 8.75016 34.9398 8.92259C35.4376 9.24358 35.9738 9.4965 36.5053 9.75545C37.0273 10.0099 37.5574 10.2554 38.063 10.542C38.147 10.5896 38.4949 10.7446 38.4949 10.8891C38.4949 11.0294 38.3873 11.2431 38.2867 11.3325C37.95 11.6318 37.532 11.1171 37.3381 10.8814C37.0078 10.4798 36.6994 10.0345 36.486 9.5588C36.3596 9.2772 36.2953 8.96909 36.2161 8.67195C36.1697 8.49812 36.1428 8.33489 36.1428 8.15527C36.1428 8.11478 36.1209 7.98407 36.1582 7.95091C36.2276 7.88924 36.6443 8.32967 36.6826 8.36734C36.8398 8.52196 37.0017 8.67756 37.153 8.83776C37.2655 8.95688 37.2932 9.07431 37.3574 9.21563C37.3997 9.30862 37.3921 9.39645 37.3921 9.49711C37.3921 9.63118 37.4941 9.60122 37.6003 9.60122" stroke="#30B255" stroke-width="2" stroke-linecap="round"/>
<path d="M45.8602 9.87864C45.7925 9.95389 45.7413 10.041 45.6751 10.1177C45.5135 10.3051 45.3175 10.4519 45.1623 10.646C45.0162 10.8286 44.8276 10.9642 44.6803 11.1434C44.5804 11.2648 44.5073 11.4045 44.4374 11.5444C44.3123 11.7946 44.2179 12.044 44.1251 12.3078C44.056 12.5042 43.9426 12.6719 43.8552 12.8592C43.7847 13.0103 43.7291 13.1773 43.6701 13.3335C43.6273 13.4466 43.6136 13.5673 43.5698 13.6805C43.5167 13.818 43.4431 13.945 43.3963 14.0854C43.2718 14.459 43.1961 14.8476 43.0531 15.2152C43.0436 15.2398 42.9303 15.5522 42.8912 15.4696C42.8172 15.3134 42.8177 15.0701 42.8102 14.9028C42.796 14.5836 42.8064 14.2622 42.8064 13.9427C42.8064 13.2656 42.8622 12.6271 43.0531 11.9724C43.1361 11.6879 43.2342 11.3167 43.5158 11.1588C43.8016 10.9986 44.2165 10.9966 44.5338 10.9583C44.8134 10.9245 45.0951 10.9174 45.3744 10.8812C45.6417 10.8465 45.9061 10.7882 46.1764 10.7809C46.2915 10.7778 46.2114 10.8181 46.1648 10.9004C46.0225 11.1523 45.8627 11.3966 45.6906 11.6292C45.1601 12.3461 44.4898 12.9441 43.94 13.642C43.9013 13.691 43.76 13.8427 43.7395 13.9042C43.7387 13.9066 43.8078 13.9672 43.8166 13.9697C43.8698 13.9849 43.8994 14.0098 43.9477 14.0276C44.0695 14.0724 44.2412 13.9502 44.341 13.9003C44.9445 13.5986 45.4164 13.168 45.8911 12.6934C46.2869 12.2975 46.6116 11.818 47.0401 11.4595C47.4316 11.1321 47.9045 10.9623 48.3434 10.7115C48.4936 10.6257 48.6318 10.5196 48.7907 10.4493C48.9705 10.3697 49.1555 10.3091 49.3343 10.2257C49.6295 10.088 49.9414 9.98962 50.2328 9.84394C50.3596 9.78053 50.5667 9.74352 50.6338 9.60102C50.684 9.49436 50.3921 9.53161 50.3407 9.53161C49.8317 9.53161 49.3134 9.50355 48.8061 9.54704C48.2942 9.59092 47.7434 9.76811 47.2946 10.0175C46.9955 10.1836 46.7624 10.4339 46.5234 10.6729C46.3031 10.8933 46.0693 11.0893 45.999 11.4056C45.9531 11.6121 45.9137 11.8005 45.9296 12.0148C45.9396 12.149 46.113 12.1781 46.2188 12.1999C46.4609 12.2497 46.7243 12.2722 46.9707 12.2924C47.4158 12.329 47.6962 12.0092 47.7303 11.5829C47.7448 11.4019 47.6801 11.2752 47.6108 11.1125C47.528 10.9184 47.444 10.7282 47.3524 10.538C47.2321 10.2881 47.1297 10.0175 46.8203 10.0175C46.6476 10.0175 46.4624 9.99881 46.2921 10.0329C46.2612 10.039 46.0651 10.1501 46.1147 10.0791C46.1802 9.98552 46.2952 9.92835 46.3923 9.87478C46.6307 9.74328 46.8913 9.64596 47.1635 9.61644C47.7715 9.55051 48.3548 9.90506 48.8447 10.2257C48.9399 10.288 49.0313 10.3751 49.1377 10.4185C49.1872 10.4386 49.2548 10.4886 49.3035 10.4994C49.4121 10.5236 49.5247 10.4683 49.6235 10.4339C49.7778 10.3802 49.9575 10.3471 50.1209 10.3375C50.3685 10.3229 50.3022 10.7602 50.3022 10.9043C50.3022 11.0266 50.3146 11.1572 50.2945 11.2783C50.2646 11.4577 50.1752 11.6238 50.1634 11.8066C50.1318 12.2958 49.943 12.7149 49.6428 13.1099C49.4656 13.343 49.311 13.5972 49.1377 13.8348C48.9648 14.0717 48.7854 14.264 48.5825 14.4748C48.4659 14.5958 48.3773 14.7347 48.247 14.845C47.9525 15.0942 47.6614 15.2714 47.3139 15.4349C46.8429 15.6566 46.3803 15.8681 45.8602 15.9323C45.3669 15.9933 44.9093 16.1761 44.4181 16.2485C44.304 16.2654 43.8672 16.4476 43.9323 16.1945C43.9782 16.016 44.1255 15.8451 44.2369 15.7049C44.4369 15.453 44.6678 15.2153 44.9194 15.0147C45.1602 14.8226 45.4282 14.67 45.6828 14.498C46.2021 14.1472 46.7003 13.7629 47.1866 13.3682C47.6505 12.9917 48.0864 12.5872 48.4976 12.1536C48.7528 11.8846 48.9832 11.5908 49.2611 11.3439C49.5247 11.1095 49.836 10.9551 50.094 10.7115C50.1865 10.6241 50.168 10.7597 50.1518 10.8272C50.0863 11.1002 49.8481 11.3329 49.6775 11.5444C49.2446 12.0809 48.7233 12.5623 48.22 13.0327C47.7793 13.4447 47.3688 13.9036 46.8704 14.2473C46.5682 14.4558 46.207 14.6522 45.972 14.9414C45.8763 15.0592 45.7765 15.2424 46.0106 15.219C46.191 15.201 46.3587 15.1354 46.5311 15.0841C46.8714 14.9827 47.2193 14.9189 47.5568 14.8064C48.111 14.6217 48.6484 14.3711 49.0683 13.9581C49.406 13.6259 49.7701 13.3505 50.1556 13.0752C50.2736 12.9909 50.3418 12.8928 50.441 12.7937C50.4848 12.7499 50.5453 12.7094 50.6106 12.7281C50.7761 12.7754 50.5492 13.2197 50.5104 13.2795C50.2403 13.6963 49.951 14.0567 49.5696 14.3746C49.3631 14.5466 49.1512 14.697 48.9141 14.8219C48.8198 14.8715 48.7324 14.932 48.6364 14.98C48.6048 14.9958 48.5415 15.0267 48.5092 15.0455C48.418 15.0987 48.4976 15.0583 48.4976 15.0841" stroke="#308255" stroke-width="2" stroke-linecap="round"/>
<defs>
<clipPath id="clip0_493_200">
<rect width="36.8" height="37.6" fill="white" transform="translate(223.2 17.6001)"/>
</clipPath>
</defs>
</svg>
