<svg width="325" height="70" viewBox="0 0 325 70" fill="none" xmlns="http://www.w3.org/2000/svg">
<path d="M6.77285 66.3995H0V0.561121L0.560512 0H3.08282C4.63979 0 5.63626 0.405253 6.07221 1.21576C6.53931 1.9951 6.77285 3.16411 6.77285 4.72278V66.3995ZM35.9195 45.2171C35.9195 50.8907 34.9697 55.5043 33.0702 59.0581C31.1707 62.6119 28.7107 65.2305 25.6901 66.9138C22.7007 68.566 19.5556 69.3921 16.2548 69.3921C13.4834 69.3921 10.7431 69.1427 8.034 68.644C5.32486 68.114 2.64686 67.3658 0 66.3995L3.54991 60.7882C5.57398 61.9417 7.56691 62.7833 9.5287 63.3133C11.4905 63.8121 13.717 64.0615 16.2081 64.0615C18.4813 64.0615 20.5832 63.3912 22.5139 62.0508C24.4445 60.7103 25.986 58.6529 27.1381 55.8784C28.3214 53.0728 28.9131 49.5346 28.9131 45.2639C28.9131 39.185 27.901 34.8208 25.877 32.171C23.884 29.4901 21.5797 28.1496 18.964 28.1496C16.1303 28.1496 13.4367 29.0537 10.8833 30.8617C8.36097 32.6698 6.41475 34.8208 5.04461 37.3146L3.97029 31.1423C4.74878 29.9577 5.88537 28.664 7.38007 27.2612C8.90591 25.8584 10.7276 24.6582 12.8451 23.6607C14.9937 22.6319 17.3759 22.1176 19.9916 22.1176C23.5104 22.1176 26.4375 23.0995 28.7729 25.0635C31.1395 27.0274 32.9145 29.7551 34.0978 33.2465C35.3122 36.7067 35.9195 40.6969 35.9195 45.2171Z" fill="black"/>
<path d="M56.5124 68.7375C56.0765 68.831 55.5627 68.8933 54.971 68.9245C54.3794 68.9869 53.7566 69.018 53.1027 69.018C52.4176 69.018 51.7792 68.9869 51.1876 68.9245C50.5959 68.8933 50.0821 68.831 49.6462 68.7375V32.6386C49.6462 30.9241 49.3659 29.7395 48.8054 29.0848C48.2449 28.4302 47.2329 28.1029 45.7693 28.1029H44.8818C44.695 27.1988 44.6016 26.3416 44.6016 25.5311C44.6016 25.0946 44.6171 24.6894 44.6483 24.3153C44.7105 23.91 44.7884 23.458 44.8818 22.9593C45.9406 22.8034 46.8592 22.7099 47.6377 22.6787C48.4473 22.6163 49.1012 22.5852 49.5995 22.5852H50.3935C52.3242 22.5852 53.8189 23.1775 54.8776 24.3621C55.9675 25.5466 56.5124 27.1833 56.5124 29.2719V68.7375Z" fill="black"/>
<path d="M108.298 45.7782C108.298 50.4231 107.566 54.5691 106.102 58.2164C104.639 61.8326 102.459 64.6849 99.5631 66.7735C96.6983 68.831 93.1172 69.8597 88.82 69.8597C84.5538 69.8597 80.9728 68.8154 78.0768 66.7268C75.212 64.607 73.0633 61.739 71.6309 58.1229C70.1985 54.4756 69.4823 50.3607 69.4823 45.7782C69.4823 41.1646 70.2141 37.0497 71.6776 33.4335C73.1412 29.8174 75.3054 26.965 78.1702 24.8764C81.0351 22.7878 84.585 21.7435 88.82 21.7435C93.1484 21.7435 96.745 22.7878 99.6098 24.8764C102.506 26.965 104.67 29.8174 106.102 33.4335C107.566 37.0497 108.298 41.1646 108.298 45.7782ZM76.6288 45.7782C76.6288 48.8644 77.0025 51.8415 77.7498 54.7094C78.5283 57.5462 79.8051 59.8842 81.58 61.7234C83.3861 63.5315 85.8306 64.4355 88.9134 64.4355C91.9962 64.4355 94.4251 63.5315 96.2 61.7234C97.975 59.8842 99.2361 57.5462 99.9835 54.7094C100.731 51.8415 101.105 48.8644 101.105 45.7782C101.105 42.7232 100.731 39.7617 99.9835 36.8938C99.2361 34.0258 97.975 31.6722 96.2 29.833C94.4251 27.9938 91.9962 27.0741 88.9134 27.0741C85.8306 27.0741 83.3861 27.9938 81.58 29.833C79.8051 31.6722 78.5283 34.0258 77.7498 36.8938C77.0025 39.7617 76.6288 42.7232 76.6288 45.7782Z" fill="black"/>
<path d="M124.604 22.024C126.753 22.024 128.294 22.7099 129.229 24.0815C130.163 25.422 130.63 27.2768 130.63 29.646V68.7375C129.914 68.8622 129.089 68.9557 128.154 69.018C127.22 69.1116 126.286 69.1583 125.352 69.1583C124.418 69.1583 123.483 69.1116 122.549 69.018C121.615 68.9557 120.774 68.8622 120.027 68.7375V22.6787L120.634 22.024H124.604ZM145.25 39.6526C145.25 36.5353 144.783 34.3531 143.849 33.1062C142.946 31.8281 141.653 31.189 139.972 31.189C138.477 31.2202 136.873 31.7346 135.161 32.7321C133.448 33.6985 131.86 34.9766 130.396 36.5665C128.964 38.1563 127.858 39.902 127.08 41.8036V31.7502C128.45 29.8798 130.007 28.1808 131.751 26.6533C133.526 25.1258 135.41 23.91 137.403 23.006C139.427 22.102 141.498 21.65 143.615 21.65C146.324 21.65 148.597 22.289 150.435 23.5671C152.272 24.8452 153.642 26.591 154.545 28.8043C155.448 30.9864 155.9 33.4491 155.9 36.1924V68.7375C155.152 68.8622 154.312 68.9557 153.377 69.018C152.443 69.1116 151.525 69.1583 150.621 69.1583C149.687 69.1583 148.753 69.1116 147.819 69.018C146.885 68.9557 146.028 68.8622 145.25 68.7375V39.6526ZM170.52 39.5591C170.52 36.4418 170.037 34.2752 169.072 33.0595C168.137 31.8125 166.845 31.189 165.195 31.189C163.762 31.189 162.205 31.6722 160.524 32.6386C158.842 33.605 157.254 34.9143 155.76 36.5665C154.265 38.1875 153.035 40.0267 152.069 42.0842V30.815C153.564 29.1316 155.23 27.6041 157.067 26.2325C158.905 24.8297 160.851 23.723 162.906 22.9125C164.961 22.0708 167.032 21.65 169.118 21.65C171.828 21.65 174.07 22.3046 175.845 23.6139C177.651 24.892 178.99 26.6377 179.862 28.851C180.733 31.0644 181.169 33.5582 181.169 36.3327V58.497C181.169 60.1492 181.278 61.7234 181.496 63.2198C181.745 64.7161 182.197 66.0098 182.851 67.1009C182.072 67.7555 181.092 68.301 179.908 68.7375C178.756 69.1739 177.526 69.3921 176.218 69.3921C174.132 69.3921 172.653 68.831 171.781 67.7088C170.94 66.5553 170.52 64.872 170.52 62.6587V39.5591Z" fill="black"/>
<path d="M232.578 45.5912C232.578 50.3919 231.8 54.6315 230.243 58.31C228.686 61.9884 226.381 64.8564 223.33 66.9138C220.309 68.9713 216.557 70 212.073 70C207.589 70 203.821 68.9557 200.769 66.8671C197.749 64.7785 195.475 61.9105 193.949 58.2632C192.424 54.5847 191.661 50.3607 191.661 45.5912C191.661 40.7905 192.424 36.5665 193.949 32.9192C195.506 29.2407 197.795 26.3727 200.816 24.3153C203.867 22.2578 207.62 21.2291 212.073 21.2291C216.588 21.2291 220.356 22.2734 223.376 24.3621C226.428 26.4195 228.717 29.2719 230.243 32.9192C231.8 36.5665 232.578 40.7905 232.578 45.5912ZM202.591 45.5912C202.591 48.428 202.855 51.0933 203.385 53.5872C203.914 56.0499 204.864 58.0606 206.234 59.6192C207.635 61.1467 209.597 61.9105 212.119 61.9105C214.642 61.9105 216.588 61.1467 217.958 59.6192C219.328 58.0606 220.278 56.0499 220.807 53.5872C221.337 51.0933 221.601 48.428 221.601 45.5912C221.601 42.7544 221.337 40.1047 220.807 37.6419C220.278 35.1481 219.328 33.1218 217.958 31.5631C216.588 30.0045 214.642 29.2251 212.119 29.2251C209.597 29.2251 207.635 30.0045 206.234 31.5631C204.864 33.1218 203.914 35.1481 203.385 37.6419C202.855 40.1047 202.591 42.7544 202.591 45.5912Z" fill="black"/>
<path d="M268.331 22.4449C269.016 22.289 269.686 22.1955 270.34 22.1643C271.025 22.102 271.679 22.0708 272.301 22.0708C273.267 22.0708 274.201 22.1332 275.104 22.2579C276.038 22.3825 276.91 22.5852 277.72 22.8657L278 23.3333C276.972 26.8871 275.82 30.7526 274.544 34.9299C273.267 39.1071 271.974 43.2999 270.667 47.5084C269.359 51.6856 268.113 55.629 266.93 59.3387C265.778 63.0171 264.766 66.1501 263.894 68.7375C262.71 68.9245 261.434 69.0492 260.064 69.1116C258.725 69.2051 257.417 69.2518 256.14 69.2518C254.054 69.2518 252.45 68.9089 251.329 68.2231C250.208 67.5061 249.274 65.9474 248.526 63.5471L235.915 23.2866C237.036 22.7878 238.11 22.4137 239.138 22.1643C240.165 21.8838 241.115 21.7435 241.987 21.7435C243.544 21.7435 244.79 22.0864 245.724 22.7722C246.689 23.458 247.405 24.6738 247.872 26.4195L253.711 46.3393C254.178 47.8045 254.614 49.3788 255.019 51.0621C255.455 52.7455 255.844 54.3353 256.187 55.8317C256.529 57.328 256.794 58.5593 256.981 59.5257C257.074 59.8686 257.168 60.0868 257.261 60.1804C257.386 60.2427 257.588 60.2739 257.868 60.2739L268.331 22.4449Z" fill="black"/>
<g clip-path="url(#clip0_493_200)">
<path d="M304.182 22.1034C300.799 21.776 297.387 22.2174 294.19 23.3959C290.994 24.5745 288.092 26.4611 285.693 28.9204C282.48 32.2255 280.299 36.4312 279.427 41.0042C278.555 45.5773 279.032 50.3119 280.796 54.6079C282.567 58.9012 285.546 62.5607 289.354 65.1225C293.163 67.6842 297.63 69.033 302.19 68.9977C302.77 69.0043 303.345 68.8928 303.882 68.6696C304.419 68.4464 304.907 68.1161 305.318 67.6979C305.728 67.2797 306.053 66.7821 306.273 66.2341C306.493 65.6861 306.604 65.0988 306.599 64.5065C306.595 63.9142 306.474 63.3288 306.245 62.7846C306.017 62.2404 305.684 61.7482 305.267 61.3369C304.85 60.9256 304.357 60.6034 303.816 60.3892C303.276 60.1749 302.699 60.073 302.119 60.0892C299.286 60.1174 296.51 59.2826 294.143 57.6914C291.777 56.1002 289.928 53.8247 288.833 51.1553C287.732 48.4887 287.433 45.5473 287.974 42.7063C288.516 39.8654 289.874 37.2538 291.875 35.2047C293.605 33.4222 295.756 32.1268 298.12 31.4442C300.485 30.7616 302.982 30.715 305.369 31.3089C307.756 31.9028 309.952 33.117 311.745 34.8338C313.537 36.5506 314.865 38.7115 315.599 41.1071H302.096C300.94 41.1071 299.831 41.5765 299.013 42.412C298.195 43.2475 297.736 44.3807 297.736 45.5623C297.736 46.7439 298.195 47.8771 299.013 48.7126C299.831 49.5481 300.94 50.0175 302.096 50.0175H320.638C321.792 50.0181 322.899 49.551 323.717 48.7189C324.535 47.8867 324.996 46.7572 325 45.578C325.013 40.9189 323.671 36.3609 321.145 32.482C318.618 28.603 315.022 25.5777 310.811 23.7896C308.696 22.893 306.461 22.3253 304.182 22.1054V22.1034Z" fill="black"/>
</g>
<path d="M52.0025 21.3263C52.0018 21.417 52.0205 21.5062 52.0588 21.5909C52.0639 21.6016 52.074 21.6089 52.0791 21.6189C52.1138 21.6855 52.1535 21.7495 52.2127 21.8041C52.2676 21.8548 52.3326 21.8875 52.3983 21.9181C52.4148 21.926 52.4271 21.9394 52.4445 21.9467C52.5333 21.9807 52.6278 21.9994 52.7232 21.9994L52.729 21.9987L56.3019 21.998L56.4543 22C57.0868 22 60.3551 21.8947 62.6196 19.8039C65.1268 17.4912 65.0033 14.1155 64.9975 14.0008V10.6684C64.9975 10.3005 64.6747 10.002 64.2754 10.002L60.6952 10.0027L60.5428 10C59.9103 10 56.6435 10.106 54.3775 12.1968C51.8718 14.5095 51.9968 17.8852 52.0026 17.9999L52.0025 21.3263ZM55.3985 13.1391C57.2615 11.4202 60.0105 11.3329 60.5427 11.3329L63.5531 11.335L63.5538 14.0269C63.5546 14.0562 63.6491 16.9695 61.5984 18.8616C59.7368 20.5805 56.9864 20.6672 56.4541 20.6672L54.4669 20.6665L61.9002 13.8056C62.1825 13.545 62.1825 13.1238 61.9002 12.8632C61.6178 12.6027 61.1607 12.6026 60.8791 12.8632L53.4465 19.7234L53.4458 17.9712C53.4445 17.9425 53.337 15.0426 55.3985 13.1391Z" fill="#308255"/>
<path d="M50.0162 20.1399C50.1334 20.1515 50.251 20.1398 50.3647 20.1041C50.3791 20.0993 50.3896 20.0882 50.4031 20.0833C50.4931 20.0498 50.5803 20.01 50.6574 19.9458C50.729 19.8863 50.7783 19.8126 50.8252 19.7378C50.8373 19.719 50.8559 19.7059 50.8673 19.6861C50.921 19.584 50.9555 19.4734 50.966 19.3595L50.9657 19.3526L51.3573 15.0866L51.3767 14.9049C51.4462 14.1497 51.6691 10.2351 49.2136 7.28258C46.4976 4.01397 42.1178 3.75962 41.9688 3.75295L37.6586 3.35635C37.1828 3.31257 36.7611 3.66237 36.7173 4.13914L36.3249 8.41367L36.3047 8.59532C36.2352 9.35053 36.0134 13.2635 38.4688 16.2177C41.1849 19.4846 45.5649 19.7372 45.7138 19.7439L50.0162 20.1399ZM39.7997 15.1109C37.7812 12.6821 37.9703 9.38954 38.0287 8.75415L38.3621 5.16009L41.844 5.47965C41.882 5.48223 45.6605 5.71609 47.8826 8.38969C49.9013 10.8169 49.7112 14.111 49.6527 14.7465L49.4335 17.119L41.3761 7.42768C41.07 7.05952 40.5252 7.00939 40.1572 7.31553C39.7892 7.62166 39.7389 8.16732 40.045 8.53457L44.0734 13.3798L48.1017 18.225L45.8353 18.0174C45.798 18.0155 42.0353 17.7988 39.7997 15.1109Z" fill="#30B255"/>
<path d="M38.7587 5.58151C38.7587 6.23053 38.7328 6.87574 38.8262 7.51908C38.8738 7.84727 38.8939 8.18774 38.9515 8.51196C38.999 8.77889 39.0409 9.04392 39.0865 9.31206C39.1549 9.7147 39.2883 10.0882 39.4094 10.4785C39.527 10.8573 39.7278 11.2049 39.8866 11.5677C40.0466 11.9335 40.2335 12.2878 40.4071 12.6474C40.491 12.8211 40.5681 13.0052 40.6722 13.1679C40.7622 13.3086 40.88 13.4279 40.971 13.568C41.1768 13.8846 41.4116 14.2591 41.7085 14.4982C41.9301 14.6767 42.171 14.8285 42.3832 15.0187C42.6363 15.2456 43.0426 15.3575 43.3568 15.4718C43.6974 15.5956 44.0025 15.7963 44.3497 15.9056C44.5304 15.9625 44.7148 15.9748 44.8992 16.0116C45.01 16.0338 45.108 16.0791 45.2221 16.0791C45.3959 16.0791 45.439 16.0819 45.439 15.8911C45.439 15.3461 45.4472 14.8866 45.198 14.3825C44.9506 13.8818 44.5506 13.5149 44.0991 13.1968C43.4725 12.7554 42.825 12.371 42.0651 12.2232C41.8437 12.1802 41.5458 12.1292 41.3181 12.1799C41.1668 12.2135 41.117 12.4903 41.0578 12.6088C40.7481 13.2281 40.9601 14.1172 41.4 14.6235C41.7909 15.0734 42.3097 15.3627 42.8363 15.626C43.3472 15.8815 43.8594 16.0488 44.4172 16.1659C44.7817 16.2424 45.4604 16.3773 45.68 15.9538C45.9993 15.3381 45.6247 14.5125 45.2944 13.9921C44.7693 13.1646 43.935 12.5109 43.1014 12.016C42.7356 11.7988 42.3456 11.6423 41.9495 11.4906C41.8221 11.4418 41.568 11.2949 41.4193 11.3219C41.279 11.3474 41.3614 12.2821 41.3663 12.3871C41.3955 13.0151 41.6925 13.5717 42.0362 14.0837C42.2527 14.4062 42.5209 14.6455 42.8556 14.8452C42.9162 14.8814 43.4242 15.1558 43.5111 15.1537C43.8989 15.1443 43.925 14.5638 43.9449 14.3536C44.0082 13.6832 43.9297 12.5386 43.8581 11.8858C43.8159 11.501 43.7285 10.9123 43.5882 10.5074C43.4382 10.0745 43.371 10.5056 43.3568 10.6857C43.2956 11.4663 43.2512 12.2481 43.1833 13.0281C43.1645 13.2452 43.1268 13.458 43.1014 13.674C43.0997 13.6883 43.1209 13.8926 43.1641 13.7849C43.2327 13.6132 43.1833 13.3338 43.1833 13.1583C43.1833 12.687 43.2047 12.2081 43.1255 11.7413C43.0166 11.0997 42.7849 10.4511 42.5375 9.85188C42.2698 9.20355 41.9196 8.60543 41.4675 8.06854C41.3543 7.93417 41.0023 7.44196 40.7734 7.44196C40.6218 7.44196 40.5922 7.96041 40.5806 8.02998C40.3993 9.11797 40.2675 10.1981 40.2384 11.3026C40.2236 11.8651 40.2508 12.4364 40.3252 12.9944C40.3272 13.0094 40.3821 13.2155 40.4071 13.1342C40.4885 12.8697 40.5017 12.5534 40.5372 12.2811C40.6897 11.1122 40.8601 9.85638 40.6577 8.68548C40.6057 8.38434 40.5253 8.09178 40.4119 7.80827C40.3319 7.60821 40.3027 7.88781 40.2818 7.9625C40.2007 8.25285 40.0745 8.52739 39.9733 8.81079C39.8614 9.12409 39.7804 9.44435 39.6938 9.76512C39.5343 10.3558 39.3829 10.9607 39.2985 11.5677C39.2783 11.7138 39.2537 12.1429 39.2118 12.0015C39.1274 11.7168 39.1972 11.3396 39.1925 11.0472C39.1868 10.6951 39.1508 10.3558 39.0576 10.0158C38.9767 9.721 38.9179 10.0362 38.884 10.1748C38.769 10.6453 38.6765 11.1306 38.59 11.6063C38.555 11.7988 38.5711 12.0547 38.6045 12.2425C38.6558 12.531 38.7131 12.8244 38.778 13.1101C38.8379 13.3734 39.0059 13.6006 39.1491 13.8234C39.2739 14.0174 39.457 14.1587 39.5877 14.3488C39.751 14.5863 39.9864 14.8388 40.2336 14.9898C40.4832 15.1423 40.7908 15.2494 41.0674 15.3417C41.6379 15.5318 42.181 15.7452 42.7303 15.9923C43.5572 16.3645 44.3879 16.6864 45.3089 16.6864C45.5312 16.6864 45.7364 16.828 45.9596 16.8599C46.2849 16.9064 46.6116 16.9843 46.9332 17.0527C47.2969 17.1301 47.6445 17.2662 48.0032 17.3612C48.0939 17.3852 48.1112 17.3835 48.0032 17.3805C47.8051 17.3748 47.6116 17.3351 47.4151 17.313C46.846 17.249 46.2723 17.1281 45.6993 17.1202C45.3209 17.1149 44.9397 17.1364 44.5618 17.1154C43.7938 17.0727 43.0867 16.6543 42.3784 16.3924C42.0571 16.2735 41.4466 16.1629 41.2554 15.8188C41.2205 15.756 41.1913 15.6843 41.1494 15.626C41.1027 15.5613 40.9662 15.4718 40.9662 15.4718C40.9662 15.4718 41.4257 15.8936 41.6313 16.1273C42.5283 17.1465 44.0641 17.3805 45.3426 17.3805C46.1909 17.3805 47.0392 17.3805 47.8875 17.3805C48.1584 17.3805 48.5454 17.4533 48.8033 17.3612C49.022 17.2831 48.9961 16.9703 48.9961 16.7924C48.9961 16.5096 49.0324 16.2282 48.89 15.9731C48.7633 15.746 48.6461 15.5197 48.5189 15.2935C48.3959 15.0749 48.2457 14.865 48.2201 14.6091C48.19 14.3087 48.2152 13.9948 48.2152 13.6933C48.2152 12.8964 48.1052 12.0681 47.9357 11.2882C47.8731 11.0003 47.7542 10.7237 47.6754 10.4399C47.598 10.161 47.4203 9.85174 47.2561 9.61571C47.041 9.30653 46.7371 9.01124 46.4319 8.79151C46.0591 8.52306 45.7023 8.23771 45.3137 7.99142C44.6284 7.55707 43.9599 7.18465 43.2026 6.88286C42.7633 6.70779 42.273 6.49458 41.7952 6.44907C41.5027 6.42122 41.1976 6.25556 40.9084 6.1888C40.5441 6.10475 40.1703 5.92853 39.795 5.92853C39.6523 5.92853 39.3512 5.86624 39.2359 5.98155C39.0389 6.17852 39.1058 6.54831 39.1058 6.7961C39.1058 7.29947 39.2223 7.7699 39.3178 8.26133C39.3976 8.67137 39.433 9.20076 39.26 9.59161C39.0209 10.1318 38.3629 10.4282 37.8237 10.5941C37.5144 10.6893 37.5497 10.3247 37.5441 10.1121C37.5341 9.7304 37.4167 9.40514 37.6743 9.09034C37.788 8.95132 37.8099 8.78598 37.9394 8.65656C38.2287 8.36725 38.5177 8.19387 38.884 8.0107C39.5052 7.70012 40.2336 7.2334 40.2336 6.44907C40.2336 6.1316 40.1812 5.76125 40.2384 5.44655C40.2995 5.11036 40.6883 5.14772 40.9469 5.14772C41.3072 5.14772 41.6606 5.15967 42.0121 5.24894C42.4515 5.36052 42.8509 5.57043 43.2701 5.73574C43.4796 5.81834 43.6466 5.90816 43.8292 6.03457C44.3585 6.40102 44.9737 6.54191 45.5547 6.7961C45.7127 6.86524 45.9023 6.95096 46.027 7.07565C46.1246 7.17325 46.1739 7.314 46.2584 7.42268C46.5913 7.85068 46.9029 8.29534 47.3429 8.618C47.659 8.84982 47.9 9.2165 48.1285 9.53377C48.4369 9.9621 48.7027 10.4312 48.9912 10.8737C49.1319 11.0893 49.2918 11.322 49.3768 11.5677C49.4559 11.7961 49.449 12.0626 49.4732 12.3004C49.5105 12.6654 49.5166 13.0235 49.5166 13.3896C49.5166 13.7276 49.4291 13.9559 49.2756 14.2572C49.0855 14.6304 48.8729 14.7766 48.4755 14.9031C48.1734 14.9992 47.7762 15.0744 47.4682 14.985C46.9052 14.8216 46.1099 14.4508 45.8246 13.9102C45.5513 13.3923 45.6125 12.7186 45.6125 12.1558C45.6125 11.7991 45.6125 11.4424 45.6125 11.0858C45.6125 10.8751 45.6373 10.6447 45.574 10.4399C45.2523 9.39909 44.1508 8.81763 43.1641 8.57944C43.102 8.56446 42.9531 8.50166 42.8845 8.54088C42.8024 8.58779 42.7682 8.85877 42.7447 8.93129C42.5913 9.40429 42.4483 9.93591 42.7688 10.3724C43.0068 10.6965 43.3407 10.9377 43.675 11.1532C44.2973 11.5545 44.9675 11.8706 45.6318 12.1943C46.2844 12.5123 46.947 12.8193 47.579 13.1776C47.684 13.2371 48.1188 13.4308 48.1188 13.6113C48.1188 13.7867 47.9844 14.0538 47.8586 14.1656C47.4377 14.5397 46.9153 13.8964 46.6729 13.6017C46.26 13.0998 45.8745 12.5431 45.6077 11.9485C45.4498 11.5965 45.3694 11.2114 45.2703 10.8399C45.2124 10.6227 45.1787 10.4186 45.1787 10.1941C45.1787 10.1435 45.1514 9.98009 45.198 9.93863C45.2847 9.86155 45.8057 10.4121 45.8535 10.4592C46.05 10.6524 46.2524 10.847 46.4415 11.0472C46.5822 11.1961 46.6167 11.3429 46.697 11.5195C46.7498 11.6358 46.7404 11.7456 46.7404 11.8714C46.7404 12.039 46.8679 12.0015 47.0006 12.0015" stroke="#30B255" stroke-width="2" stroke-linecap="round"/>
<path d="M57.3248 12.3482C57.2401 12.4423 57.1761 12.5512 57.0934 12.6471C56.8914 12.8813 56.6464 13.0649 56.4524 13.3074C56.2698 13.5357 56.034 13.7052 55.8499 13.9291C55.7251 14.081 55.6337 14.2556 55.5463 14.4304C55.3898 14.7432 55.2719 15.055 55.1559 15.3847C55.0695 15.6302 54.9277 15.8398 54.8185 16.074C54.7304 16.2628 54.6609 16.4715 54.5871 16.6668C54.5337 16.8082 54.5165 16.9591 54.4618 17.1006C54.3954 17.2725 54.3034 17.4312 54.2449 17.6067C54.0892 18.0737 53.9946 18.5594 53.8159 19.0189C53.804 19.0497 53.6624 19.4402 53.6135 19.337C53.521 19.1416 53.5216 18.8375 53.5123 18.6285C53.4946 18.2295 53.5075 17.8276 53.5075 17.4283C53.5075 16.582 53.5772 15.7838 53.8159 14.9654C53.9197 14.6098 54.0422 14.1458 54.3943 13.9484C54.7515 13.7482 55.2702 13.7457 55.6668 13.6978C56.0162 13.6556 56.3684 13.6467 56.7175 13.6014C57.0517 13.5581 57.3821 13.4852 57.72 13.4761C57.8639 13.4722 57.7637 13.5225 57.7055 13.6255C57.5276 13.9403 57.3279 14.2457 57.1127 14.5364C56.4496 15.4325 55.6118 16.1801 54.9245 17.0524C54.8762 17.1137 54.6995 17.3034 54.6739 17.3801C54.6728 17.3832 54.7593 17.4589 54.7703 17.4621C54.8367 17.4811 54.8737 17.5121 54.9341 17.5344C55.0864 17.5905 55.301 17.4377 55.4258 17.3753C56.1801 16.9982 56.7701 16.46 57.3633 15.8667C57.8582 15.3719 58.264 14.7724 58.7996 14.3244C59.289 13.9151 59.8801 13.7028 60.4287 13.3893C60.6165 13.2821 60.7893 13.1494 60.9878 13.0616C61.2126 12.9621 61.4439 12.8863 61.6674 12.782C62.0363 12.6099 62.4263 12.487 62.7905 12.3049C62.949 12.2256 63.2079 12.1793 63.2917 12.0012C63.3545 11.8679 62.9897 11.9145 62.9254 11.9145C62.2891 11.9145 61.6412 11.8794 61.0071 11.9337C60.3672 11.9886 59.6788 12.2101 59.1178 12.5218C58.7439 12.7294 58.4526 13.0423 58.1538 13.3411C57.8783 13.6166 57.5861 13.8616 57.4983 14.2569C57.4409 14.5151 57.3917 14.7506 57.4115 15.0184C57.424 15.1862 57.6407 15.2225 57.773 15.2498C58.0756 15.3121 58.4049 15.3401 58.7129 15.3655C59.2693 15.4112 59.6198 15.0115 59.6624 14.4786C59.6805 14.2523 59.5997 14.094 59.513 13.8906C59.4096 13.648 59.3045 13.4101 59.1901 13.1724C59.0397 12.8601 58.9117 12.5218 58.5249 12.5218C58.309 12.5218 58.0775 12.4984 57.8646 12.541C57.8261 12.5487 57.5808 12.6875 57.6429 12.5989C57.7248 12.4818 57.8685 12.4104 57.9899 12.3434C58.2879 12.179 58.6136 12.0574 58.9539 12.0205C59.7139 11.9381 60.4431 12.3813 61.0553 12.782C61.1743 12.8599 61.2887 12.9688 61.4216 13.023C61.4835 13.0482 61.568 13.1107 61.6289 13.1242C61.7646 13.1544 61.9054 13.0853 62.0289 13.0423C62.2218 12.9752 62.4464 12.9338 62.6507 12.9218C62.9601 12.9036 62.8772 13.4502 62.8772 13.6303C62.8772 13.7832 62.8928 13.9465 62.8676 14.0978C62.8302 14.322 62.7184 14.5297 62.7037 14.7582C62.6643 15.3697 62.4282 15.8936 62.053 16.3873C61.8315 16.6787 61.6383 16.9965 61.4216 17.2934C61.2055 17.5896 60.9813 17.83 60.7276 18.0935C60.5819 18.2447 60.4711 18.4184 60.3083 18.5562C59.9402 18.8676 59.5763 19.0892 59.1419 19.2936C58.5531 19.5707 57.9749 19.835 57.3248 19.9154C56.7081 19.9916 56.1361 20.22 55.5222 20.3106C55.3796 20.3316 54.8335 20.5594 54.9149 20.2431C54.9723 20.0199 55.1564 19.8063 55.2956 19.631C55.5456 19.3162 55.8343 19.0191 56.1487 18.7683C56.4497 18.5281 56.7847 18.3374 57.1031 18.1224C57.7522 17.684 58.3748 17.2036 58.9828 16.7102C59.5627 16.2396 60.1075 15.7339 60.6215 15.1919C60.9405 14.8557 61.2286 14.4885 61.5759 14.1798C61.9054 13.8869 62.2945 13.6938 62.617 13.3893C62.7326 13.2801 62.7095 13.4495 62.6893 13.5339C62.6074 13.8751 62.3097 14.1661 62.0964 14.4304C61.5553 15.1011 60.9036 15.7028 60.2745 16.2909C59.7236 16.8058 59.2105 17.3795 58.5876 17.8091C58.2098 18.0697 57.7582 18.3152 57.4646 18.6767C57.3449 18.824 57.2202 19.053 57.5128 19.0237C57.7382 19.0012 57.9479 18.9192 58.1634 18.855C58.5887 18.7283 59.0237 18.6486 59.4455 18.508C60.1383 18.2771 60.81 17.9639 61.3349 17.4476C61.757 17.0324 62.2122 16.6881 62.6941 16.3439C62.8415 16.2386 62.9268 16.116 63.0507 15.992C63.1055 15.9373 63.1811 15.8867 63.2628 15.9101C63.4696 15.9692 63.186 16.5246 63.1375 16.5993C62.7999 17.1203 62.4383 17.5708 61.9615 17.9682C61.7034 18.1832 61.4386 18.3712 61.1421 18.5273C61.0242 18.5893 60.915 18.6649 60.7951 18.7249C60.7555 18.7447 60.6763 18.7833 60.636 18.8068C60.522 18.8733 60.6215 18.8228 60.6215 18.855" stroke="#308255" stroke-width="2" stroke-linecap="round"/>
<defs>
<clipPath id="clip0_493_200">
<rect width="46" height="47" fill="white" transform="translate(279 22)"/>
</clipPath>
</defs>
</svg>
