<svg width="50" height="50" viewBox="0 0 50 50" fill="none" xmlns="http://www.w3.org/2000/svg">
<path d="M43.252 18.7402H38.8379C39.4385 19.5117 39.7998 20.4785 39.7998 21.5283V31.001C39.7998 33.5059 37.749 35.5518 35.249 35.5518H24.126C24.7168 37.0654 26.1865 38.1445 27.9053 38.1445H43.252C45.4785 38.1445 47.3047 36.3232 47.3047 34.0918V22.793C47.2998 20.5615 45.4785 18.7402 43.252 18.7402Z" fill="#FFB89A"/>
<path d="M38.1201 28.4375V13.9795C38.1201 10.3564 35.1562 7.39258 31.5332 7.39258H9.67773C6.05469 7.39258 3.09082 10.3564 3.09082 13.9795V28.4375C3.09082 31.8799 5.7666 34.7217 9.13574 35C9.13574 35 8.15918 42.5879 9.375 42.5879C10.5908 42.5879 18.5742 35.0244 18.5742 35.0244H31.5283C35.1562 35.0244 38.1201 32.0606 38.1201 28.4375ZM17.4121 32.0947L16.5625 32.8955C16.5479 32.9102 14.8779 34.4922 12.9883 36.1719C12.5732 36.5381 12.1973 36.8701 11.8506 37.1729C11.9434 36.1523 12.041 35.3857 12.041 35.376L12.4316 32.334L9.375 32.0801C7.49512 31.9238 6.02051 30.3223 6.02051 28.4375V13.9795C6.02051 13.0078 6.40137 12.0947 7.09961 11.4014C7.79297 10.708 8.71094 10.3223 9.67773 10.3223H31.5332C32.5049 10.3223 33.418 10.7031 34.1113 11.4014C34.8047 12.0947 35.1904 13.0127 35.1904 13.9795V28.4375C35.1904 29.4092 34.8096 30.3223 34.1113 31.0156C33.418 31.709 32.5 32.0947 31.5332 32.0947H17.4121Z" fill="#45484C"/>
<path d="M40.542 16.499C39.751 16.3379 38.9746 16.8457 38.8135 17.6367C38.6523 18.4277 39.1602 19.2041 39.9512 19.3652C41.8555 19.7558 43.2373 21.4502 43.2373 23.3935V32.0361C43.2373 34.0674 41.7187 35.8203 39.707 36.1084L38.1103 36.3379L38.4912 37.9052C38.5889 38.3008 38.6816 38.7256 38.7744 39.1406C37.915 38.3398 36.9531 37.4219 36.0791 36.5674L35.6543 36.1474H27.4658C26.3965 36.1474 25.6787 36.0791 25.1611 35.7275C24.4922 35.2734 23.5791 35.4443 23.125 36.1133C22.6709 36.7822 22.8418 37.6953 23.5107 38.1494C24.7656 39.0039 26.2109 39.0771 27.4658 39.0771H34.458C34.9463 39.5508 35.791 40.3613 36.6553 41.167C37.4463 41.9043 38.1006 42.4902 38.5986 42.9199C39.5752 43.75 40.0293 44.0478 40.6299 44.0478C41.1035 44.0478 41.543 43.833 41.8408 43.457C42.334 42.8271 42.3389 42.0361 41.8652 39.6142C41.7969 39.2627 41.7236 38.9209 41.6553 38.6084C44.3115 37.5781 46.167 34.9804 46.167 32.0361V23.3935C46.1719 20.0732 43.8037 17.1728 40.542 16.499Z" fill="#45484C"/>
<path d="M21.2207 29.4336C19.4678 29.4336 17.7539 28.5986 16.3965 27.085C15.1953 25.7422 14.4775 24.0771 14.4775 22.6221V21.1719L15.9277 21.1572C15.9473 21.1572 17.6953 21.1377 20.5859 21.1377C21.3965 21.1377 22.0508 21.792 22.0508 22.6025C22.0508 23.4131 21.3965 24.0674 20.5859 24.0674C19.4971 24.0674 18.5742 24.0723 17.8418 24.0723C18.0273 24.4189 18.2715 24.7803 18.5791 25.127C19.3604 26.001 20.3223 26.499 21.2207 26.499C22.1191 26.499 23.0811 25.9961 23.8623 25.127C24.1797 24.7705 24.4287 24.3994 24.6143 24.043C23.9453 23.9062 23.4375 23.3105 23.4424 22.6025C23.4473 21.7969 24.1016 21.1426 24.9072 21.1426H24.9121C26.2354 21.1475 26.499 21.1523 26.5527 21.1572L27.9639 21.2109V22.6221C27.9639 24.0771 27.2461 25.7422 26.0449 27.085C24.6826 28.5986 22.9736 29.4336 21.2207 29.4336Z" fill="#33CC99"/>
</svg>
