<svg width="342" height="103" viewBox="0 0 342 103" fill="none" xmlns="http://www.w3.org/2000/svg">
<path d="M22.283 2.9771L22.283 46.5172C23.2652 44.4084 24.4929 42.1756 25.9662 39.8187C27.4394 37.3378 29.1582 35.105 31.1226 33.1203C33.0869 31.0115 35.3582 29.3369 37.9364 28.0964C40.5146 26.7319 43.3383 26.0496 46.4076 26.0496L46.4076 40.1909C43.5839 39.6947 40.7601 39.5707 37.9364 39.8187C35.6037 40.0668 33.1483 40.6871 30.5701 41.6794C27.9919 42.6718 25.7206 44.4084 23.7563 46.8894C23.5107 47.1375 23.2652 47.5096 23.0196 48.0058C22.7741 48.3779 22.5286 48.8121 22.283 49.3083L22.283 77.0325L31.675 77.0325C34.2532 77.0325 36.8314 76.2883 39.4096 74.7997C42.1106 73.3111 44.566 71.6365 46.7759 69.7758C49.2314 67.7911 51.6254 65.4342 53.9581 62.7052L53.9581 79.0793L-1.12516e-07 79.0793C0.491086 78.7071 0.920786 78.273 1.2891 77.7768C1.53464 77.1566 1.78019 76.4743 2.02573 75.73C2.27127 74.9858 2.39404 74.1175 2.39404 73.1251L2.39404 7.07062C2.39404 5.9542 2.27127 5.02386 2.02573 4.27958C1.78019 3.53531 1.53464 2.91508 1.2891 2.41889C0.920786 1.92271 0.491086 1.48855 -1.58846e-09 1.11641L37.9364 1.11641C37.9364 1.11641 44.1977 2.07334 48.1439 4.73146C52.0901 7.38959 53.9581 17.4905 53.9581 17.4905C51.6254 14.7615 48.1439 14.0349 45.5131 14.0349C42.8823 14.0349 40.2515 12.8854 36.9892 9.14396C35.3597 7.27505 34.9898 6.06053 33.6744 4.73146C33.6744 3.4024 31.8798 3.4024 31.0436 3.4024L22.283 2.9771Z" fill="#2D3319"/>
<path d="M85.905 80.0096C81.8535 80.0096 78.109 79.3894 74.6714 78.1489C71.2338 76.7844 68.2259 74.9238 65.6477 72.5669C63.1923 70.086 61.2279 67.1709 59.7547 63.8216C58.4042 60.4724 57.729 56.751 57.729 52.6575C57.729 46.9514 58.7725 42.3617 60.8596 38.8884C62.9468 35.2911 65.4022 32.5621 68.2259 30.7014C71.1724 28.7166 74.1189 27.4142 77.0655 26.7939C80.1348 26.0496 82.5902 25.6775 84.4318 25.6775C87.1327 25.6775 89.7109 25.8636 92.1664 26.2357C94.7446 26.4838 97.0158 26.8559 98.9802 27.3521C101.313 27.8483 103.523 28.4065 105.61 29.0267L105.61 44.4705C103.277 40.8731 100.822 37.772 98.2435 35.167C96.1564 32.9342 93.7624 31.0115 91.0614 29.3989C88.3604 27.6622 85.7209 27.104 83.1427 27.7243C80.5645 28.3445 78.7843 29.9571 77.8021 32.5621C76.9427 35.167 76.4516 37.9581 76.3288 40.9352C76.2061 44.5325 76.513 48.4399 77.2496 52.6575C78.2318 56.5029 79.5823 59.8522 81.3011 62.7052C82.8971 65.1861 84.9842 67.3569 87.5624 69.2176C90.1406 71.0783 93.3941 71.6986 97.3228 71.0783C98.6732 70.8302 99.8396 70.3961 100.822 69.7758C101.927 69.0316 102.909 68.2873 103.768 67.543C104.628 66.6747 105.487 65.6823 106.346 64.5659C105.61 67.419 104.382 69.9619 102.663 72.1947C101.19 74.1795 99.1029 75.9781 96.402 77.5907C93.8238 79.2033 90.3248 80.0096 85.905 80.0096Z" fill="#2D3319"/>
<path d="M138.239 25.8636C142.167 25.8636 145.789 26.6079 149.104 28.0964C152.542 29.4609 155.55 31.3836 158.128 33.8645C160.706 36.2214 162.732 39.0745 164.205 42.4237C165.678 45.773 166.415 49.3083 166.415 53.0296C166.415 56.751 165.678 60.2863 164.205 63.6356C162.732 66.9848 160.706 69.8999 158.128 72.3808C155.55 74.7377 152.542 76.6604 149.104 78.1489C145.789 79.5134 142.167 80.1957 138.239 80.1957C134.31 80.1957 130.627 79.5134 127.189 78.1489C123.752 76.6604 120.744 74.7377 118.166 72.3808C115.71 69.8999 113.746 66.9848 112.273 63.6356C110.799 60.2863 110.063 56.751 110.063 53.0296C110.063 49.3083 110.799 45.773 112.273 42.4237C113.746 39.0745 115.71 36.2214 118.166 33.8645C120.744 31.3836 123.752 29.4609 127.189 28.0964C130.627 26.6079 134.31 25.8636 138.239 25.8636ZM142.843 77.5907C144.193 77.3426 145.298 76.4743 146.158 74.9858C147.14 73.4972 147.815 71.5745 148.183 69.2176C148.674 66.7367 148.858 63.9457 148.736 60.8445C148.736 57.7434 148.429 54.4562 147.815 50.9829C147.201 47.6336 146.342 44.5325 145.237 41.6794C144.132 38.7023 142.904 36.2214 141.554 34.2367C140.326 32.1279 138.975 30.5773 137.502 29.585C136.152 28.4685 134.801 28.0344 133.451 28.2825C132.223 28.5306 131.118 29.3989 130.136 30.8874C129.276 32.376 128.601 34.3607 128.11 36.8416C127.742 39.1985 127.558 41.9275 127.558 45.0287C127.68 48.1298 128.049 51.355 128.663 54.7043C129.276 58.1775 130.136 61.4027 131.241 64.3798C132.346 67.2329 133.512 69.7138 134.74 71.8226C136.09 73.8073 137.441 75.3579 138.791 76.4743C140.264 77.4667 141.615 77.8388 142.843 77.5907Z" fill="#2D3319"/>
<path d="M170.314 20.2815C170.314 18.2968 170.621 16.126 171.235 13.7691C171.971 11.4122 173.322 9.24142 175.286 7.25668C177.25 5.1479 180.013 3.41126 183.573 2.04675C187.133 0.682251 191.737 2.72809e-07 197.385 2.80845e-07C201.191 2.8626e-07 204.751 0.124045 208.066 0.372133C211.381 0.496178 214.266 0.682248 216.721 0.930344C219.668 1.30248 222.43 1.67462 225.008 2.04675L225.008 22.3283C223.167 19.2271 221.018 16.4361 218.563 13.9552C216.108 11.4742 213.529 9.42749 210.828 7.81489C208.25 6.07825 205.611 4.77577 202.91 3.90745C200.331 2.91508 197.937 2.41889 195.727 2.41889C192.781 2.41889 190.571 3.22519 189.098 4.83779C187.502 6.69848 186.949 8.68321 187.44 10.792C187.931 12.9008 189.098 15.1956 190.939 17.6765C192.904 20.1575 195.421 22.7624 198.49 25.4914C201.559 28.0964 204.813 30.8874 208.25 33.8645C213.898 38.5783 218.256 42.6718 221.325 46.1451C224.517 49.4943 226.236 52.9676 226.482 56.565C226.85 61.6508 226.113 65.7443 224.272 68.8455C222.43 71.8226 220.036 74.1795 217.09 75.9161C214.266 77.5287 211.197 78.5831 207.882 79.0793C204.69 79.5755 201.927 79.8236 199.595 79.8236C196.648 79.8236 193.579 79.6995 190.387 79.4514C187.195 79.2033 184.187 78.9552 181.363 78.7072C178.171 78.4591 175.04 78.1489 171.971 77.7768L171.971 57.6814C174.795 61.6508 177.557 64.938 180.258 67.543C182.959 70.0239 185.537 72.0087 187.993 73.4972C190.448 74.8617 192.72 75.8541 194.807 76.4743C196.894 76.9705 198.735 77.2186 200.331 77.2186C201.682 77.2186 202.787 77.0946 203.646 76.8465C204.628 76.4743 205.426 76.1642 206.04 75.9161C208.618 74.4276 209.723 72.5669 209.355 70.3341C209.11 68.1012 208.312 65.9304 206.961 63.8216C205.365 61.4648 203.094 58.9838 200.147 56.3789L183.205 41.8655C179.644 38.7644 176.943 35.9113 175.102 33.3063C173.383 30.7014 172.155 28.4685 171.419 26.6078C170.559 24.251 170.191 22.1422 170.314 20.2815Z" fill="#2D3319"/>
<path d="M342 26.2357C341.632 26.4838 341.202 26.7939 340.711 27.1661C340.465 27.4142 340.097 27.7863 339.606 28.2825C339.238 28.7787 338.931 29.3989 338.685 30.1432C337.089 34.2367 335.309 38.5783 333.345 43.168L322.848 69.4037C321.866 71.6365 320.945 73.8694 320.085 76.1022C319.349 78.211 318.489 80.3818 317.507 82.6146C316.648 84.7234 315.481 86.9562 314.008 89.3131C312.535 91.67 310.816 93.8408 308.852 95.8255C306.887 97.9343 304.616 99.6089 302.038 100.849C299.582 102.214 296.759 102.896 293.567 102.896L293.567 89.6852C298.969 89.6852 303.204 89.127 306.274 88.0106C309.343 86.8942 311.737 85.6537 313.456 84.2892C315.42 82.8007 316.771 81.064 317.507 79.0793L308.483 79.0793L286.385 30.1432C285.893 28.7787 285.218 27.7863 284.359 27.1661C283.868 26.7939 283.438 26.4838 283.07 26.2357L306.089 26.2357C305.844 26.4838 305.598 26.7939 305.353 27.1661C305.23 27.4142 305.169 27.7863 305.169 28.2825C305.169 28.7787 305.291 29.3989 305.537 30.1432L322.295 66.7987L329.477 49.1222C330.951 45.1527 331.626 41.7415 331.503 38.8884C331.38 36.0353 330.951 33.6785 330.214 31.8178C329.355 29.585 328.188 27.7243 326.715 26.2357L342 26.2357Z" fill="#2D3319"/>
<path d="M258.552 25.8636C262.481 25.8636 266.103 26.6079 269.418 28.0964C272.855 29.4609 275.863 31.3836 278.441 33.8645C281.02 36.2214 283.045 39.0745 284.519 42.4237C285.992 45.773 286.728 49.3083 286.728 53.0296C286.728 56.751 285.992 60.2863 284.519 63.6356C283.045 66.9848 281.02 69.8999 278.441 72.3808C275.863 74.7377 272.855 76.6604 269.418 78.1489C266.103 79.5134 262.481 80.1957 258.552 80.1957C254.624 80.1957 250.941 79.5134 247.503 78.1489C244.065 76.6604 241.057 74.7377 238.479 72.3808C236.024 69.8999 234.059 66.9848 232.586 63.6356C231.113 60.2863 230.376 56.751 230.376 53.0296C230.376 49.3083 231.113 45.773 232.586 42.4237C234.059 39.0745 236.024 36.2214 238.479 33.8645C241.057 31.3836 244.065 29.4609 247.503 28.0964C250.941 26.6079 254.624 25.8636 258.552 25.8636Z" fill="#2D3319"/>
<path d="M268.284 61.8678C256.458 69.3329 245.735 60.2838 248.077 43.7354C248.242 42.5683 249.237 41.6771 250.444 41.6127C261.077 41.0446 267.549 45.1348 269.386 59.5081C269.504 60.4341 269.091 61.3588 268.284 61.8678Z" fill="#95CF74"/>
<path d="M272.837 61.8703C265.169 60.6415 261.029 60.392 256.833 52.8029L272.837 61.8703Z" fill="#95CF74"/>
<path d="M272.837 61.8703C265.169 60.6415 261.029 60.392 256.833 52.8029" stroke="#2D3319" stroke-width="0.8" stroke-linecap="round" stroke-linejoin="round"/>
</svg>
