<svg width="168" height="51" viewBox="0 0 168 51" fill="none" xmlns="http://www.w3.org/2000/svg">
<path d="M10.946 1.46243L10.946 22.8506C11.4285 21.8147 12.0316 20.7178 12.7553 19.5601C13.479 18.3414 14.3233 17.2446 15.2883 16.2696C16.2532 15.2337 17.3689 14.4111 18.6354 13.8017C19.9019 13.1315 21.289 12.7963 22.7967 12.7963L22.7967 19.7429C21.4096 19.4992 20.0225 19.4382 18.6354 19.5601C17.4895 19.682 16.2834 19.9866 15.0169 20.4741C13.7504 20.9616 12.6347 21.8147 11.6698 23.0334C11.5491 23.1552 11.4285 23.338 11.3079 23.5818C11.1873 23.7646 11.0667 23.9779 10.946 24.2216L10.946 37.8405L15.5597 37.8405C16.8262 37.8405 18.0926 37.4749 19.3591 36.7437C20.6859 36.0125 21.8921 35.1899 22.9776 34.2759C24.1838 33.3009 25.3598 32.1431 26.5057 30.8026L26.5057 38.846L-5.52711e-08 38.846C0.241235 38.6632 0.452316 38.4499 0.633242 38.2061C0.75386 37.9015 0.874477 37.5663 0.995095 37.2007C1.11571 36.8351 1.17602 36.4086 1.17602 35.9211L1.17602 3.47329C1.17602 2.92487 1.11571 2.46786 0.995095 2.10225C0.874477 1.73664 0.75386 1.43197 0.633242 1.18823C0.452316 0.944488 0.241235 0.731216 -7.80296e-10 0.548412L18.6354 0.548412C18.6354 0.548412 21.7111 1.01848 23.6496 2.32423C25.5881 3.62997 26.5057 8.59181 26.5057 8.59181C25.3598 7.25125 23.6496 6.89434 22.3573 6.89434C21.065 6.89434 19.7726 6.32968 18.1701 4.49177C17.3697 3.57371 17.188 2.9771 16.5418 2.32423C16.5418 1.67135 15.6602 1.67135 15.2495 1.67135L10.946 1.46243Z" fill="#2D3319"/>
<path d="M42.1989 39.303C40.2088 39.303 38.3693 38.9983 36.6807 38.389C34.9921 37.7187 33.5145 36.8046 32.248 35.6469C31.0418 34.4282 30.0769 32.9962 29.3532 31.351C28.6898 29.7057 28.3581 27.8777 28.3581 25.8668C28.3581 23.0638 28.8707 20.8093 29.896 19.1031C30.9212 17.336 32.1274 15.9954 33.5145 15.0814C34.9619 14.1064 36.4093 13.4666 37.8567 13.1619C39.3644 12.7963 40.5706 12.6135 41.4752 12.6135C42.802 12.6135 44.0685 12.7049 45.2747 12.8877C46.5412 13.0096 47.6569 13.1924 48.6218 13.4361C49.7677 13.6799 50.8533 13.9541 51.8785 14.2588L51.8785 21.8451C50.7326 20.078 49.5265 18.5547 48.26 17.275C47.2347 16.1782 46.0587 15.2337 44.7319 14.4416C43.4051 13.5885 42.1085 13.3143 40.842 13.6189C39.5755 13.9236 38.701 14.7158 38.2186 15.9954C37.7964 17.275 37.5552 18.6461 37.4949 20.1085C37.4346 21.8756 37.5853 23.7951 37.9472 25.8668C38.4297 27.7558 39.093 29.4011 39.9374 30.8026C40.7214 32.0213 41.7466 33.0876 43.0131 34.0016C44.2796 34.9157 45.8778 35.2203 47.8077 34.9157C48.4711 34.7938 49.044 34.5805 49.5265 34.2759C50.0692 33.9102 50.5517 33.5446 50.9739 33.179C51.396 32.7525 51.8182 32.265 52.2404 31.7166C51.8785 33.1181 51.2754 34.3673 50.4311 35.4641C49.7074 36.439 48.6821 37.3226 47.3554 38.1147C46.0889 38.9069 44.3701 39.303 42.1989 39.303Z" fill="#2D3319"/>
<path d="M67.9068 12.7049C69.8366 12.7049 71.6157 13.0705 73.2441 13.8017C74.9327 14.472 76.4103 15.4165 77.6768 16.6352C78.9433 17.793 79.9384 19.1945 80.6621 20.8397C81.3858 22.485 81.7476 24.2216 81.7476 26.0496C81.7476 27.8777 81.3858 29.6143 80.6621 31.2596C79.9384 32.9048 78.9433 34.3368 77.6768 35.5555C76.4103 36.7132 74.9327 37.6577 73.2441 38.389C71.6157 39.0592 69.8366 39.3944 67.9068 39.3944C65.9769 39.3944 64.1676 39.0592 62.479 38.389C60.7903 37.6577 59.3128 36.7132 58.0463 35.5555C56.8401 34.3368 55.8751 32.9048 55.1514 31.2596C54.4277 29.6143 54.0659 27.8777 54.0659 26.0496C54.0659 24.2216 54.4277 22.485 55.1514 20.8397C55.8751 19.1945 56.8401 17.793 58.0463 16.6352C59.3128 15.4165 60.7903 14.472 62.479 13.8017C64.1676 13.0705 65.9769 12.7049 67.9068 12.7049ZM70.1683 38.1147C70.8317 37.9929 71.3745 37.5663 71.7967 36.8351C72.2791 36.1039 72.6108 35.1594 72.7918 34.0016C73.033 32.783 73.1235 31.4119 73.0631 29.8885C73.0631 28.3652 72.9124 26.7504 72.6108 25.0442C72.3093 23.399 71.8871 21.8756 71.3443 20.4741C70.8016 19.0117 70.1985 17.793 69.5351 16.818C68.932 15.7821 68.2686 15.0204 67.5449 14.533C66.8815 13.9845 66.2181 13.7713 65.5547 13.8931C64.9516 14.015 64.4088 14.4416 63.9264 15.1728C63.5042 15.904 63.1725 16.879 62.9313 18.0976C62.7503 19.2554 62.6599 20.596 62.6599 22.1193C62.7202 23.6427 62.9011 25.227 63.2027 26.8723C63.5042 28.5784 63.9264 30.1628 64.4691 31.6252C65.0119 33.0267 65.5849 34.2454 66.188 35.2813C66.8513 36.2562 67.5147 37.0179 68.1781 37.5663C68.9018 38.0538 69.5652 38.2366 70.1683 38.1147Z" fill="#2D3319"/>
<path d="M83.6629 9.96285C83.6629 8.98789 83.8137 7.92153 84.1152 6.76377C84.4771 5.60601 85.1405 4.53964 86.1054 3.56469C87.0703 2.52879 88.4273 1.67571 90.1762 1.00542C91.9252 0.335141 94.1868 1.34012e-07 96.961 1.37959e-07C98.8306 1.40619e-07 100.58 0.0609342 102.208 0.182802C103.836 0.243736 105.253 0.335139 106.46 0.457011C107.907 0.639815 109.264 0.822619 110.53 1.00542L110.53 10.9683C109.626 9.4449 108.57 8.07387 107.364 6.85517C106.158 5.63647 104.892 4.63105 103.565 3.8389C102.298 2.98581 101.002 2.34599 99.6749 1.91945C98.4084 1.43197 97.2324 1.18823 96.1468 1.18823C94.6994 1.18823 93.6138 1.5843 92.8901 2.37646C92.1061 3.29048 91.8347 4.26544 92.076 5.30133C92.3172 6.33722 92.8901 7.46452 93.7948 8.68322C94.7597 9.90191 95.996 11.1815 97.5038 12.5221C99.0115 13.8017 100.61 15.1728 102.298 16.6352C105.073 18.9507 107.213 20.9616 108.721 22.6678C110.289 24.313 111.134 26.0192 111.254 27.7863C111.435 30.2846 111.073 32.2955 110.169 33.8188C109.264 35.2813 108.088 36.439 106.641 37.2921C105.253 38.0843 103.746 38.6022 102.117 38.846C100.549 39.0897 99.1924 39.2116 98.0465 39.2116C96.5991 39.2116 95.0914 39.1506 93.5234 39.0288C91.9553 38.9069 90.4778 38.785 89.0907 38.6632C87.5226 38.5413 85.9848 38.389 84.4771 38.2061L84.4771 28.3347C85.8642 30.2846 87.2211 31.8994 88.5479 33.179C89.8747 34.3977 91.1412 35.3727 92.3474 36.1039C93.5535 36.7742 94.6692 37.2617 95.6945 37.5663C96.7197 37.8101 97.6244 37.9319 98.4084 37.9319C99.0718 37.9319 99.6146 37.871 100.037 37.7491C100.519 37.5663 100.911 37.414 101.213 37.2921C102.479 36.5609 103.022 35.6469 102.841 34.5501C102.72 33.4532 102.328 32.3869 101.665 31.351C100.881 30.1932 99.7653 28.9745 98.3179 27.6949L89.9953 20.5655C88.2464 19.0421 86.9196 17.6406 86.0149 16.361C85.1706 15.0814 84.5675 13.9845 84.2057 13.0705C83.7835 11.9128 83.6026 10.8769 83.6629 9.96285Z" fill="#2D3319"/>
<path d="M168 12.8877C167.819 13.0096 167.608 13.1619 167.367 13.3447C167.246 13.4666 167.065 13.6494 166.824 13.8931C166.643 14.1369 166.492 14.4416 166.372 14.8072C165.588 16.818 164.713 18.9507 163.748 21.2053L158.592 34.093C158.109 35.1899 157.657 36.2867 157.235 37.3835C156.873 38.4194 156.451 39.4858 155.968 40.5826C155.546 41.6185 154.973 42.7153 154.25 43.8731C153.526 45.0309 152.682 46.0972 151.717 47.0722C150.752 48.1081 149.636 48.9307 148.37 49.54C147.163 50.2103 145.776 50.5455 144.208 50.5455L144.208 44.0559C146.862 44.0559 148.942 43.7817 150.45 43.2333C151.958 42.6849 153.134 42.0755 153.978 41.4052C154.943 40.674 155.607 39.8209 155.968 38.846L151.536 38.846L140.68 14.8072C140.439 14.1369 140.107 13.6494 139.685 13.3447C139.444 13.1619 139.233 13.0096 139.052 12.8877L150.36 12.8877C150.239 13.0096 150.118 13.1619 149.998 13.3447C149.938 13.4666 149.907 13.6494 149.907 13.8931C149.907 14.1369 149.968 14.4416 150.088 14.8072L158.32 32.8134L161.849 24.1302C162.572 22.1803 162.904 20.5046 162.844 19.1031C162.783 17.7016 162.572 16.5438 162.21 15.6298C161.788 14.533 161.215 13.6189 160.492 12.8877L168 12.8877Z" fill="#2D3319"/>
<path d="M127.008 12.7049C128.938 12.7049 130.717 13.0705 132.346 13.8017C134.034 14.472 135.512 15.4165 136.778 16.6352C138.045 17.793 139.04 19.1945 139.763 20.8397C140.487 22.485 140.849 24.2216 140.849 26.0496C140.849 27.8777 140.487 29.6143 139.763 31.2596C139.04 32.9048 138.045 34.3368 136.778 35.5555C135.512 36.7132 134.034 37.6577 132.346 38.389C130.717 39.0592 128.938 39.3944 127.008 39.3944C125.078 39.3944 123.269 39.0592 121.58 38.389C119.892 37.6577 118.414 36.7132 117.148 35.5555C115.942 34.3368 114.977 32.9048 114.253 31.2596C113.529 29.6143 113.167 27.8777 113.167 26.0496C113.167 24.2216 113.529 22.485 114.253 20.8397C114.977 19.1945 115.942 17.793 117.148 16.6352C118.414 15.4165 119.892 14.472 121.58 13.8017C123.269 13.0705 125.078 12.7049 127.008 12.7049Z" fill="#2D3319"/>
<path d="M131.788 30.3917C125.979 34.0587 120.711 29.6136 121.862 21.4845C121.943 20.9112 122.432 20.4734 123.025 20.4418C128.248 20.1627 131.427 22.1719 132.329 29.2325C132.387 29.6874 132.184 30.1416 131.788 30.3917Z" fill="#95CF74"/>
<path d="M134.025 30.3922C130.259 29.7886 128.225 29.6661 126.164 25.9381Z" fill="#95CF74"/>
<path d="M134.025 30.3922C130.259 29.7886 128.225 29.6661 126.164 25.9381" stroke="#2D3319" stroke-width="0.8" stroke-linecap="round" stroke-linejoin="round"/>
</svg>
