<svg width="260" height="86" viewBox="0 0 260 86" fill="none" xmlns="http://www.w3.org/2000/svg">
<path d="M16.9403 2.48824L16.9403 38.8788C17.687 37.1163 18.6203 35.2502 19.7404 33.2803C20.8604 31.2068 22.1671 29.3406 23.6604 27.6817C25.1538 25.9192 26.8805 24.5196 28.8405 23.4828C30.8006 22.3424 32.9473 21.7722 35.2806 21.7722L35.2806 33.5913C33.1339 33.1766 30.9872 33.0729 28.8405 33.2803C27.0672 33.4876 25.2005 34.006 23.2404 34.8354C21.2804 35.6649 19.5537 37.1163 18.0603 39.1899C17.8737 39.3972 17.687 39.7083 17.5003 40.123C17.3136 40.434 17.127 40.7969 16.9403 41.2116L16.9403 64.3834L24.0804 64.3834C26.0405 64.3834 28.0005 63.7613 29.9605 62.5172C32.0139 61.2731 33.8806 59.8734 35.5606 58.3183C37.4273 56.6594 39.2474 54.6896 41.0207 52.4087L41.0207 66.094L-9.40405e-08 66.094C0.37334 65.783 0.700013 65.4201 0.980018 65.0054C1.16669 64.487 1.35336 63.9168 1.54003 63.2948C1.7267 62.6727 1.82003 61.947 1.82003 61.1175L1.82003 5.90958C1.82003 4.97649 1.7267 4.19891 1.54003 3.57685C1.35336 2.95479 1.16669 2.43641 0.980018 2.0217C0.700013 1.60699 0.37334 1.24412 -1.32763e-09 0.93309L28.8405 0.93309C28.8405 0.93309 33.6006 1.73288 36.6006 3.95453C39.6007 6.17618 41.0207 14.6184 41.0207 14.6184C39.2474 12.3376 36.6006 11.7303 34.6006 11.7303C32.6006 11.7303 30.6005 10.7696 28.1205 7.64247C26.8816 6.08045 26.6005 5.06536 25.6004 3.95453C25.6004 2.84371 24.2361 2.84371 23.6004 2.84371L16.9403 2.48824Z" fill="black"/>
<path d="M65.3079 66.8716C62.2278 66.8716 59.3811 66.3532 56.7677 65.3165C54.1544 64.176 51.8677 62.6209 49.9076 60.651C48.0409 58.5775 46.5476 56.1411 45.4275 53.3418C44.4009 50.5425 43.8875 47.4322 43.8875 44.0109C43.8875 39.2417 44.6809 35.4057 46.2676 32.5027C47.8543 29.4961 49.721 27.2152 51.8677 25.66C54.1077 24.0012 56.3477 22.9126 58.5878 22.3942C60.9212 21.7722 62.7879 21.4611 64.1879 21.4611C66.2413 21.4611 68.2013 21.6166 70.068 21.9277C72.028 22.135 73.7547 22.4461 75.2481 22.8608C77.0215 23.2755 78.7015 23.742 80.2882 24.2604L80.2882 37.1682C78.5148 34.1615 76.6481 31.5696 74.6881 29.3924C73.1014 27.5262 71.2813 25.9192 69.228 24.5714C67.1746 23.12 65.1679 22.6534 63.2079 23.1718C61.2478 23.6902 59.8945 25.038 59.1478 27.2152C58.4944 29.3924 58.1211 31.7251 58.0278 34.2134C57.9344 37.22 58.1678 40.4858 58.7278 44.0109C59.4745 47.2248 60.5011 50.0241 61.8078 52.4087C63.0212 54.4822 64.6079 56.2966 66.5679 57.8517C68.528 59.4069 71.0013 59.9253 73.9881 59.4069C75.0147 59.1995 75.9014 58.8367 76.6481 58.3183C77.4881 57.6962 78.2348 57.0741 78.8881 56.4521C79.5415 55.7263 80.1948 54.8969 80.8482 53.9638C80.2882 56.3484 79.3548 58.4738 78.0481 60.34C76.9281 61.9988 75.3414 63.5021 73.288 64.8499C71.328 66.1977 68.668 66.8716 65.3079 66.8716Z" fill="black"/>
<path d="M105.094 21.6166C108.081 21.6166 110.834 22.2387 113.354 23.4828C115.967 24.6233 118.254 26.2303 120.214 28.3038C122.174 30.2737 123.714 32.6582 124.834 35.4575C125.954 38.2568 126.514 41.2116 126.514 44.3219C126.514 47.4322 125.954 50.387 124.834 53.1863C123.714 55.9855 122.174 58.4219 120.214 60.4955C118.254 62.4653 115.967 64.0723 113.354 65.3165C110.834 66.4569 108.081 67.0271 105.094 67.0271C102.107 67.0271 99.307 66.4569 96.6936 65.3165C94.0803 64.0723 91.7935 62.4653 89.8335 60.4955C87.9668 58.4219 86.4734 55.9855 85.3534 53.1863C84.2334 50.387 83.6734 47.4322 83.6734 44.3219C83.6734 41.2116 84.2334 38.2568 85.3534 35.4575C86.4734 32.6582 87.9668 30.2737 89.8335 28.3038C91.7935 26.2303 94.0803 24.6233 96.6936 23.4828C99.307 22.2387 102.107 21.6166 105.094 21.6166ZM108.594 64.8499C109.621 64.6426 110.461 63.9168 111.114 62.6727C111.861 61.4286 112.374 59.8216 112.654 57.8517C113.027 55.7782 113.167 53.4455 113.074 50.8535C113.074 48.2616 112.841 45.5142 112.374 42.6112C111.907 39.8119 111.254 37.22 110.414 34.8354C109.574 32.3472 108.641 30.2737 107.614 28.6148C106.68 26.8523 105.654 25.5564 104.534 24.7269C103.507 23.7939 102.48 23.431 101.454 23.6383C100.52 23.8457 99.6804 24.5714 98.9337 25.8156C98.2803 27.0597 97.767 28.7185 97.3936 30.792C97.1136 32.7619 96.9736 35.0428 96.9736 37.6347C97.067 40.2266 97.347 42.9222 97.8136 45.7215C98.2803 48.6245 98.9337 51.3201 99.7737 53.8083C100.614 56.1929 101.5 58.2664 102.434 60.0289C103.46 61.6878 104.487 62.9837 105.514 63.9168C106.634 64.7462 107.66 65.0573 108.594 64.8499Z" fill="black"/>
<path d="M129.478 16.9512C129.478 15.2923 129.712 13.478 130.178 11.5081C130.738 9.53827 131.765 7.72393 133.258 6.0651C134.752 4.30259 136.852 2.85111 139.558 1.71067C142.265 0.570222 145.765 2.07399e-07 150.059 2.13508e-07C152.952 2.17625e-07 155.659 0.103676 158.179 0.311027C160.699 0.414703 162.892 0.570219 164.759 0.777576C166.999 1.08861 169.099 1.39964 171.059 1.71067L171.059 18.6618C169.659 16.0699 168.026 13.7372 166.159 11.6637C164.292 9.59011 162.332 7.87944 160.279 6.53165C158.319 5.08017 156.312 3.99156 154.259 3.26582C152.299 2.43641 150.479 2.0217 148.799 2.0217C146.559 2.0217 144.879 2.6956 143.759 4.0434C142.545 5.59855 142.125 7.25738 142.499 9.01989C142.872 10.7824 143.759 12.7004 145.159 14.774C146.652 16.8475 148.565 19.0247 150.899 21.3056C153.232 23.4828 155.705 25.8156 158.319 28.3038C162.612 32.2435 165.926 35.6649 168.259 38.5678C170.686 41.3671 171.992 44.27 172.179 47.2767C172.459 51.5274 171.899 54.9488 170.499 57.5407C169.099 60.0289 167.279 61.9988 165.039 63.4503C162.892 64.7981 160.559 65.6793 158.039 66.094C155.612 66.5087 153.512 66.7161 151.739 66.7161C149.499 66.7161 147.165 66.6124 144.739 66.4051C142.312 66.1977 140.025 65.9904 137.878 65.783C135.452 65.5757 133.072 65.3165 130.738 65.0054L130.738 48.2098C132.885 51.5274 134.985 54.2749 137.038 56.4521C139.092 58.5256 141.052 60.1845 142.919 61.4286C144.785 62.569 146.512 63.3984 148.099 63.9168C149.685 64.3315 151.085 64.5389 152.299 64.5389C153.325 64.5389 154.165 64.4352 154.819 64.2279C155.565 63.9168 156.172 63.6576 156.639 63.4503C158.599 62.2062 159.439 60.651 159.159 58.7848C158.972 56.9186 158.365 55.1043 157.339 53.3418C156.125 51.3719 154.399 49.2984 152.159 47.1212L139.278 34.991C136.572 32.399 134.518 30.0145 133.118 27.8373C131.812 25.66 130.878 23.7939 130.318 22.2387C129.665 20.2688 129.385 18.5063 129.478 16.9512Z" fill="black"/>
<path d="M260 21.9277C259.72 22.135 259.393 22.3942 259.02 22.7052C258.833 22.9126 258.553 23.2236 258.18 23.6383C257.9 24.053 257.667 24.5714 257.48 25.1935C256.267 28.6148 254.913 32.2435 253.42 36.0796L245.44 58.0072C244.693 59.8734 243.993 61.7396 243.34 63.6058C242.78 65.3683 242.126 67.1826 241.38 69.0488C240.726 70.8113 239.84 72.6775 238.72 74.6474C237.6 76.6173 236.293 78.4316 234.8 80.0904C233.306 81.8529 231.58 83.2526 229.619 84.2893C227.753 85.4298 225.606 86 223.179 86L223.179 74.9584C227.286 74.9584 230.506 74.4919 232.84 73.5588C235.173 72.6257 236.993 71.5889 238.3 70.4485C239.793 69.2043 240.82 67.7529 241.38 66.094L234.52 66.094L217.719 25.1935C217.346 24.053 216.833 23.2236 216.179 22.7052C215.806 22.3942 215.479 22.135 215.199 21.9277L232.7 21.9277C232.513 22.135 232.326 22.3942 232.14 22.7052C232.046 22.9126 232 23.2236 232 23.6383C232 24.053 232.093 24.5714 232.28 25.1935L245.02 55.83L250.48 41.0561C251.6 37.7384 252.113 34.8873 252.02 32.5027C251.927 30.1181 251.6 28.1483 251.04 26.5931C250.387 24.7269 249.5 23.1718 248.38 21.9277L260 21.9277Z" fill="black"/>
<path d="M196.56 21.6166C199.547 21.6166 202.3 22.2387 204.82 23.4828C207.434 24.6233 209.721 26.2303 211.681 28.3038C213.641 30.2737 215.181 32.6582 216.301 35.4575C217.421 38.2568 217.981 41.2116 217.981 44.3219C217.981 47.4322 217.421 50.387 216.301 53.1863C215.181 55.9855 213.641 58.4219 211.681 60.4955C209.721 62.4653 207.434 64.0723 204.82 65.3165C202.3 66.4569 199.547 67.0271 196.56 67.0271C193.574 67.0271 190.774 66.4569 188.16 65.3165C185.547 64.0723 183.26 62.4653 181.3 60.4955C179.433 58.4219 177.94 55.9855 176.82 53.1863C175.7 50.387 175.14 47.4322 175.14 44.3219C175.14 41.2116 175.7 38.2568 176.82 35.4575C177.94 32.6582 179.433 30.2737 181.3 28.3038C183.26 26.2303 185.547 24.6233 188.16 23.4828C190.774 22.2387 193.574 21.6166 196.56 21.6166Z" fill="black"/>
<path d="M203.958 51.709C194.967 57.9482 186.815 50.3851 188.596 36.554C188.721 35.5786 189.478 34.8337 190.395 34.7799C198.479 34.3051 203.398 37.7236 204.795 49.7368C204.885 50.5107 204.571 51.2835 203.958 51.709Z" fill="#95CF74"/>
<path d="M207.419 51.711C201.59 50.684 198.442 50.4755 195.252 44.1325L207.419 51.711Z" fill="#95CF74"/>
<path d="M207.419 51.711C201.59 50.684 198.442 50.4755 195.252 44.1325" stroke="black" stroke-width="0.8" stroke-linecap="round" stroke-linejoin="round"/>
</svg>
