<svg width="202" height="94" viewBox="0 0 202 94" fill="none" xmlns="http://www.w3.org/2000/svg">
<g filter="url(#filter0_d_493_213)">
<path d="M153.874 41.5655C153.874 39.568 153.37 37.995 152.362 36.8464C151.377 35.6979 150.04 35.1236 148.352 35.1236C147.203 35.1236 146.147 35.4607 145.186 36.1348C144.248 36.784 143.497 37.6829 142.935 38.8315C142.395 39.98 142.126 41.2409 142.126 42.6142V54H141V34.412H142.126V38.794C142.712 37.3458 143.58 36.1848 144.729 35.3109C145.901 34.437 147.191 34 148.598 34C150.497 34 152.034 34.6866 153.206 36.0599C154.402 37.4082 155 39.2185 155 41.4906V54H153.874V41.5655Z" fill="#F28149"/>
<path d="M127.418 54C125.514 54 123.962 53.3596 122.763 52.0787C121.588 50.774 121 49.0424 121 46.8839V35H122.128V46.8127C122.128 48.7104 122.622 50.2047 123.61 51.2959C124.62 52.387 125.961 52.9326 127.63 52.9326C128.782 52.9326 129.828 52.6242 130.768 52.0075C131.732 51.367 132.484 50.5012 133.025 49.4101C133.589 48.319 133.872 47.1211 133.872 45.8165V35H135V53.6086H133.907L133.872 49.4813C133.284 50.8571 132.414 51.9601 131.262 52.7903C130.11 53.5968 128.829 54 127.418 54Z" fill="#F28149"/>
<path d="M108.235 54C106.333 54 104.623 53.4478 103.106 52.3435C101.613 51.2151 100.578 49.5706 100 47.41L101.084 47.0859C101.637 49.0305 102.552 50.4829 103.828 51.4432C105.129 52.3795 106.597 52.8477 108.235 52.8477C110.185 52.8477 111.762 52.3555 112.966 51.3712C114.194 50.3629 114.808 49.0545 114.808 47.446C114.808 45.8135 114.194 44.5171 112.966 43.5568C111.762 42.5965 110.089 41.7682 107.946 41.072C106.453 40.5919 105.213 40.0757 104.226 39.5235C103.239 38.9714 102.444 38.2632 101.842 37.3989C101.24 36.5346 100.939 35.4543 100.939 34.1579C100.939 32.9815 101.252 31.9252 101.878 30.9889C102.504 30.0526 103.371 29.3204 104.479 28.7922C105.61 28.2641 106.898 28 108.343 28C110.077 28 111.63 28.4801 113.002 29.4404C114.375 30.4007 115.35 31.8292 115.928 33.7258L114.808 34.0139C114.278 32.3813 113.436 31.169 112.28 30.3767C111.124 29.5605 109.812 29.1524 108.343 29.1524C106.489 29.1524 104.984 29.6205 103.828 30.5568C102.697 31.4691 102.131 32.6694 102.131 34.1579C102.131 35.2622 102.396 36.1745 102.926 36.8947C103.455 37.615 104.141 38.1911 104.984 38.6233C105.851 39.0554 106.983 39.4995 108.379 39.9557C110.691 40.7239 112.533 41.6962 113.905 42.8726C115.302 44.0249 116 45.5374 116 47.41C116 48.6824 115.663 49.8227 114.989 50.831C114.339 51.8393 113.424 52.6196 112.244 53.1717C111.064 53.7239 109.728 54 108.235 54Z" fill="#F28149"/>
<path d="M87.6238 54C85.9255 54 84.3451 53.5963 82.8827 52.789C81.4202 51.9817 80.2408 50.8196 79.3445 49.3028C78.4482 47.7859 78 46.0122 78 43.9817C78 42.0734 78.4128 40.3609 79.2384 38.844C80.0639 37.3272 81.2079 36.1407 82.6704 35.2844C84.1328 34.4281 85.784 34 87.6238 34C89.3222 34 90.879 34.3792 92.2942 35.1376C93.7095 35.8716 94.8417 36.9847 95.6909 38.4771C96.5636 39.945 97 41.7309 97 43.8349C97 44.1284 96.9882 44.3486 96.9646 44.4954H79.0968C79.1676 46.208 79.604 47.7003 80.406 48.9725C81.2315 50.2447 82.2694 51.2232 83.5196 51.9083C84.7933 52.5688 86.1614 52.8991 87.6238 52.8991C89.2042 52.8991 90.6549 52.5566 91.9758 51.8716C93.2967 51.1621 94.3818 50.0856 95.2309 48.6422L96.1155 49.2661C95.1484 50.8563 93.9218 52.0428 92.4358 52.8257C90.9733 53.6086 89.3693 54 87.6238 54ZM95.9032 43.4312C95.856 41.5963 95.4432 40.055 94.6648 38.8073C93.91 37.5352 92.9193 36.5933 91.6927 35.9817C90.4662 35.37 89.1099 35.0642 87.6238 35.0642C86.0435 35.0642 84.6164 35.419 83.3426 36.1284C82.0689 36.8379 81.0546 37.8287 80.2998 39.1009C79.5686 40.3731 79.1676 41.8165 79.0968 43.4312H95.9032Z" fill="#505168"/>
<path d="M72 27H73V54H72V27Z" fill="#505168"/>
<path d="M64.9123 50.6239C64.3509 51.6758 63.5322 52.5076 62.4561 53.1193C61.4035 53.7064 60.1988 54 58.8421 54C57.5322 54 56.3509 53.7187 55.2982 53.156C54.269 52.5933 53.462 51.8226 52.8772 50.844C52.2924 49.841 52 48.7278 52 47.5046C52 46.2569 52.2924 45.1437 52.8772 44.1651C53.4854 43.1865 54.3041 42.4281 55.3333 41.8899C56.386 41.3272 57.5556 41.0459 58.8421 41.0459C60.1988 41.0459 61.4035 41.3395 62.4561 41.9266C63.5088 42.5138 64.3158 43.3211 64.8772 44.3486V40.8624C64.8772 39.1009 64.3626 37.7064 63.3333 36.6789C62.3041 35.6269 60.9123 35.1009 59.1579 35.1009C58.1287 35.1009 57.1111 35.2966 56.1053 35.6881C55.0994 36.055 54.152 36.6055 53.2632 37.3395L52.7018 36.3853C53.6842 35.6024 54.7368 35.0153 55.8596 34.6239C56.9825 34.208 58.0819 34 59.1579 34C61.2164 34 62.8655 34.6239 64.1053 35.8716C65.3684 37.1193 66 38.7829 66 40.8624V53.5963H64.9825L64.9123 50.6239ZM58.9825 52.9358C60.7135 52.9358 62.1287 52.4343 63.2281 51.4312C64.3275 50.4037 64.8772 49.0948 64.8772 47.5046C64.8772 45.9144 64.3275 44.6177 63.2281 43.6147C62.1287 42.5872 60.7135 42.0734 58.9825 42.0734C57.2515 42.0734 55.8363 42.5749 54.7368 43.578C53.6608 44.581 53.1228 45.8899 53.1228 47.5046C53.1228 49.0948 53.6725 50.4037 54.7719 51.4312C55.8713 52.4343 57.2749 52.9358 58.9825 52.9358Z" fill="#505168"/>
<path d="M36.239 54C33.7138 54 31.446 53.4478 29.4356 52.3435C27.4253 51.2151 25.8439 49.6667 24.6917 47.6981C23.5639 45.7295 23 43.5208 23 41.072C23 38.5993 23.5639 36.3666 24.6917 34.374C25.8439 32.3813 27.4253 30.8209 29.4356 29.6925C31.446 28.5642 33.7016 28 36.2023 28C38.9236 28 41.2527 28.6002 43.1895 29.8006C45.1509 31.0009 46.6954 32.7054 47.8232 34.9141L46.7567 35.3823C44.6238 31.229 41.1179 29.1524 36.239 29.1524C33.959 29.1524 31.8996 29.6685 30.0608 30.7008C28.2466 31.7091 26.8246 33.1256 25.7949 34.9501C24.7652 36.7507 24.2504 38.7913 24.2504 41.072C24.2504 43.3287 24.7652 45.3573 25.7949 47.1579C26.8246 48.9344 28.2466 50.3269 30.0608 51.3352C31.8996 52.3435 33.959 52.8477 36.239 52.8477C38.323 52.8477 40.2108 52.3915 41.9024 51.4792C43.5941 50.5429 44.9547 49.2585 45.9844 47.626C47.0141 45.9695 47.6025 44.085 47.7496 41.9723H35.7242V40.892H49L48.9632 41.5402C48.8161 43.9889 48.1787 46.1616 47.0509 48.0582C45.9232 49.9307 44.4154 51.3952 42.5276 52.4515C40.6643 53.4838 38.5681 54 36.239 54Z" fill="#505168"/>
<path fill-rule="evenodd" clip-rule="evenodd" d="M144.409 0C145.187 0 145.818 0.626165 145.818 1.39858V5.73426C145.818 6.50668 145.187 7.13284 144.409 7.13284C143.631 7.13284 143 6.50668 143 5.73426V1.39858C143 0.626165 143.631 0 144.409 0ZM183.221 13.7258C183.689 14.3428 183.565 15.2196 182.944 15.6844L178.223 19.2141C177.602 19.6789 176.719 19.5554 176.251 18.9385C175.783 18.3215 175.907 17.4446 176.528 16.9799L181.249 13.4501C181.87 12.9854 182.753 13.1088 183.221 13.7258ZM143 22.4863C143 21.7139 143.631 21.0877 144.409 21.0877C158.002 21.0877 167.73 32.4053 167.73 42.7492C167.73 47.9472 165.278 53.617 161.2 57.9759C157.105 62.3538 151.27 65.5141 144.409 65.5141C143.631 65.5141 143 64.888 143 64.1156C143 63.3432 143.631 62.717 144.409 62.717C150.356 62.717 155.477 59.9831 159.136 56.0724C162.812 52.1426 164.913 47.1292 164.913 42.7492C164.913 33.9369 156.433 23.8849 144.409 23.8849C143.631 23.8849 143 23.2587 143 22.4863ZM189.384 42.7492C189.384 41.9768 190.015 41.3506 190.793 41.3506H196.591C197.369 41.3506 198 41.9768 198 42.7492C198 43.5216 197.369 44.1478 196.591 44.1478H190.793C190.015 44.1478 189.384 43.5216 189.384 42.7492ZM176.249 66.5805C176.715 65.9624 177.598 65.8369 178.221 66.3001L182.941 69.8125C183.564 70.2758 183.69 71.1523 183.223 71.7704C182.757 72.3885 181.874 72.514 181.251 72.0507L176.531 68.5384C175.908 68.0751 175.782 67.1985 176.249 66.5805ZM144.409 78.8671C145.187 78.8671 145.818 79.4933 145.818 80.2657V84.6014C145.818 85.3738 145.187 86 144.409 86C143.631 86 143 85.3738 143 84.6014V80.2657C143 79.4933 143.631 78.8671 144.409 78.8671Z" fill="#F28149"/>
<path fill-rule="evenodd" clip-rule="evenodd" d="M36.2896 11.8329C27.7419 11.8329 20.8542 18.6748 20.8542 27.0637C20.8542 28.5172 21.0602 29.9214 21.4444 31.2506C21.5195 31.3066 21.5937 31.3661 21.6645 31.4281C21.7426 31.4964 21.8295 31.5791 21.9134 31.6742C21.99 31.7611 22.1038 31.9027 22.1965 32.0903C22.2445 32.1873 22.3009 32.3249 22.334 32.4953C22.3676 32.6682 22.3817 32.9002 22.3156 33.1593C22.2465 33.4295 22.1051 33.6681 21.9146 33.8545C21.7333 34.0318 21.5389 34.1322 21.3865 34.1896C21.1033 34.2962 20.8428 34.3001 20.6986 34.2954C20.533 34.2901 20.3705 34.2665 20.2228 34.2378C19.5187 34.101 18.7894 34.0291 18.0418 34.0291C11.8199 34.0291 6.81751 39.0077 6.81751 45.0981C6.81751 51.1885 11.8199 56.1671 18.0418 56.1671H20.1473C20.9254 56.1671 21.5561 56.8013 21.5561 57.5836C21.5561 58.3658 20.9254 59 20.1473 59H18.0418C10.3097 59 4 52.7988 4 45.0981C4 37.3975 10.3097 31.1963 18.0418 31.1963C18.2014 31.1963 18.3604 31.1989 18.5188 31.2041C18.2034 29.8737 18.0367 28.4874 18.0367 27.0637C18.0367 17.0645 26.2317 9 36.2896 9C45.6605 9 53.4098 15.9969 54.4292 25.0408C54.5168 25.8181 53.9611 26.5197 53.188 26.6077C52.4149 26.6958 51.7172 26.1371 51.6296 25.3598C50.7741 17.7699 44.2494 11.8329 36.2896 11.8329ZM19.84 33.489C19.8694 33.4931 19.9017 33.4965 19.9364 33.4985C20.0217 33.5033 20.1814 33.5037 20.3744 33.4469C20.3745 33.4469 20.3744 33.4469 20.3744 33.4469C20.3812 33.4449 20.3883 33.4428 20.3952 33.4406C20.6131 33.3727 20.8896 33.2228 21.0989 32.9289C21.191 32.7996 21.2518 32.668 21.2908 32.5435L20.4897 32.8471L19.84 33.489ZM30.5294 57.5836C30.5294 56.8013 31.1601 56.1671 31.9382 56.1671H57.591C58.369 56.1671 59 56.8013 59 57.5836C59 58.3658 58.3693 59 57.5912 59H31.9382C31.1601 59 30.5294 58.3658 30.5294 57.5836Z" fill="#505168"/>
</g>
<defs>
<filter id="filter0_d_493_213" x="0" y="0" width="202" height="94" filterUnits="userSpaceOnUse" color-interpolation-filters="sRGB">
<feFlood flood-opacity="0" result="BackgroundImageFix"/>
<feColorMatrix in="SourceAlpha" type="matrix" values="0 0 0 0 0 0 0 0 0 0 0 0 0 0 0 0 0 0 127 0" result="hardAlpha"/>
<feOffset dy="4"/>
<feGaussianBlur stdDeviation="2"/>
<feComposite in2="hardAlpha" operator="out"/>
<feColorMatrix type="matrix" values="0 0 0 0 0 0 0 0 0 0 0 0 0 0 0 0 0 0 0.25 0"/>
<feBlend mode="normal" in2="BackgroundImageFix" result="effect1_dropShadow_493_213"/>
<feBlend mode="normal" in="SourceGraphic" in2="effect1_dropShadow_493_213" result="shape"/>
</filter>
</defs>
</svg>
