<svg width="271" height="124" viewBox="0 0 271 124" fill="none" xmlns="http://www.w3.org/2000/svg">
<g filter="url(#filter0_d_493_213)">
<path d="M206.609 56.065C206.609 53.3707 205.927 51.249 204.564 49.6997C203.233 48.1505 201.426 47.3759 199.143 47.3759C197.59 47.3759 196.163 47.8306 194.863 48.7399C193.595 49.6155 192.581 50.828 191.82 52.3772C191.091 53.9264 190.726 55.6272 190.726 57.4795V72.8371H189.205V46.4161H190.726V52.3267C191.519 50.3733 192.692 48.8072 194.245 47.6285C195.83 46.4497 197.574 45.8604 199.476 45.8604C202.044 45.8604 204.12 46.7865 205.705 48.6389C207.322 50.4575 208.131 52.8992 208.131 55.964V72.8371H206.609V56.065Z" fill="#F28149"/>
<path d="M170.843 72.8369C168.269 72.8369 166.171 71.973 164.551 70.2453C162.962 68.4856 162.167 66.15 162.167 63.2384V47.209H163.693V63.1424C163.693 65.702 164.36 67.7177 165.695 69.1895C167.061 70.6612 168.873 71.3971 171.129 71.3971C172.687 71.3971 174.101 70.9812 175.372 70.1493C176.675 69.2855 177.692 68.1176 178.423 66.6459C179.186 65.1741 179.568 63.5584 179.568 61.7987V47.209H181.093V72.309H179.615L179.568 66.7419C178.773 68.5976 177.597 70.0853 176.04 71.2052C174.482 72.293 172.75 72.8369 170.843 72.8369Z" fill="#F28149"/>
<path d="M144.911 72.8371C142.34 72.8371 140.028 72.0923 137.978 70.6027C135.96 69.0808 134.56 66.8626 133.779 63.9482L135.244 63.5111C135.992 66.134 137.229 68.0931 138.954 69.3884C140.712 70.6513 142.698 71.2828 144.911 71.2828C147.548 71.2828 149.68 70.6189 151.307 69.2913C152.967 67.9312 153.797 66.1664 153.797 63.9968C153.797 61.7948 152.967 60.0462 151.307 58.7509C149.68 57.4556 147.417 56.3384 144.52 55.3994C142.502 54.7517 140.826 54.0555 139.491 53.3107C138.157 52.5659 137.083 51.6107 136.269 50.4449C135.455 49.2792 135.048 47.822 135.048 46.0733C135.048 44.4866 135.471 43.0618 136.318 41.7989C137.164 40.536 138.336 39.5483 139.833 38.8359C141.363 38.1235 143.105 37.7673 145.058 37.7673C147.401 37.7673 149.501 38.415 151.356 39.7103C153.211 41.0055 154.53 42.9323 155.311 45.4905L153.797 45.879C153.081 43.6771 151.942 42.0418 150.38 40.9732C148.817 39.8722 147.043 39.3217 145.058 39.3217C142.551 39.3217 140.517 39.9531 138.954 41.216C137.424 42.4465 136.66 44.0656 136.66 46.0733C136.66 47.5629 137.018 48.7934 137.734 49.7649C138.45 50.7364 139.377 51.5135 140.517 52.0964C141.689 52.6793 143.218 53.2783 145.106 53.8936C148.231 54.9298 150.721 56.2413 152.577 57.828C154.465 59.3824 155.409 61.4224 155.409 63.9482C155.409 65.6645 154.953 67.2026 154.041 68.5627C153.163 69.9227 151.926 70.9751 150.331 71.7199C148.736 72.4647 146.929 72.8371 144.911 72.8371Z" fill="#F28149"/>
<path d="M117.047 72.8371C114.751 72.8371 112.615 72.2926 110.638 71.2036C108.661 70.1147 107.066 68.5472 105.855 66.5013C104.643 64.4553 104.037 62.0629 104.037 59.324C104.037 56.75 104.595 54.4401 105.711 52.3942C106.827 50.3482 108.374 48.7478 110.351 47.5928C112.328 46.4378 114.56 45.8604 117.047 45.8604C119.343 45.8604 121.448 46.3718 123.361 47.3948C125.274 48.3848 126.805 49.8862 127.953 51.8992C129.133 53.8791 129.722 56.2881 129.722 59.126C129.722 59.522 129.707 59.819 129.675 60.017H105.52C105.616 62.3269 106.205 64.3398 107.29 66.0558C108.406 67.7717 109.809 69.0917 111.499 70.0157C113.221 70.9067 115.07 71.3521 117.047 71.3521C119.184 71.3521 121.145 70.8901 122.93 69.9662C124.716 69.0092 126.183 67.5572 127.331 65.6103L128.527 66.4518C127.219 68.5967 125.561 70.1972 123.552 71.2531C121.575 72.3091 119.407 72.8371 117.047 72.8371ZM128.24 58.5815C128.176 56.1066 127.618 54.0276 126.566 52.3447C125.545 50.6287 124.206 49.3583 122.548 48.5333C120.89 47.7083 119.056 47.2958 117.047 47.2958C114.911 47.2958 112.982 47.7743 111.26 48.7313C109.538 49.6882 108.167 51.0247 107.146 52.7407C106.158 54.4566 105.616 56.4036 105.52 58.5815H128.24Z" fill="black"/>
<path d="M95.9258 36.4185H97.2776V72.8371H95.9258V36.4185Z" fill="black"/>
<path d="M86.3448 68.2832C85.5858 69.7022 84.479 70.8242 83.0244 71.6491C81.6014 72.4411 79.9728 72.8371 78.1387 72.8371C76.3679 72.8371 74.7709 72.4576 73.3479 71.6986C71.9565 70.9396 70.8656 69.9002 70.075 68.5802C69.2844 67.2273 68.8892 65.7258 68.8892 64.0758C68.8892 62.3929 69.2844 60.8914 70.075 59.5715C70.8972 58.2515 72.004 57.2285 73.3954 56.5026C74.8184 55.7436 76.3995 55.3641 78.1387 55.3641C79.9728 55.3641 81.6014 55.7601 83.0244 56.5521C84.4474 57.344 85.5384 58.433 86.2973 59.819V55.1166C86.2973 52.7407 85.6016 50.8597 84.2102 49.4738C82.8189 48.0548 80.9373 47.3453 78.5656 47.3453C77.1742 47.3453 75.7987 47.6093 74.4389 48.1373C73.0791 48.6323 71.7984 49.3748 70.5968 50.3647L69.8378 49.0778C71.166 48.0218 72.589 47.2298 74.1069 46.7018C75.6247 46.1408 77.111 45.8604 78.5656 45.8604C81.3484 45.8604 83.5778 46.7018 85.2538 48.3848C86.9614 50.0677 87.8152 52.3117 87.8152 55.1166V72.2926H86.4396L86.3448 68.2832ZM78.3285 71.4016C80.6685 71.4016 82.5817 70.7252 84.0679 69.3722C85.5542 67.9862 86.2973 66.2208 86.2973 64.0758C86.2973 61.9309 85.5542 60.182 84.0679 58.829C82.5817 57.443 80.6685 56.75 78.3285 56.75C75.9884 56.75 74.0752 57.4265 72.589 58.7795C71.1344 60.1325 70.407 61.8979 70.407 64.0758C70.407 66.2208 71.1502 67.9862 72.6364 69.3722C74.1227 70.7252 76.02 71.4016 78.3285 71.4016Z" fill="black"/>
<path d="M47.5824 72.8371C44.1686 72.8371 41.1029 72.0923 38.3852 70.6027C35.6674 69.0808 33.5297 66.9921 31.9719 64.3368C30.4474 61.6815 29.6851 58.7023 29.6851 55.3994C29.6851 52.064 30.4474 49.0525 31.9719 46.3648C33.5297 43.6771 35.6674 41.5722 38.3852 40.0503C41.1029 38.5283 44.1521 37.7673 47.5327 37.7673C51.2116 37.7673 54.3602 38.5769 56.9785 40.196C59.6299 41.8151 61.718 44.1142 63.2426 47.0934L61.8008 47.7248C58.9174 42.1227 54.1779 39.3217 47.5824 39.3217C44.5001 39.3217 41.716 40.0179 39.2303 41.4103C36.7777 42.7704 34.8554 44.6809 33.4634 47.1419C32.0714 49.5706 31.3754 52.3231 31.3754 55.3994C31.3754 58.4433 32.0714 61.1796 33.4634 63.6082C34.8554 66.0045 36.7777 67.8827 39.2303 69.2427C41.716 70.6027 44.5001 71.2828 47.5824 71.2828C50.3996 71.2828 52.9516 70.6675 55.2385 69.437C57.5254 68.1741 59.3648 66.4416 60.7568 64.2397C62.1488 62.0053 62.9443 59.4633 63.1431 56.6137H46.8864V55.1565H64.8334L64.7837 56.0308C64.5849 59.3338 63.7231 62.2644 62.1985 64.8225C60.674 67.3483 58.6357 69.3237 56.0836 70.7485C53.5647 72.1409 50.731 72.8371 47.5824 72.8371Z" fill="black"/>
<path fill-rule="evenodd" clip-rule="evenodd" d="M193.814 0C194.865 0 195.718 0.844594 195.718 1.88645V7.73459C195.718 8.77645 194.865 9.62104 193.814 9.62104C192.762 9.62104 191.909 8.77645 191.909 7.73459V1.88645C191.909 0.844594 192.762 0 193.814 0ZM246.283 18.5138C246.916 19.346 246.748 20.5288 245.907 21.1557L239.526 25.9167C238.686 26.5436 237.492 26.3771 236.859 25.5449C236.227 24.7127 236.395 23.53 237.235 22.9031L243.616 18.142C244.456 17.5152 245.65 17.6817 246.283 18.5138ZM191.909 30.3303C191.909 29.2885 192.762 28.4439 193.814 28.4439C212.19 28.4439 225.341 43.7095 225.341 57.6617C225.341 64.6729 222.026 72.3205 216.514 78.2C210.977 84.1051 203.089 88.3679 193.814 88.3679C192.762 88.3679 191.909 87.5233 191.909 86.4815C191.909 85.4396 192.762 84.595 193.814 84.595C201.853 84.595 208.777 80.9075 213.723 75.6325C218.693 70.3319 221.532 63.5696 221.532 57.6617C221.532 45.7753 210.068 32.2168 193.814 32.2168C192.762 32.2168 191.909 31.3722 191.909 30.3303ZM254.614 57.6617C254.614 56.6199 255.467 55.7753 256.519 55.7753H264.357C265.409 55.7753 266.262 56.6199 266.262 57.6617C266.262 58.7036 265.409 59.5482 264.357 59.5482H256.519C255.467 59.5482 254.614 58.7036 254.614 57.6617ZM236.857 89.8062C237.488 88.9725 238.681 88.8032 239.523 89.4281L245.904 94.1657C246.745 94.7905 246.916 95.9729 246.286 96.8066C245.655 97.6403 244.461 97.8095 243.619 97.1847L237.238 92.4471C236.397 91.8223 236.226 90.6399 236.857 89.8062ZM193.814 106.379C194.865 106.379 195.718 107.224 195.718 108.265V114.114C195.718 115.155 194.865 116 193.814 116C192.762 116 191.909 115.155 191.909 114.114V108.265C191.909 107.224 192.762 106.379 193.814 106.379Z" fill="#F28149"/>
<path fill-rule="evenodd" clip-rule="evenodd" d="M47.651 15.9607C36.0958 15.9607 26.7846 25.1893 26.7846 36.5046C26.7846 38.4652 27.063 40.3592 27.5824 42.152C27.684 42.2276 27.7843 42.3079 27.88 42.3915C27.9855 42.4836 28.103 42.5952 28.2164 42.7234C28.3199 42.8406 28.4738 43.0316 28.5991 43.2847C28.664 43.4156 28.7402 43.6011 28.785 43.8309C28.8304 44.0642 28.8495 44.3772 28.7601 44.7266C28.6667 45.0911 28.4756 45.4128 28.218 45.6643C27.973 45.9034 27.7102 46.0389 27.5042 46.1163C27.1213 46.2601 26.7691 46.2654 26.5742 46.2591C26.3503 46.2519 26.1306 46.22 25.931 46.1814C24.9792 45.9968 23.9932 45.8999 22.9826 45.8999C14.5714 45.8999 7.80888 52.6152 7.80888 60.8302C7.80888 69.0451 14.5714 75.7604 22.9826 75.7604H25.8289C26.8807 75.7604 27.7334 76.6158 27.7334 77.671C27.7334 78.7261 26.8807 79.5815 25.8289 79.5815H22.9826C12.5298 79.5815 4 71.2171 4 60.8302C4 50.4432 12.5298 42.0788 22.9826 42.0788C23.1983 42.0788 23.4132 42.0824 23.6274 42.0894C23.201 40.2949 22.9757 38.4249 22.9757 36.5046C22.9757 23.0174 34.0542 12.1396 47.651 12.1396C60.3192 12.1396 70.7952 21.5773 72.1732 33.7761C72.2916 34.8246 71.5404 35.7708 70.4953 35.8896C69.4502 36.0084 68.507 35.2548 68.3885 34.2064C67.2321 23.9688 58.4116 15.9607 47.651 15.9607ZM25.4134 45.1714C25.4532 45.1769 25.4969 45.1814 25.5438 45.1841C25.659 45.1906 25.875 45.1912 26.1359 45.1146C26.136 45.1146 26.1359 45.1146 26.1359 45.1146C26.1451 45.1119 26.1547 45.109 26.164 45.1061C26.4586 45.0144 26.8324 44.8122 27.1153 44.4159C27.2398 44.2414 27.322 44.0639 27.3748 43.896L26.2918 44.3055L25.4134 45.1714ZM39.8641 77.671C39.8641 76.6158 40.7167 75.7604 41.7685 75.7604H76.4475C77.4993 75.7604 78.3523 76.6158 78.3523 77.671C78.3523 78.7261 77.4997 79.5815 76.4479 79.5815H41.7685C40.7167 79.5815 39.8641 78.7261 39.8641 77.671Z" fill="black"/>
</g>
<defs>
<filter id="filter0_d_493_213" x="0" y="0" width="270.262" height="124" filterUnits="userSpaceOnUse" color-interpolation-filters="sRGB">
<feFlood flood-opacity="0" result="BackgroundImageFix"/>
<feColorMatrix in="SourceAlpha" type="matrix" values="0 0 0 0 0 0 0 0 0 0 0 0 0 0 0 0 0 0 127 0" result="hardAlpha"/>
<feOffset dy="4"/>
<feGaussianBlur stdDeviation="2"/>
<feComposite in2="hardAlpha" operator="out"/>
<feColorMatrix type="matrix" values="0 0 0 0 0 0 0 0 0 0 0 0 0 0 0 0 0 0 0.25 0"/>
<feBlend mode="normal" in2="BackgroundImageFix" result="effect1_dropShadow_493_213"/>
<feBlend mode="normal" in="SourceGraphic" in2="effect1_dropShadow_493_213" result="shape"/>
</filter>
</defs>
</svg>
