<svg width="356" height="163" viewBox="0 0 356 163" fill="none" xmlns="http://www.w3.org/2000/svg">
<g filter="url(#filter0_d_493_213)">
<path d="M62.39 97.715C57.9267 97.715 53.9183 96.7183 50.365 94.725C46.8117 92.6883 44.0167 89.8933 41.98 86.34C39.9867 82.7867 38.99 78.8 38.99 74.38C38.99 69.9167 39.9867 65.8867 41.98 62.29C44.0167 58.6933 46.8117 55.8767 50.365 53.84C53.9183 51.8033 57.905 50.785 62.325 50.785C67.135 50.785 71.2517 51.8683 74.675 54.035C78.1417 56.2017 80.8717 59.2783 82.865 63.265L80.98 64.11C77.21 56.6133 71.0133 52.865 62.39 52.865C58.36 52.865 54.72 53.7967 51.47 55.66C48.2633 57.48 45.75 60.0367 43.93 63.33C42.11 66.58 41.2 70.2633 41.2 74.38C41.2 78.4533 42.11 82.115 43.93 85.365C45.75 88.5717 48.2633 91.085 51.47 92.905C54.72 94.725 58.36 95.635 62.39 95.635C66.0733 95.635 69.41 94.8117 72.4 93.165C75.39 91.475 77.795 89.1567 79.615 86.21C81.435 83.22 82.475 79.8183 82.735 76.005H61.48V74.055H84.945L84.88 75.225C84.62 79.645 83.4933 83.5667 81.5 86.99C79.5067 90.37 76.8417 93.0133 73.505 94.92C70.2117 96.7833 66.5067 97.715 62.39 97.715ZM114.575 91.735C113.535 93.5983 112.019 95.0717 110.025 96.155C108.075 97.195 105.844 97.715 103.33 97.715C100.904 97.715 98.7154 97.2167 96.7654 96.22C94.8587 95.2233 93.3637 93.8583 92.2804 92.125C91.197 90.3483 90.6554 88.3767 90.6554 86.21C90.6554 84 91.197 82.0283 92.2804 80.295C93.407 78.5617 94.9237 77.2183 96.8304 76.265C98.7804 75.2683 100.947 74.77 103.33 74.77C105.844 74.77 108.075 75.29 110.025 76.33C111.975 77.37 113.47 78.8 114.51 80.62V74.445C114.51 71.325 113.557 68.855 111.65 67.035C109.744 65.1717 107.165 64.24 103.915 64.24C102.009 64.24 100.124 64.5867 98.2604 65.28C96.397 65.93 94.642 66.905 92.9954 68.205L91.9554 66.515C93.7754 65.1283 95.7254 64.0883 97.8054 63.395C99.8854 62.6583 101.922 62.29 103.915 62.29C107.729 62.29 110.784 63.395 113.08 65.605C115.42 67.815 116.59 70.7617 116.59 74.445V97H114.705L114.575 91.735ZM103.59 95.83C106.797 95.83 109.419 94.9417 111.455 93.165C113.492 91.345 114.51 89.0267 114.51 86.21C114.51 83.3933 113.492 81.0967 111.455 79.32C109.419 77.5 106.797 76.59 103.59 76.59C100.384 76.59 97.762 77.4783 95.7254 79.255C93.732 81.0317 92.7354 83.35 92.7354 86.21C92.7354 89.0267 93.7537 91.345 95.7904 93.165C97.827 94.9417 100.427 95.83 103.59 95.83ZM126.769 49.55H128.849V97H126.769V49.55ZM154.542 97.715C151.422 97.715 148.518 97 145.832 95.57C143.145 94.14 140.978 92.0817 139.332 89.395C137.685 86.7083 136.862 83.5667 136.862 79.97C136.862 76.59 137.62 73.5567 139.137 70.87C140.653 68.1833 142.755 66.0817 145.442 64.565C148.128 63.0483 151.162 62.29 154.542 62.29C157.662 62.29 160.522 62.9617 163.122 64.305C165.722 65.605 167.802 67.5767 169.362 70.22C170.965 72.82 171.767 75.9833 171.767 79.71C171.767 80.23 171.745 80.62 171.702 80.88H138.877C139.007 83.9133 139.808 86.5567 141.282 88.81C142.798 91.0633 144.705 92.7967 147.002 94.01C149.342 95.18 151.855 95.765 154.542 95.765C157.445 95.765 160.11 95.1583 162.537 93.945C164.963 92.6883 166.957 90.7817 168.517 88.225L170.142 89.33C168.365 92.1467 166.112 94.2483 163.382 95.635C160.695 97.0217 157.748 97.715 154.542 97.715ZM169.752 78.995C169.665 75.745 168.907 73.015 167.477 70.805C166.09 68.5517 164.27 66.8833 162.017 65.8C159.763 64.7167 157.272 64.175 154.542 64.175C151.638 64.175 149.017 64.8033 146.677 66.06C144.337 67.3167 142.473 69.0717 141.087 71.325C139.743 73.5783 139.007 76.135 138.877 78.995H169.752Z" fill="#505168"/>
<path d="M191.042 97.715C187.618 97.715 184.542 96.7183 181.812 94.725C179.125 92.6883 177.262 89.72 176.222 85.82L178.172 85.235C179.168 88.745 180.815 91.3667 183.112 93.1C185.452 94.79 188.095 95.635 191.042 95.635C194.552 95.635 197.39 94.7467 199.557 92.97C201.767 91.15 202.872 88.7883 202.872 85.885C202.872 82.9383 201.767 80.5983 199.557 78.865C197.39 77.1317 194.378 75.6367 190.522 74.38C187.835 73.5133 185.603 72.5817 183.827 71.585C182.05 70.5883 180.62 69.31 179.537 67.75C178.453 66.19 177.912 64.24 177.912 61.9C177.912 59.7767 178.475 57.87 179.602 56.18C180.728 54.49 182.288 53.1683 184.282 52.215C186.318 51.2617 188.637 50.785 191.237 50.785C194.357 50.785 197.152 51.6517 199.622 53.385C202.092 55.1183 203.847 57.6967 204.887 61.12L202.872 61.64C201.918 58.6933 200.402 56.505 198.322 55.075C196.242 53.6017 193.88 52.865 191.237 52.865C187.9 52.865 185.192 53.71 183.112 55.4C181.075 57.0467 180.057 59.2133 180.057 61.9C180.057 63.8933 180.533 65.54 181.487 66.84C182.44 68.14 183.675 69.18 185.192 69.96C186.752 70.74 188.788 71.5417 191.302 72.365C195.462 73.7517 198.777 75.5067 201.247 77.63C203.76 79.71 205.017 82.44 205.017 85.82C205.017 88.1167 204.41 90.175 203.197 91.995C202.027 93.815 200.38 95.2233 198.257 96.22C196.133 97.2167 193.728 97.715 191.042 97.715ZM224.917 97.715C221.407 97.715 218.547 96.545 216.337 94.205C214.17 91.8217 213.087 88.6583 213.087 84.715V63.005H215.167V84.585C215.167 88.0517 216.077 90.7817 217.897 92.775C219.76 94.7683 222.23 95.765 225.307 95.765C227.43 95.765 229.359 95.2017 231.092 94.075C232.869 92.905 234.255 91.3233 235.252 89.33C236.292 87.3367 236.812 85.1483 236.812 82.765V63.005H238.892V97H236.877L236.812 89.46C235.729 91.9733 234.125 93.9883 232.002 95.505C229.879 96.9783 227.517 97.715 224.917 97.715ZM272.873 75.42C272.873 71.9533 271.941 69.2233 270.078 67.23C268.258 65.2367 265.788 64.24 262.668 64.24C260.544 64.24 258.594 64.825 256.818 65.995C255.084 67.1217 253.698 68.6817 252.658 70.675C251.661 72.6683 251.163 74.8567 251.163 77.24V97H249.083V63.005H251.163V70.61C252.246 68.0967 253.849 66.0817 255.973 64.565C258.139 63.0483 260.523 62.29 263.123 62.29C266.633 62.29 269.471 63.4817 271.638 65.865C273.848 68.205 274.953 71.3467 274.953 75.29V97H272.873V75.42Z" fill="#F28149"/>
<path d="M256 3V10.7502M256 143.977V151.728M314.504 32.8489L322.881 26.5394M314.504 121.014L322.881 127.292M348.604 76.9155H338.315M256 115.108C278.73 115.108 294.886 94.0364 294.886 76.9155C294.886 59.7943 278.73 40.6949 256 40.6949" stroke="#F28149" stroke-width="5" stroke-linecap="round" stroke-linejoin="round"/>
<path d="M99.6039 104.25C99.6039 104.25 99.0738 104.25 81.7294 104.25H54.0796M91.5083 47.0936C89.8449 32.4141 77.1794 21 61.8017 21C45.2928 21 31.9098 34.1549 31.9098 50.3824C31.9098 53.9717 32.5645 57.4104 33.763 60.5901M33.763 60.5901C32.3576 60.3185 30.9051 60.1764 29.4188 60.1764C17.0373 60.1764 7 70.0426 7 82.2132C7 94.3838 17.0373 104.25 29.4188 104.25H33.1553M33.763 60.5901C36.7155 61.1598 30.523 57.2928 33.763 60.5901Z" stroke="#505168" stroke-width="5" stroke-linecap="round"/>
</g>
<defs>
<filter id="filter0_d_493_213" x="0.5" y="0.5" width="354.604" height="161.728" filterUnits="userSpaceOnUse" color-interpolation-filters="sRGB">
<feFlood flood-opacity="0" result="BackgroundImageFix"/>
<feColorMatrix in="SourceAlpha" type="matrix" values="0 0 0 0 0 0 0 0 0 0 0 0 0 0 0 0 0 0 127 0" result="hardAlpha"/>
<feOffset dy="4"/>
<feGaussianBlur stdDeviation="2"/>
<feComposite in2="hardAlpha" operator="out"/>
<feColorMatrix type="matrix" values="0 0 0 0 0 0 0 0 0 0 0 0 0 0 0 0 0 0 0.25 0"/>
<feBlend mode="normal" in2="BackgroundImageFix" result="effect1_dropShadow_493_213"/>
<feBlend mode="normal" in="SourceGraphic" in2="effect1_dropShadow_493_213" result="shape"/>
</filter>
</defs>
</svg>
