<svg width="173" height="53" viewBox="0 0 173 53" fill="none" xmlns="http://www.w3.org/2000/svg">
<path d="M154.86 24.486C158.246 26.449 158.166 31.3655 154.717 33.2169L131.503 45.68C128.14 47.4853 124.076 45.0093 124.139 41.193L124.558 15.5154C124.62 11.6992 128.763 9.35714 132.065 11.2714L154.86 24.486Z" fill="#0086A4"/>
<path d="M14.5075 38.54C11.8195 38.54 9.51551 38.072 7.59551 37.136C5.67551 36.176 4.19951 34.82 3.16751 33.068C2.13551 31.292 1.61951 29.168 1.61951 26.696C1.61951 24.08 2.15951 21.8 3.23951 19.856C4.34351 17.912 5.87951 16.4 7.84751 15.32C9.81551 14.24 12.1075 13.7 14.7235 13.7C16.2115 13.7 17.6155 13.868 18.9355 14.204C20.2795 14.54 21.4675 15.02 22.4995 15.644L21.2395 19.964C20.3035 19.388 19.2595 18.944 18.1075 18.632C16.9795 18.296 15.8515 18.128 14.7235 18.128C13.1395 18.128 11.7475 18.476 10.5475 19.172C9.34751 19.844 8.41151 20.792 7.73951 22.016C7.06751 23.24 6.73151 24.68 6.73151 26.336C6.73151 28.736 7.45151 30.632 8.89151 32.024C10.3555 33.392 12.3475 34.076 14.8675 34.076C15.8755 34.076 16.8115 34.004 17.6755 33.86V28.892H14.6515V24.68H22.4635V37.136C19.9915 38.072 17.3395 38.54 14.5075 38.54ZM39.2927 38.54C36.6047 38.54 34.3007 38.072 32.3807 37.136C30.4607 36.176 28.9847 34.82 27.9527 33.068C26.9207 31.292 26.4047 29.168 26.4047 26.696C26.4047 24.08 26.9447 21.8 28.0247 19.856C29.1287 17.912 30.6647 16.4 32.6327 15.32C34.6007 14.24 36.8927 13.7 39.5087 13.7C40.9967 13.7 42.4007 13.868 43.7207 14.204C45.0647 14.54 46.2527 15.02 47.2847 15.644L46.0247 19.964C45.0887 19.388 44.0447 18.944 42.8927 18.632C41.7647 18.296 40.6367 18.128 39.5087 18.128C37.9247 18.128 36.5327 18.476 35.3327 19.172C34.1327 19.844 33.1967 20.792 32.5247 22.016C31.8527 23.24 31.5167 24.68 31.5167 26.336C31.5167 28.736 32.2367 30.632 33.6767 32.024C35.1407 33.392 37.1327 34.076 39.6527 34.076C40.6607 34.076 41.5967 34.004 42.4607 33.86V28.892H39.4367V24.68H47.2487V37.136C44.7767 38.072 42.1247 38.54 39.2927 38.54Z" fill="#0086A4"/>
<path d="M55.7035 37.54C53.8075 37.54 52.2835 36.736 51.1315 35.128C50.0035 33.496 49.4395 31.264 49.4395 28.432C49.4395 25.024 50.3035 22.432 52.0315 20.656C53.7595 18.856 56.2435 17.956 59.4835 17.956C61.3075 17.956 63.4435 18.244 65.8915 18.82V37H61.0675L61.1755 34.048H61.0315C59.7835 36.376 58.0075 37.54 55.7035 37.54ZM56.7835 33.112C57.5755 33.112 58.3315 32.692 59.0515 31.852C59.7715 31.012 60.4195 29.98 60.9955 28.756V22.708C60.6115 22.588 60.2155 22.504 59.8075 22.456C59.3995 22.408 59.0275 22.384 58.6915 22.384C55.7875 22.384 54.3355 24.328 54.3355 28.216C54.3355 29.728 54.5515 30.928 54.9835 31.816C55.4155 32.68 56.0155 33.112 56.7835 33.112ZM70.8004 37V18.46H75.7684V21.34C77.2324 19.084 79.2124 17.956 81.7085 17.956C83.1244 17.956 84.3244 18.292 85.3085 18.964C86.3165 19.636 87.0485 20.572 87.5045 21.772C88.3444 20.452 89.2805 19.492 90.3125 18.892C91.3685 18.268 92.5684 17.956 93.9124 17.956C95.9044 17.956 97.4525 18.556 98.5565 19.756C99.6844 20.932 100.248 22.576 100.248 24.688V37H95.1725V25.48C95.1725 24.496 94.9325 23.74 94.4525 23.212C93.9965 22.684 93.3724 22.42 92.5804 22.42C91.5724 22.42 90.6485 22.828 89.8085 23.644C88.9925 24.46 88.3805 25.504 87.9725 26.776V37H82.8965V25.48C82.8965 24.52 82.6564 23.776 82.1764 23.248C81.6965 22.696 81.0605 22.42 80.2684 22.42C79.4044 22.42 78.5764 22.756 77.7844 23.428C76.9924 24.076 76.3564 25 75.8764 26.2V37H70.8004ZM113.685 37.54C110.709 37.54 108.357 36.676 106.629 34.948C104.901 33.22 104.037 30.82 104.037 27.748C104.037 25.732 104.409 23.992 105.153 22.528C105.897 21.064 106.941 19.936 108.285 19.144C109.653 18.352 111.249 17.956 113.073 17.956C115.761 17.956 117.825 18.82 119.265 20.548C120.705 22.276 121.425 24.772 121.425 28.036C121.425 28.252 121.425 28.468 121.425 28.684C121.425 28.876 121.413 29.068 121.389 29.26H109.149C109.629 31.852 111.345 33.148 114.297 33.148C115.209 33.148 116.133 33.04 117.069 32.824C118.029 32.584 118.869 32.272 119.589 31.888L120.417 35.956C118.425 37.012 116.181 37.54 113.685 37.54ZM109.113 25.444H116.565C116.493 24.412 116.133 23.596 115.485 22.996C114.837 22.372 113.973 22.06 112.893 22.06C111.861 22.06 111.009 22.36 110.337 22.96C109.689 23.56 109.281 24.388 109.113 25.444ZM125.33 37V18.46H130.406V21.484H130.694C131.318 20.38 131.966 19.516 132.638 18.892C133.334 18.244 134.234 17.92 135.338 17.92C135.77 17.92 136.13 17.968 136.418 18.064L135.878 23.536C135.614 23.464 135.362 23.404 135.122 23.356C134.882 23.308 134.63 23.284 134.366 23.284C133.478 23.284 132.77 23.548 132.242 24.076C131.714 24.58 131.102 25.264 130.406 26.128V37H125.33ZM144.614 37.54C143.438 37.54 142.298 37.42 141.194 37.18C140.114 36.94 139.19 36.616 138.422 36.208L138.89 31.888C139.706 32.392 140.606 32.8 141.59 33.112C142.574 33.424 143.498 33.58 144.362 33.58C145.13 33.58 145.802 33.436 146.378 33.148C146.954 32.86 147.242 32.416 147.242 31.816C147.242 31.24 146.93 30.82 146.306 30.556C145.706 30.292 144.77 29.92 143.498 29.44C143.018 29.248 142.478 29.032 141.878 28.792C141.302 28.552 140.75 28.24 140.222 27.856C139.694 27.448 139.262 26.932 138.926 26.308C138.59 25.66 138.422 24.856 138.422 23.896C138.422 22.6 138.746 21.52 139.394 20.656C140.066 19.768 140.978 19.096 142.13 18.64C143.282 18.184 144.578 17.956 146.018 17.956C147.002 17.956 147.962 18.052 148.898 18.244C149.858 18.436 150.77 18.688 151.634 19L150.95 23.284C150.254 22.876 149.462 22.552 148.574 22.312C147.71 22.048 146.894 21.916 146.126 21.916C145.382 21.916 144.758 22.048 144.254 22.312C143.774 22.552 143.534 22.936 143.534 23.464C143.534 23.896 143.702 24.244 144.038 24.508C144.374 24.748 144.83 24.964 145.406 25.156C145.982 25.324 146.618 25.552 147.314 25.84C148.01 26.104 148.742 26.44 149.51 26.848C150.302 27.256 150.974 27.832 151.526 28.576C152.078 29.32 152.354 30.34 152.354 31.636C152.354 33.004 152.006 34.132 151.31 35.02C150.638 35.884 149.714 36.52 148.538 36.928C147.386 37.336 146.078 37.54 144.614 37.54Z" fill="#F7F3F3"/>
</svg>
