<svg width="173" height="53" viewBox="0 0 173 53" fill="none" xmlns="http://www.w3.org/2000/svg">
<path d="M154.861 24.486C158.247 26.449 158.166 31.3655 154.718 33.2169L131.504 45.68C128.141 47.4853 124.077 45.0093 124.139 41.193L124.559 15.5154C124.621 11.6992 128.764 9.35714 132.066 11.2714L154.861 24.486Z" fill="#0086A4"/>
<path d="M14.508 38.54C11.82 38.54 9.516 38.072 7.596 37.136C5.676 36.176 4.2 34.82 3.168 33.068C2.136 31.292 1.62 29.168 1.62 26.696C1.62 24.08 2.16 21.8 3.24 19.856C4.344 17.912 5.88 16.4 7.848 15.32C9.816 14.24 12.108 13.7 14.724 13.7C16.212 13.7 17.616 13.868 18.936 14.204C20.28 14.54 21.468 15.02 22.5 15.644L21.24 19.964C20.304 19.388 19.26 18.944 18.108 18.632C16.98 18.296 15.852 18.128 14.724 18.128C13.14 18.128 11.748 18.476 10.548 19.172C9.348 19.844 8.412 20.792 7.74 22.016C7.068 23.24 6.732 24.68 6.732 26.336C6.732 28.736 7.452 30.632 8.892 32.024C10.356 33.392 12.348 34.076 14.868 34.076C15.876 34.076 16.812 34.004 17.676 33.86V28.892H14.652V24.68H22.464V37.136C19.992 38.072 17.34 38.54 14.508 38.54ZM39.2932 38.54C36.6052 38.54 34.3012 38.072 32.3812 37.136C30.4612 36.176 28.9852 34.82 27.9532 33.068C26.9212 31.292 26.4052 29.168 26.4052 26.696C26.4052 24.08 26.9452 21.8 28.0252 19.856C29.1292 17.912 30.6652 16.4 32.6332 15.32C34.6012 14.24 36.8932 13.7 39.5092 13.7C40.9972 13.7 42.4012 13.868 43.7212 14.204C45.0652 14.54 46.2532 15.02 47.2852 15.644L46.0252 19.964C45.0892 19.388 44.0452 18.944 42.8932 18.632C41.7652 18.296 40.6372 18.128 39.5092 18.128C37.9252 18.128 36.5332 18.476 35.3332 19.172C34.1332 19.844 33.1972 20.792 32.5252 22.016C31.8532 23.24 31.5172 24.68 31.5172 26.336C31.5172 28.736 32.2372 30.632 33.6772 32.024C35.1412 33.392 37.1332 34.076 39.6532 34.076C40.6612 34.076 41.5972 34.004 42.4612 33.86V28.892H39.4372V24.68H47.2492V37.136C44.7772 38.072 42.1252 38.54 39.2932 38.54Z" fill="#0086A4"/>
<path d="M55.704 37.54C53.784 37.54 52.26 36.724 51.132 35.092C50.004 33.46 49.44 31.24 49.44 28.432C49.44 25.024 50.304 22.432 52.032 20.656C53.76 18.856 56.244 17.956 59.484 17.956C61.308 17.956 63.444 18.244 65.892 18.82V37H61.068L61.176 34.048H61.032C60.408 35.176 59.64 36.04 58.728 36.64C57.84 37.24 56.832 37.54 55.704 37.54ZM56.784 33.112C57.528 33.112 58.26 32.716 58.98 31.924C59.7 31.132 60.372 30.076 60.996 28.756V22.708C60.228 22.492 59.46 22.384 58.692 22.384C57.252 22.384 56.16 22.876 55.416 23.86C54.696 24.844 54.336 26.296 54.336 28.216C54.336 29.728 54.552 30.928 54.984 31.816C55.416 32.68 56.016 33.112 56.784 33.112ZM70.8009 18.46H75.7689V21.34C77.2329 19.084 79.2129 17.956 81.7089 17.956C83.1249 17.956 84.3249 18.292 85.3089 18.964C86.3169 19.612 87.0489 20.548 87.5049 21.772C88.3449 20.452 89.2809 19.492 90.3129 18.892C91.3689 18.268 92.5689 17.956 93.9129 17.956C95.9049 17.956 97.4529 18.556 98.5569 19.756C99.6849 20.932 100.249 22.576 100.249 24.688V37H95.1729V25.48C95.1729 24.52 94.9329 23.776 94.4529 23.248C93.9969 22.696 93.3729 22.42 92.5809 22.42C91.5969 22.42 90.6849 22.828 89.8449 23.644C89.0049 24.46 88.3809 25.504 87.9729 26.776V37H82.8969V25.48C82.8969 24.544 82.6569 23.8 82.1769 23.248C81.6969 22.696 81.0609 22.42 80.2689 22.42C79.3809 22.42 78.5409 22.756 77.7489 23.428C76.9809 24.076 76.3569 25 75.8769 26.2V37H70.8009V18.46ZM113.686 37.54C110.686 37.54 108.322 36.676 106.594 34.948C104.89 33.22 104.038 30.82 104.038 27.748C104.038 25.756 104.41 24.028 105.154 22.564C105.898 21.076 106.942 19.936 108.286 19.144C109.654 18.352 111.25 17.956 113.074 17.956C115.762 17.956 117.826 18.82 119.266 20.548C120.706 22.276 121.426 24.772 121.426 28.036C121.426 28.588 121.414 28.996 121.39 29.26H109.15C109.39 30.532 109.942 31.504 110.806 32.176C111.67 32.824 112.834 33.148 114.298 33.148C115.186 33.148 116.11 33.04 117.07 32.824C118.03 32.584 118.87 32.272 119.59 31.888L120.418 35.956C119.458 36.46 118.39 36.844 117.214 37.108C116.062 37.396 114.886 37.54 113.686 37.54ZM116.566 25.444C116.494 24.412 116.134 23.596 115.486 22.996C114.838 22.372 113.974 22.06 112.894 22.06C111.862 22.06 111.01 22.36 110.338 22.96C109.69 23.56 109.282 24.388 109.114 25.444H116.566ZM125.331 18.46H130.407V21.484H130.695C131.391 20.26 132.075 19.36 132.747 18.784C133.443 18.208 134.307 17.92 135.339 17.92C135.771 17.92 136.131 17.968 136.419 18.064L135.879 23.536C135.255 23.368 134.751 23.284 134.367 23.284C133.815 23.284 133.323 23.392 132.891 23.608C132.483 23.824 132.111 24.112 131.775 24.472C131.463 24.832 131.007 25.384 130.407 26.128V37H125.331V18.46ZM144.614 37.54C143.438 37.54 142.298 37.42 141.194 37.18C140.114 36.94 139.19 36.616 138.422 36.208L138.89 31.888C139.706 32.392 140.606 32.8 141.59 33.112C142.574 33.424 143.498 33.58 144.362 33.58C145.178 33.58 145.862 33.436 146.414 33.148C146.966 32.836 147.242 32.392 147.242 31.816C147.242 31.36 147.05 31.012 146.666 30.772C146.282 30.508 145.55 30.184 144.47 29.8L143.498 29.44C142.466 29.056 141.626 28.696 140.978 28.36C140.33 28 139.742 27.46 139.214 26.74C138.686 26.02 138.422 25.072 138.422 23.896C138.422 22.024 139.118 20.572 140.51 19.54C141.926 18.484 143.762 17.956 146.018 17.956C147.794 17.956 149.666 18.304 151.634 19L150.95 23.284C150.254 22.876 149.462 22.552 148.574 22.312C147.71 22.048 146.894 21.916 146.126 21.916C145.334 21.916 144.698 22.048 144.218 22.312C143.762 22.576 143.534 22.96 143.534 23.464C143.534 23.944 143.726 24.304 144.11 24.544C144.494 24.784 145.142 25.06 146.054 25.372C146.774 25.636 147.194 25.792 147.314 25.84C148.322 26.248 149.162 26.644 149.834 27.028C150.506 27.412 151.094 27.988 151.598 28.756C152.102 29.5 152.354 30.46 152.354 31.636C152.354 33.604 151.646 35.08 150.23 36.064C148.814 37.048 146.942 37.54 144.614 37.54Z" fill="#F4F4F9"/>
</svg>
