<svg width="181" height="60" viewBox="0 0 181 60" fill="none" xmlns="http://www.w3.org/2000/svg">
<path d="M172.86 26.486C176.246 28.449 176.165 33.3655 172.717 35.2169L149.503 47.68C146.14 49.4853 142.076 47.0093 142.138 43.193L142.558 17.5154C142.62 13.6992 146.763 11.3571 150.065 13.2714L172.86 26.486Z" fill="#0086A4"/>
<path d="M16.12 43.6C13.16 43.6 10.6 43.08 8.44 42.04C6.30667 40.9733 4.66667 39.4533 3.52 37.48C2.37333 35.5067 1.8 33.16 1.8 30.44C1.8 27.5867 2.4 25.0667 3.6 22.88C4.82667 20.6933 6.53333 19 8.72 17.8C10.9333 16.6 13.48 16 16.36 16C18.0133 16 19.5733 16.1867 21.04 16.56C22.5333 16.9333 23.8533 17.4667 25 18.16L23.6 22.96C22.56 22.32 21.4 21.8267 20.12 21.48C18.84 21.1067 17.5867 20.92 16.36 20.92C14.6 20.92 13.04 21.3067 11.68 22.08C10.3467 22.8267 9.30667 23.8933 8.56 25.28C7.84 26.64 7.48 28.2267 7.48 30.04C7.48 32.7067 8.28 34.8133 9.88 36.36C11.5067 37.88 13.72 38.64 16.52 38.64C17.64 38.64 18.68 38.56 19.64 38.4V32.88H16.28V28.2H24.96V42.04C22.2133 43.08 19.2667 43.6 16.12 43.6ZM43.6591 43.6C40.6991 43.6 38.1391 43.08 35.9791 42.04C33.8457 40.9733 32.2057 39.4533 31.0591 37.48C29.9124 35.5067 29.3391 33.16 29.3391 30.44C29.3391 27.5867 29.9391 25.0667 31.1391 22.88C32.3657 20.6933 34.0724 19 36.2591 17.8C38.4724 16.6 41.0191 16 43.8991 16C45.5524 16 47.1124 16.1867 48.5791 16.56C50.0724 16.9333 51.3924 17.4667 52.5391 18.16L51.1391 22.96C50.0991 22.32 48.9391 21.8267 47.6591 21.48C46.3791 21.1067 45.1257 20.92 43.8991 20.92C42.1391 20.92 40.5791 21.3067 39.2191 22.08C37.8857 22.8267 36.8457 23.8933 36.0991 25.28C35.3791 26.64 35.0191 28.2267 35.0191 30.04C35.0191 32.7067 35.8191 34.8133 37.4191 36.36C39.0457 37.88 41.2591 38.64 44.0591 38.64C45.1791 38.64 46.2191 38.56 47.1791 38.4V32.88H43.8191V28.2H52.4991V42.04C49.7524 43.08 46.8057 43.6 43.6591 43.6Z" fill="#0086A4"/>
<path d="M16.12 43.6C13.16 43.6 10.6 43.08 8.44 42.04C6.30667 40.9733 4.66667 39.4533 3.52 37.48C2.37333 35.5067 1.8 33.16 1.8 30.44C1.8 27.5867 2.4 25.0667 3.6 22.88C4.82667 20.6933 6.53333 19 8.72 17.8C10.9333 16.6 13.48 16 16.36 16C18.0133 16 19.5733 16.1867 21.04 16.56C22.5333 16.9333 23.8533 17.4667 25 18.16L23.6 22.96C22.56 22.32 21.4 21.8267 20.12 21.48C18.84 21.1067 17.5867 20.92 16.36 20.92C14.6 20.92 13.04 21.3067 11.68 22.08C10.3467 22.8267 9.30667 23.8933 8.56 25.28C7.84 26.64 7.48 28.2267 7.48 30.04C7.48 32.7067 8.28 34.8133 9.88 36.36C11.5067 37.88 13.72 38.64 16.52 38.64C17.64 38.64 18.68 38.56 19.64 38.4V32.88H16.28V28.2H24.96V42.04C22.2133 43.08 19.2667 43.6 16.12 43.6ZM43.6591 43.6C40.6991 43.6 38.1391 43.08 35.9791 42.04C33.8457 40.9733 32.2057 39.4533 31.0591 37.48C29.9124 35.5067 29.3391 33.16 29.3391 30.44C29.3391 27.5867 29.9391 25.0667 31.1391 22.88C32.3657 20.6933 34.0724 19 36.2591 17.8C38.4724 16.6 41.0191 16 43.8991 16C45.5524 16 47.1124 16.1867 48.5791 16.56C50.0724 16.9333 51.3924 17.4667 52.5391 18.16L51.1391 22.96C50.0991 22.32 48.9391 21.8267 47.6591 21.48C46.3791 21.1067 45.1257 20.92 43.8991 20.92C42.1391 20.92 40.5791 21.3067 39.2191 22.08C37.8857 22.8267 36.8457 23.8933 36.0991 25.28C35.3791 26.64 35.0191 28.2267 35.0191 30.04C35.0191 32.7067 35.8191 34.8133 37.4191 36.36C39.0457 37.88 41.2591 38.64 44.0591 38.64C45.1791 38.64 46.2191 38.56 47.1791 38.4V32.88H43.8191V28.2H52.4991V42.04C49.7524 43.08 46.8057 43.6 43.6591 43.6Z" fill="#0086A4"/>
<path d="M64.56 41.6C62.4267 41.6 60.7333 40.6933 59.48 38.88C58.2267 37.0667 57.6 34.6 57.6 31.48C57.6 27.6933 58.56 24.8133 60.48 22.84C62.4 20.84 65.16 19.84 68.76 19.84C70.7867 19.84 73.16 20.16 75.88 20.8V41H70.52L70.64 37.72H70.48C69.7867 38.9733 68.9333 39.9333 67.92 40.6C66.9333 41.2667 65.8133 41.6 64.56 41.6ZM65.76 36.68C66.5867 36.68 67.4 36.24 68.2 35.36C69 34.48 69.7467 33.3067 70.44 31.84V25.12C69.5867 24.88 68.7333 24.76 67.88 24.76C66.28 24.76 65.0667 25.3067 64.24 26.4C63.44 27.4933 63.04 29.1067 63.04 31.24C63.04 32.92 63.28 34.2533 63.76 35.24C64.24 36.2 64.9067 36.68 65.76 36.68ZM81.3344 20.4H86.8544V23.6C88.481 21.0933 90.681 19.84 93.4544 19.84C95.0277 19.84 96.361 20.2133 97.4544 20.96C98.5744 21.68 99.3877 22.72 99.8944 24.08C100.828 22.6133 101.868 21.5467 103.014 20.88C104.188 20.1867 105.521 19.84 107.014 19.84C109.228 19.84 110.948 20.5067 112.174 21.84C113.428 23.1467 114.054 24.9733 114.054 27.32V41H108.414V28.2C108.414 27.1333 108.148 26.3067 107.614 25.72C107.108 25.1067 106.414 24.8 105.534 24.8C104.441 24.8 103.428 25.2533 102.494 26.16C101.561 27.0667 100.868 28.2267 100.414 29.64V41H94.7744V28.2C94.7744 27.16 94.5077 26.3333 93.9744 25.72C93.441 25.1067 92.7344 24.8 91.8544 24.8C90.8677 24.8 89.9344 25.1733 89.0544 25.92C88.201 26.64 87.5077 27.6667 86.9744 29V41H81.3344V20.4ZM128.984 41.6C125.651 41.6 123.024 40.64 121.104 38.72C119.211 36.8 118.264 34.1333 118.264 30.72C118.264 28.5067 118.677 26.5867 119.504 24.96C120.331 23.3067 121.491 22.04 122.984 21.16C124.504 20.28 126.277 19.84 128.304 19.84C131.291 19.84 133.584 20.8 135.184 22.72C136.784 24.64 137.584 27.4133 137.584 31.04C137.584 31.6533 137.571 32.1067 137.544 32.4H123.944C124.211 33.8133 124.824 34.8933 125.784 35.64C126.744 36.36 128.037 36.72 129.664 36.72C130.651 36.72 131.677 36.6 132.744 36.36C133.811 36.0933 134.744 35.7467 135.544 35.32L136.464 39.84C135.397 40.4 134.211 40.8267 132.904 41.12C131.624 41.44 130.317 41.6 128.984 41.6ZM132.184 28.16C132.104 27.0133 131.704 26.1067 130.984 25.44C130.264 24.7467 129.304 24.4 128.104 24.4C126.957 24.4 126.011 24.7333 125.264 25.4C124.544 26.0667 124.091 26.9867 123.904 28.16H132.184ZM141.923 20.4H147.563V23.76H147.883C148.656 22.4 149.416 21.4 150.163 20.76C150.936 20.12 151.896 19.8 153.043 19.8C153.523 19.8 153.923 19.8533 154.243 19.96L153.643 26.04C152.95 25.8533 152.39 25.76 151.963 25.76C151.35 25.76 150.803 25.88 150.323 26.12C149.87 26.36 149.456 26.68 149.083 27.08C148.736 27.48 148.23 28.0933 147.563 28.92V41H141.923V20.4ZM163.349 41.6C162.042 41.6 160.776 41.4667 159.549 41.2C158.349 40.9333 157.322 40.5733 156.469 40.12L156.989 35.32C157.896 35.88 158.896 36.3333 159.989 36.68C161.082 37.0267 162.109 37.2 163.069 37.2C163.976 37.2 164.736 37.04 165.349 36.72C165.962 36.3733 166.269 35.88 166.269 35.24C166.269 34.7333 166.056 34.3467 165.629 34.08C165.202 33.7867 164.389 33.4267 163.189 33L162.109 32.6C160.962 32.1733 160.029 31.7733 159.309 31.4C158.589 31 157.936 30.4 157.349 29.6C156.762 28.8 156.469 27.7467 156.469 26.44C156.469 24.36 157.242 22.7467 158.789 21.6C160.362 20.4267 162.402 19.84 164.909 19.84C166.882 19.84 168.962 20.2267 171.149 21L170.389 25.76C169.616 25.3067 168.736 24.9467 167.749 24.68C166.789 24.3867 165.882 24.24 165.029 24.24C164.149 24.24 163.442 24.3867 162.909 24.68C162.402 24.9733 162.149 25.4 162.149 25.96C162.149 26.4933 162.362 26.8933 162.789 27.16C163.216 27.4267 163.936 27.7333 164.949 28.08C165.749 28.3733 166.216 28.5467 166.349 28.6C167.469 29.0533 168.402 29.4933 169.149 29.92C169.896 30.3467 170.549 30.9867 171.109 31.84C171.669 32.6667 171.949 33.7333 171.949 35.04C171.949 37.2267 171.162 38.8667 169.589 39.96C168.016 41.0533 165.936 41.6 163.349 41.6Z" fill="#03012C"/>
</svg>
